<svg xmlns="http://www.w3.org/2000/svg" viewBox="0 0 120 85" xmlns:v="https://vecta.io/nano"><path d="M48.97 40.67h.12c.97.37 2.07-.24 2.44-1.22.24-.73.61-1.46.97-2.07.49-.73 1.1-1.46 1.83-1.95 1.58-1.34 3.65-2.07 5.85-2.07 2.92 0 5.73 1.46 7.31 3.78h-2.68a1.92 1.92 0 0 0-1.95 1.95 1.92 1.92 0 0 0 1.95 1.95h7.55a1.92 1.92 0 0 0 1.95-1.95v-8.53c-.24-1.34-.97-2.19-2.07-2.19a1.92 1.92 0 0 0-1.95 1.95v4.39c-2.31-3.17-6.09-5.24-10.11-5.36h-.24c-1.34 0-2.56.24-3.78.61-1.83.61-3.53 1.46-5 2.8-.61.61-1.1 1.1-1.58 1.83-.85 1.1-1.46 2.31-1.83 3.65v.12c-.24.85.24 1.95 1.22 2.31zm10.96 14.99c1.22 0 2.44-.24 3.65-.49 1.58-.49 3.17-1.22 4.39-2.31a11.52 11.52 0 0 0 1.71-1.71c1.1-1.22 1.83-2.68 2.44-4.39 0-.12 0-.24.12-.24.12-.85-.49-1.71-1.34-2.07-1.1-.37-2.07.24-2.44 1.22-.24.73-.61 1.46-1.1 2.19-.73 1.1-1.58 1.95-2.56 2.56-1.46.97-3.17 1.46-5 1.46-2.92 0-5.73-1.46-7.31-3.78h2.68a1.92 1.92 0 0 0 1.95-1.95 1.92 1.92 0 0 0-1.95-1.95h-7.55a1.92 1.92 0 0 0-1.95 1.95v8.53a1.92 1.92 0 0 0 1.95 1.95 1.92 1.92 0 0 0 1.95-1.95v-4.39c2.19 3.17 5.97 5.24 9.99 5.36h.37zM119.11 0H0v85h120V0h-.89zm-19.6 3h12.4L90.68 24.23l-6.19-6.19L95.9 6.63l-.02-.02 3.62-3.62zM79.08 3l-4.7 4.7-4.7-4.7h9.4zM50.05 3h12.4L51.03 14.42l-6.2-6.2L50.05 3zM48.9 16.53L20.96 44.47l-6.2-6.2 27.93-27.95 6.2 6.2zM33.38 3h12.4L27.66 21.12l-6.2-6.2L33.38 3zM12.53 3l-1.5 1.5L9.53 3h3zM3 3h2.3l3.63 3.63L3 12.55V3zm0 13.77L16.77 3h12.4L4.32 27.85 3 26.53v-9.76zM3 33.4l16.35-16.35 6.2 6.2L3 45.8V33.4zm0 16.65l9.64-9.64 6.2 6.2L3 62.44v-12.4zm0 16.63l2.92-2.92 6.2 6.2L3 79.08v-12.4zm13.31 15.33H4.3l24.96-24.96 5.99 5.99-11.41 11.41.02.02-7.55 7.55zm4.23 0l24.44-24.44c-.72-.71-1.36-1.49-1.97-2.3l-5.64 5.64-6-6 7.85-7.85c-.26-1.22-.41-2.47-.46-3.76L14.22 67.84l-6.2-6.2L35.96 33.7l3.46 3.46c.28-1.09.64-2.15 1.08-3.16l-2.43-2.43L66.03 3.6l6.2 6.2-11.46 11.46c1.3.05 2.57.2 3.8.47L83.3 3h11.98L72.77 25.51c.81.61 1.58 1.25 2.29 1.97l7.31-7.31 6.19 6.19-8.66 8.66c.4 1.05.73 2.13.96 3.26l24.84-24.84 6.2 6.2-27.94 27.94-2.8-2.8a20.54 20.54 0 0 1-.7 3.54l1.39 1.39-3.43 3.43-7.77 7.77-16.74 16.74-6.2-6.2h0l8.09-8.1c-1.13-.23-2.21-.56-3.27-.96L32.92 82H20.56zm78.44-45.23l6.2 6.2-27.94 27.94-6.2-6.2 27.94-27.94zM49.54 82H37.12l8.44-8.44 6.21 6.21L49.54 82zm16.63 0h-12.4l15.15-15.15 6.2 6.2L66.17 82zm16.62 0h-12.4l21.87-21.87 6.2 6.2L82.79 82zm20.85 0l5.25-5.25 5.25 5.25h-10.5zM117 80.62l-6-6 6-6v12zm0-16.22L99.41 81.99h-11.1l-.65-.65L115.6 53.4l1.4 1.4v9.61zm0-16.63l-16.42 16.42-6.2-6.2L117 35.37v12.4zm0-16.6l-9.69 9.69-6.2-6.2L117 18.77v12.4zm0-16.63l-2.97 2.97-6.2-6.2 8.32-8.32h.86v11.55z"/></svg>