<?xml version="1.0" encoding="UTF-8"?>
<svg id="Ebene_1" data-name="Ebene 1" xmlns="http://www.w3.org/2000/svg" viewBox="0 0 120 85">
  <path d="M105.6,30.59c-1.06-.47-2.24-.59-3.18-.12l-.94,.47h-.12l-11.66,5.2-2.12,.95-20.5,9.22-.12-.35-7.19,6.62,.24,.59-2,1.65c-.24,.12-.24,.47-.12,.71,0,.12,.12,.12,.12,.12,.12,.12,.35,.24,.59,.12l2.36-.47,.24,.47,9.89-.95-.12-.35,34.39-15.37,.94-.47c2-.95,2.83-3.55,1.77-5.79-.59-.83-1.41-1.65-2.47-2.25Zm-43.23,23.29c-.12-.24-.24-.47-.24-.71l4.24-3.9,1.77,4.02-5.77,.59Zm7.66-.95l-2.12-4.73,33.45-15.01,.47,.95,1.65,3.78-33.45,15.01Zm35.34-15.84h0l-2.24-4.73h.12c.47-.24,.94-.12,1.53,.12,.59,.24,1.06,.83,1.41,1.54,.47,1.18,.24,2.6-.82,3.07Z"/>
  <polygon points="24.25 85 0 68.11 0 .02 120 0 120 3.01 3 3.03 3 66.54 24.77 81.7 71.24 67.61 57.35 58.53 58.98 56.01 78.28 68.62 24.25 85"/>
</svg>