<svg xmlns="http://www.w3.org/2000/svg" viewBox="0 0 504 358" xmlns:v="https://vecta.io/nano"><path d="M504 358H0V0h504v358zm-7.36-7.22V7.4H7.26v343.38h489.38z" fill="#fff"/><path d="M496.64 350.78H7.26V7.4h489.38v343.38zM18.36 17.22v211.54h47.37V17.22H18.36zm107.29 211.55V17.4h-47.4v211.37h47.4zm60.01-.01V17.39h-47.41v211.37h47.41zm59.99.01V17.4h-47.39v211.37h47.39zm12.53-.16h47.57V17.31h-47.57v211.3zm107.47.17V17.41h-47.38v211.37h47.38zm12.69-211.54v211.37h47.41V17.24h-47.41zm107.3 211.54V17.41h-47.38v211.37h47.38zM18.35 241.23v99.37h47.4v-99.37h-47.4zm59.99 0v99.37h47.4v-99.37h-47.4zm107.31 99.54V241.4h-47.39v99.37h47.39zm60.13-99.42h-47.39v99.38h47.39v-99.38zm59.94 99.41v-99.43h-47.35v99.43h47.35zm59.94.01V241.4h-47.4v99.37h47.4zm60.12-99.49h-47.46v99.36h47.46v-99.36zm59.87 99.49V241.4h-47.39v99.37h47.39z"/><path d="M18.36 17.22h47.37v211.54H18.36V17.22zm107.29 211.55h-47.4V17.4h47.4v211.37zm60.01-.01h-47.41V17.39h47.41v211.37zm59.99.01h-47.39V17.4h47.39v211.37zm12.53-.16V17.31h47.57v211.3h-47.57zm107.47.17h-47.38V17.41h47.38v211.37zm12.69-211.54h47.41v211.37h-47.41V17.24zm107.3 211.54h-47.38V17.41h47.38v211.37zM18.35 241.23h47.4v99.37h-47.4v-99.37zm59.99 0h47.4v99.37h-47.4v-99.37zm107.31 99.54h-47.39V241.4h47.39v99.37zm60.13-99.42v99.38h-47.39v-99.38h47.39zm59.94 99.41h-47.35v-99.43h47.35v99.43zm59.94.01h-47.4V241.4h47.4v99.37zm60.12-99.49v99.36h-47.46v-99.36h47.46zm59.87 99.49h-47.39V241.4h47.39v99.37z" fill="#fff"/></svg>