<?xml version="1.0" encoding="UTF-8"?>
<svg id="Ebene_1" data-name="Ebene 1" xmlns="http://www.w3.org/2000/svg" viewBox="0 0 120 85">
  <path d="M120,2.99V0H0V2.99H21.67V11.72H0v2.99H21.67v8.73H0v2.99H21.67v8.72H0v2.99H21.67v8.72H0v2.99H21.67v8.73H0v2.99H21.67v8.73H0v2.99H21.67v8.72H0v2.99H120v-2.99h-21.67v-8.72h21.67v-2.99h-21.67v-8.73h21.67v-2.99h-21.67v-8.73h21.67v-2.99h-21.67v-8.72h21.67v-2.99h-21.67v-8.72h21.67v-2.99h-21.67V14.71h21.67v-2.99h-21.67V2.99h21.67ZM24.67,2.99H58.5V11.72H24.67V2.99Zm0,11.72H58.5v8.73H24.67V14.71Zm0,11.72H58.5v8.72H24.67v-8.72Zm0,11.72H58.5v8.72H24.67v-8.72Zm0,11.72H58.5v8.73H24.67v-8.73Zm0,11.72H58.5v8.73H24.67v-8.73Zm0,11.72H58.5v8.72H24.67v-8.72Zm70.67,8.72H61.5v-8.72h33.83v8.72Zm0-11.72H61.5v-8.73h33.83v8.73Zm0-11.72H61.5v-8.73h33.83v8.73Zm0-11.72H61.5v-8.72h33.83v8.72Zm0-11.72H61.5v-8.72h33.83v8.72Zm0-11.72H61.5V14.71h33.83v8.73Zm0-11.72H61.5V2.99h33.83V11.72Z"/>
</svg>