<svg xmlns="http://www.w3.org/2000/svg" viewBox="0 0 120 85" xmlns:v="https://vecta.io/nano"><path d="M115.24 2.99H120V0H0v2.99h15.99v8.77H0v2.99h30.16v8.77H0v2.99h1.81v8.77H0v2.99h15.98v8.77H0v2.99h30.16v8.77H0v2.99h1.81v8.77H0v2.99h15.98v8.49H0v2.99h120v-2.99h-15.97v-8.49H120v-2.99H89.86v-8.77H120V58.8h-1.75v-8.77H120v-2.99h-15.96v-8.77H120v-2.99H89.87v-8.77H120v-2.99h-1.75v-8.78H120v-2.99h-15.94V2.99h11.18zm-96.25 8.77V2.99h39.53v8.77H18.99zm14.18 2.99H72.7v8.77H33.17v-8.78zM4.81 35.27V26.5h39.53v8.77H4.81zm14.17 11.76v-8.77h39.53v8.77H18.99zm14.18 2.99h39.52v8.77H33.16v-8.77zM4.81 70.54v-8.77h39.52v8.77H4.81zm42.52 11.48H18.98v-8.49H58.5v8.49H47.33zm53.7-8.49v8.49H61.51v-8.49h39.52zm-14.17-2.99H47.33v-8.77h39.53v8.77zm28.39-20.52v8.77H75.69v-8.77h39.56zm-14.2-11.76v8.77H61.51v-8.77h39.53zm-14.18-2.99H47.34V26.5h39.53v8.77zm28.37-20.52v8.77H75.69v-8.78h39.55zm-14.19-2.99H61.52V2.99h39.54v8.77z"/></svg>