<svg xmlns="http://www.w3.org/2000/svg" viewBox="0 0 504 358" xmlns:v="https://vecta.io/nano"><path d="M0 358V0h504v358H0zm7.23-7.35h489.38V7.26H7.23v343.39z" fill="#fff"/><path d="M7.23 350.65V7.26h489.38v343.39H7.23zm11-9.94h228.19v-43.45H18.23v43.45zm.02-323.52v43.52h227.41V17.19H18.25zm467.5 43.62V17.29H258.34v43.52h227.41zM245.77 73.34H18.4v43.41h227.37V73.34zm12.47 43.32h227.37V73.25H258.24v43.41zm-12.46 12.69H18.42v43.38h227.36v-43.38zm12.45 43.3H485.6v-43.39H258.23v43.39zm-12.45 12.71H18.24v43.37h227.54v-43.37zm239.99-.02H258.4v43.4h227.37v-43.4zm-240.01 55.93H18.32v43.38h227.44v-43.38zm240.01.07H258.4v43.4h227.37v-43.4zm-227.53 99.32h227.37v-43.42H258.24v43.42z"/><path d="M18.23 340.71v-43.45h228.19v43.45H18.23zm.02-323.52h227.41v43.52H18.25V17.19zm467.5 43.62H258.34V17.29h227.41v43.52zM245.77 73.34v43.41H18.4V73.34h227.37zm12.47 43.32V73.25h227.37v43.41H258.24zm-12.46 12.69v43.38H18.42v-43.38h227.36zm12.45 43.3v-43.39H485.6v43.39H258.23zm-12.45 12.71v43.37H18.24v-43.37h227.54zm239.99-.02v43.4H258.4v-43.4h227.37zm-240.01 55.93v43.38H18.32v-43.38h227.44zm240.01.07v43.4H258.4v-43.4h227.37zm-227.53 99.32v-43.42h227.37v43.42H258.24z" fill="#fff"/></svg>