<?xml version="1.0" encoding="UTF-8"?>
<svg xmlns="http://www.w3.org/2000/svg" width="800.000" height="600.000" viewBox="0.0 0.0 800.000 600.000" version="1.1">
  <desc>Produce by Acme CAD Converter</desc>
<path d="M 618.82 34.12 A 11.765 11.765 0 0 0 607.06 22.35"
fill="none" stroke="black" stroke-width="0.5"/>
<path d="M618.82 148.24L618.82 34.12Z"
fill="none" stroke="black" stroke-width="0.5"/>
<path d="M 612.94 154.12 A 5.882 5.882 0 0 0 618.82 148.24"
fill="none" stroke="black" stroke-width="0.5"/>
<path d="M560 154.12L612.94 154.12"
fill="none" stroke="black" stroke-width="0.5"/>
<path d="M510.04 204.08L560 154.12"
fill="none" stroke="black" stroke-width="0.5"/>
<path d="M 500 199.92 A 5.882 5.882 0 0 0 510.04 204.08"
fill="none" stroke="black" stroke-width="0.5"/>
<path d="M500 157.65L500 199.92Z"
fill="none" stroke="black" stroke-width="0.5"/>
<path d="M 500 157.65 A 11.765 11.765 0 0 0 488.24 145.88"
fill="none" stroke="black" stroke-width="0.5"/>
<path d="M440 145.88L488.24 145.88"
fill="none" stroke="black" stroke-width="0.5"/>
<path d="M 434.12 140 A 5.882 5.882 0 0 0 440 145.88"
fill="none" stroke="black" stroke-width="0.5"/>
<path d="M434.12 36.23L434.12 140Z"
fill="none" stroke="black" stroke-width="0.5"/>
<path d="M448 22.35L434.12 36.23"
fill="none" stroke="black" stroke-width="0.5"/>
<path d="M607.06 22.35L448 22.35"
fill="none" stroke="black" stroke-width="0.5"/>
<path d="M 371.99 391.72 A 5.882 5.882 0 0 0 363.53 397"
fill="none" stroke="black" stroke-width="0.5"/>
<path d="M397.42 404.12L371.99 391.72"
fill="none" stroke="black" stroke-width="0.5"/>
<path d="M 397.42 404.12 A 5.882 5.882 0 0 0 402.58 404.12"
fill="none" stroke="black" stroke-width="0.5"/>
<path d="M428.01 391.72L402.58 404.12"
fill="none" stroke="black" stroke-width="0.5"/>
<path d="M 436.47 397 A 5.882 5.882 0 0 0 428.01 391.72"
fill="none" stroke="black" stroke-width="0.5"/>
<path d="M436.47 432L436.47 397Z"
fill="none" stroke="black" stroke-width="0.5"/>
<path d="M404.16 464.31L436.47 432"
fill="none" stroke="black" stroke-width="0.5"/>
<path d="M 395.84 464.31 A 5.882 5.882 0 0 0 404.16 464.31"
fill="none" stroke="black" stroke-width="0.5"/>
<path d="M363.53 432L395.84 464.31"
fill="none" stroke="black" stroke-width="0.5"/>
<path d="M363.53 397L363.53 432Z"
fill="none" stroke="black" stroke-width="0.5"/>
<path d="M 458.82 385.88 A 5.882 5.882 0 0 0 452.94 391.76"
fill="none" stroke="black" stroke-width="0.5"/>
<path d="M500 385.88L458.82 385.88"
fill="none" stroke="black" stroke-width="0.5"/>
<path d="M560 445.88L500 385.88"
fill="none" stroke="black" stroke-width="0.5"/>
<path d="M612.94 445.88L560 445.88"
fill="none" stroke="black" stroke-width="0.5"/>
<path d="M 618.82 451.76 A 5.882 5.882 0 0 0 612.94 445.88"
fill="none" stroke="black" stroke-width="0.5"/>
<path d="M618.82 571.76L618.82 451.76Z"
fill="none" stroke="black" stroke-width="0.5"/>
<path d="M 612.94 577.65 A 5.882 5.882 0 0 0 618.82 571.76"
fill="none" stroke="black" stroke-width="0.5"/>
<path d="M414.12 577.65L612.94 577.65"
fill="none" stroke="black" stroke-width="0.5"/>
<path d="M 408.24 571.76 A 5.882 5.882 0 0 0 414.12 577.65"
fill="none" stroke="black" stroke-width="0.5"/>
<path d="M408.24 483.53L408.24 571.76Z"
fill="none" stroke="black" stroke-width="0.5"/>
<path d="M452.94 438.82L408.24 483.53"
fill="none" stroke="black" stroke-width="0.5"/>
<path d="M452.94 391.76L452.94 438.82Z"
fill="none" stroke="black" stroke-width="0.5"/>
<path d="M 635.29 29.41 A 23.529 23.529 0 0 0 611.76 5.88"
fill="none" stroke="black" stroke-width="0.5"/>
<path d="M611.76 5.88L441.18 5.88"
fill="none" stroke="black" stroke-width="0.5"/>
<path d="M441.18 5.88L417.65 29.41"
fill="none" stroke="black" stroke-width="0.5"/>
<path d="M417.65 29.41L417.65 35.29Z"
fill="none" stroke="black" stroke-width="0.5"/>
<path d="M417.65 35.29L421.18 35.29"
fill="none" stroke="black" stroke-width="0.5"/>
<path d="M421.18 35.29L421.18 38.82Z"
fill="none" stroke="black" stroke-width="0.5"/>
<path d="M421.18 38.82L417.65 38.82"
fill="none" stroke="black" stroke-width="0.5"/>
<path d="M417.65 38.82L417.65 42.35Z"
fill="none" stroke="black" stroke-width="0.5"/>
<path d="M417.65 42.35L421.18 42.35"
fill="none" stroke="black" stroke-width="0.5"/>
<path d="M421.18 42.35L421.18 45.88Z"
fill="none" stroke="black" stroke-width="0.5"/>
<path d="M421.18 45.88L417.65 45.88"
fill="none" stroke="black" stroke-width="0.5"/>
<path d="M417.65 45.88L417.65 49.41Z"
fill="none" stroke="black" stroke-width="0.5"/>
<path d="M417.65 49.41L421.18 49.41"
fill="none" stroke="black" stroke-width="0.5"/>
<path d="M421.18 49.41L421.18 52.94Z"
fill="none" stroke="black" stroke-width="0.5"/>
<path d="M421.18 52.94L417.65 52.94"
fill="none" stroke="black" stroke-width="0.5"/>
<path d="M417.65 52.94L417.65 56.47Z"
fill="none" stroke="black" stroke-width="0.5"/>
<path d="M417.65 56.47L421.18 56.47"
fill="none" stroke="black" stroke-width="0.5"/>
<path d="M421.18 56.47L421.18 60Z"
fill="none" stroke="black" stroke-width="0.5"/>
<path d="M421.18 60L417.65 60"
fill="none" stroke="black" stroke-width="0.5"/>
<path d="M417.65 60L417.65 63.53Z"
fill="none" stroke="black" stroke-width="0.5"/>
<path d="M417.65 63.53L421.18 63.53"
fill="none" stroke="black" stroke-width="0.5"/>
<path d="M421.18 63.53L421.18 67.06Z"
fill="none" stroke="black" stroke-width="0.5"/>
<path d="M421.18 67.06L417.65 67.06"
fill="none" stroke="black" stroke-width="0.5"/>
<path d="M417.65 67.06L417.65 70.59Z"
fill="none" stroke="black" stroke-width="0.5"/>
<path d="M417.65 70.59L421.18 70.59"
fill="none" stroke="black" stroke-width="0.5"/>
<path d="M421.18 70.59L421.18 74.12Z"
fill="none" stroke="black" stroke-width="0.5"/>
<path d="M421.18 74.12L417.65 74.12"
fill="none" stroke="black" stroke-width="0.5"/>
<path d="M417.65 74.12L417.65 77.65Z"
fill="none" stroke="black" stroke-width="0.5"/>
<path d="M417.65 77.65L421.18 77.65"
fill="none" stroke="black" stroke-width="0.5"/>
<path d="M421.18 77.65L421.18 81.18Z"
fill="none" stroke="black" stroke-width="0.5"/>
<path d="M421.18 81.18L417.65 81.18"
fill="none" stroke="black" stroke-width="0.5"/>
<path d="M417.65 81.18L417.65 145.88Z"
fill="none" stroke="black" stroke-width="0.5"/>
<path d="M417.65 145.88L403.26 145.88"
fill="none" stroke="black" stroke-width="0.5"/>
<path d="M403.26 145.88L400 152.14"
fill="none" stroke="black" stroke-width="0.5"/>
<path d="M400 152.14L396.74 145.88"
fill="none" stroke="black" stroke-width="0.5"/>
<path d="M396.74 145.88L382.35 145.88"
fill="none" stroke="black" stroke-width="0.5"/>
<path d="M382.35 145.88L382.35 81.18Z"
fill="none" stroke="black" stroke-width="0.5"/>
<path d="M382.35 81.18L378.82 81.18"
fill="none" stroke="black" stroke-width="0.5"/>
<path d="M378.82 81.18L378.82 77.65Z"
fill="none" stroke="black" stroke-width="0.5"/>
<path d="M378.82 77.65L382.35 77.65"
fill="none" stroke="black" stroke-width="0.5"/>
<path d="M382.35 77.65L382.35 74.12Z"
fill="none" stroke="black" stroke-width="0.5"/>
<path d="M382.35 74.12L378.82 74.12"
fill="none" stroke="black" stroke-width="0.5"/>
<path d="M378.82 74.12L378.82 70.59Z"
fill="none" stroke="black" stroke-width="0.5"/>
<path d="M378.82 70.59L382.35 70.59"
fill="none" stroke="black" stroke-width="0.5"/>
<path d="M382.35 70.59L382.35 67.06Z"
fill="none" stroke="black" stroke-width="0.5"/>
<path d="M382.35 67.06L378.82 67.06"
fill="none" stroke="black" stroke-width="0.5"/>
<path d="M378.82 67.06L378.82 63.53Z"
fill="none" stroke="black" stroke-width="0.5"/>
<path d="M378.82 63.53L382.35 63.53"
fill="none" stroke="black" stroke-width="0.5"/>
<path d="M382.35 63.53L382.35 60Z"
fill="none" stroke="black" stroke-width="0.5"/>
<path d="M382.35 60L378.82 60"
fill="none" stroke="black" stroke-width="0.5"/>
<path d="M378.82 60L378.82 56.47Z"
fill="none" stroke="black" stroke-width="0.5"/>
<path d="M378.82 56.47L382.35 56.47"
fill="none" stroke="black" stroke-width="0.5"/>
<path d="M382.35 56.47L382.35 52.94Z"
fill="none" stroke="black" stroke-width="0.5"/>
<path d="M382.35 52.94L378.82 52.94"
fill="none" stroke="black" stroke-width="0.5"/>
<path d="M378.82 52.94L378.82 49.41Z"
fill="none" stroke="black" stroke-width="0.5"/>
<path d="M378.82 49.41L382.35 49.41"
fill="none" stroke="black" stroke-width="0.5"/>
<path d="M382.35 49.41L382.35 45.88Z"
fill="none" stroke="black" stroke-width="0.5"/>
<path d="M382.35 45.88L378.82 45.88"
fill="none" stroke="black" stroke-width="0.5"/>
<path d="M378.82 45.88L378.82 42.35Z"
fill="none" stroke="black" stroke-width="0.5"/>
<path d="M378.82 42.35L382.35 42.35"
fill="none" stroke="black" stroke-width="0.5"/>
<path d="M382.35 42.35L382.35 38.82Z"
fill="none" stroke="black" stroke-width="0.5"/>
<path d="M382.35 38.82L378.82 38.82"
fill="none" stroke="black" stroke-width="0.5"/>
<path d="M378.82 38.82L378.82 35.29Z"
fill="none" stroke="black" stroke-width="0.5"/>
<path d="M378.82 35.29L382.35 35.29"
fill="none" stroke="black" stroke-width="0.5"/>
<path d="M382.35 35.29L382.35 29.41Z"
fill="none" stroke="black" stroke-width="0.5"/>
<path d="M382.35 29.41L358.82 5.88"
fill="none" stroke="black" stroke-width="0.5"/>
<path d="M358.82 5.88L188.24 5.88"
fill="none" stroke="black" stroke-width="0.5"/>
<path d="M 188.24 5.88 A 23.529 23.529 0 0 0 164.71 29.41"
fill="none" stroke="black" stroke-width="0.5"/>
<path d="M164.71 29.41L164.71 228.24Z"
fill="none" stroke="black" stroke-width="0.5"/>
<path d="M 164.71 228.24 A 11.765 11.765 0 0 0 176.47 240"
fill="none" stroke="black" stroke-width="0.5"/>
<path d="M176.47 240L205.88 240"
fill="none" stroke="black" stroke-width="0.5"/>
<path d="M 205.88 240 A 11.765 11.765 0 0 0 217.65 228.24"
fill="none" stroke="black" stroke-width="0.5"/>
<path d="M217.65 228.24L217.65 216.47Z"
fill="none" stroke="black" stroke-width="0.5"/>
<path d="M 217.65 216.47 A 11.765 11.765 0 0 0 205.88 204.71"
fill="none" stroke="black" stroke-width="0.5"/>
<path d="M205.88 204.71L192.94 204.71"
fill="none" stroke="black" stroke-width="0.5"/>
<path d="M 181.18 192.94 A 11.765 11.765 0 0 0 192.94 204.71"
fill="none" stroke="black" stroke-width="0.5"/>
<path d="M181.18 192.94L181.18 176.47Z"
fill="none" stroke="black" stroke-width="0.5"/>
<path d="M 187.06 170.59 A 5.882 5.882 0 0 0 181.18 176.47"
fill="none" stroke="black" stroke-width="0.5"/>
<path d="M187.06 170.59L233.18 170.59"
fill="none" stroke="black" stroke-width="0.5"/>
<path d="M233.18 170.59L300 237.41"
fill="none" stroke="black" stroke-width="0.5"/>
<path d="M300 237.41L300 362.59Z"
fill="none" stroke="black" stroke-width="0.5"/>
<path d="M300 362.59L233.18 429.41"
fill="none" stroke="black" stroke-width="0.5"/>
<path d="M233.18 429.41L187.06 429.41"
fill="none" stroke="black" stroke-width="0.5"/>
<path d="M 181.18 423.53 A 5.882 5.882 0 0 0 187.06 429.41"
fill="none" stroke="black" stroke-width="0.5"/>
<path d="M181.18 423.53L181.18 407.06Z"
fill="none" stroke="black" stroke-width="0.5"/>
<path d="M 192.94 395.29 A 11.765 11.765 0 0 0 181.18 407.06"
fill="none" stroke="black" stroke-width="0.5"/>
<path d="M192.94 395.29L205.88 395.29"
fill="none" stroke="black" stroke-width="0.5"/>
<path d="M 205.88 395.29 A 11.765 11.765 0 0 0 217.65 383.53"
fill="none" stroke="black" stroke-width="0.5"/>
<path d="M217.65 383.53L217.65 371.76Z"
fill="none" stroke="black" stroke-width="0.5"/>
<path d="M 217.65 371.76 A 11.765 11.765 0 0 0 205.88 360"
fill="none" stroke="black" stroke-width="0.5"/>
<path d="M205.88 360L176.47 360"
fill="none" stroke="black" stroke-width="0.5"/>
<path d="M 176.47 360 A 11.765 11.765 0 0 0 164.71 371.76"
fill="none" stroke="black" stroke-width="0.5"/>
<path d="M164.71 371.76L164.71 570.59Z"
fill="none" stroke="black" stroke-width="0.5"/>
<path d="M 164.71 570.59 A 23.529 23.529 0 0 0 188.24 594.12"
fill="none" stroke="black" stroke-width="0.5"/>
<path d="M188.24 594.12L611.76 594.12"
fill="none" stroke="black" stroke-width="0.5"/>
<path d="M 611.76 594.12 A 23.529 23.529 0 0 0 635.29 570.59"
fill="none" stroke="black" stroke-width="0.5"/>
<path d="M635.29 570.59L635.29 371.76Z"
fill="none" stroke="black" stroke-width="0.5"/>
<path d="M 635.29 371.76 A 11.765 11.765 0 0 0 623.53 360"
fill="none" stroke="black" stroke-width="0.5"/>
<path d="M623.53 360L594.12 360"
fill="none" stroke="black" stroke-width="0.5"/>
<path d="M 594.12 360 A 11.765 11.765 0 0 0 582.35 371.76"
fill="none" stroke="black" stroke-width="0.5"/>
<path d="M582.35 371.76L582.35 383.53Z"
fill="none" stroke="black" stroke-width="0.5"/>
<path d="M 582.35 383.53 A 11.765 11.765 0 0 0 594.12 395.29"
fill="none" stroke="black" stroke-width="0.5"/>
<path d="M594.12 395.29L607.06 395.29"
fill="none" stroke="black" stroke-width="0.5"/>
<path d="M 618.82 407.06 A 11.765 11.765 0 0 0 607.06 395.29"
fill="none" stroke="black" stroke-width="0.5"/>
<path d="M618.82 407.06L618.82 423.53Z"
fill="none" stroke="black" stroke-width="0.5"/>
<path d="M 612.94 429.41 A 5.882 5.882 0 0 0 618.82 423.53"
fill="none" stroke="black" stroke-width="0.5"/>
<path d="M612.94 429.41L566.82 429.41"
fill="none" stroke="black" stroke-width="0.5"/>
<path d="M566.82 429.41L500 362.59"
fill="none" stroke="black" stroke-width="0.5"/>
<path d="M500 362.59L500 237.41Z"
fill="none" stroke="black" stroke-width="0.5"/>
<path d="M500 237.41L566.82 170.59"
fill="none" stroke="black" stroke-width="0.5"/>
<path d="M566.82 170.59L612.94 170.59"
fill="none" stroke="black" stroke-width="0.5"/>
<path d="M 618.82 176.47 A 5.882 5.882 0 0 0 612.94 170.59"
fill="none" stroke="black" stroke-width="0.5"/>
<path d="M618.82 176.47L618.82 192.94Z"
fill="none" stroke="black" stroke-width="0.5"/>
<path d="M 607.06 204.71 A 11.765 11.765 0 0 0 618.82 192.94"
fill="none" stroke="black" stroke-width="0.5"/>
<path d="M607.06 204.71L594.12 204.71"
fill="none" stroke="black" stroke-width="0.5"/>
<path d="M 594.12 204.71 A 11.765 11.765 0 0 0 582.35 216.47"
fill="none" stroke="black" stroke-width="0.5"/>
<path d="M582.35 216.47L582.35 228.24Z"
fill="none" stroke="black" stroke-width="0.5"/>
<path d="M 582.35 228.24 A 11.765 11.765 0 0 0 594.12 240"
fill="none" stroke="black" stroke-width="0.5"/>
<path d="M594.12 240L623.53 240"
fill="none" stroke="black" stroke-width="0.5"/>
<path d="M 623.53 240 A 11.765 11.765 0 0 0 635.29 228.24"
fill="none" stroke="black" stroke-width="0.5"/>
<path d="M635.29 228.24L635.29 29.41Z"
fill="none" stroke="black" stroke-width="0.5"/>
<path d="M 347.06 391.76 A 5.882 5.882 0 0 0 341.18 385.88"
fill="none" stroke="black" stroke-width="0.5"/>
<path d="M347.06 438.82L347.06 391.76Z"
fill="none" stroke="black" stroke-width="0.5"/>
<path d="M391.76 483.53L347.06 438.82"
fill="none" stroke="black" stroke-width="0.5"/>
<path d="M391.76 571.76L391.76 483.53Z"
fill="none" stroke="black" stroke-width="0.5"/>
<path d="M 385.88 577.65 A 5.882 5.882 0 0 0 391.76 571.76"
fill="none" stroke="black" stroke-width="0.5"/>
<path d="M187.06 577.65L385.88 577.65"
fill="none" stroke="black" stroke-width="0.5"/>
<path d="M 181.18 571.76 A 5.882 5.882 0 0 0 187.06 577.65"
fill="none" stroke="black" stroke-width="0.5"/>
<path d="M181.18 451.76L181.18 571.76Z"
fill="none" stroke="black" stroke-width="0.5"/>
<path d="M 187.06 445.88 A 5.882 5.882 0 0 0 181.18 451.76"
fill="none" stroke="black" stroke-width="0.5"/>
<path d="M240 445.88L187.06 445.88"
fill="none" stroke="black" stroke-width="0.5"/>
<path d="M300 385.88L240 445.88"
fill="none" stroke="black" stroke-width="0.5"/>
<path d="M341.18 385.88L300 385.88"
fill="none" stroke="black" stroke-width="0.5"/>
<path d="M 397.42 385.79 A 5.882 5.882 0 0 0 402.58 385.79"
fill="none" stroke="black" stroke-width="0.5"/>
<path d="M363.82 369.41L397.42 385.79"
fill="none" stroke="black" stroke-width="0.5"/>
<path d="M322.35 369.41L363.82 369.41"
fill="none" stroke="black" stroke-width="0.5"/>
<path d="M 316.47 363.53 A 5.882 5.882 0 0 0 322.35 369.41"
fill="none" stroke="black" stroke-width="0.5"/>
<path d="M316.47 168.24L316.47 363.53Z"
fill="none" stroke="black" stroke-width="0.5"/>
<path d="M 322.35 162.35 A 5.882 5.882 0 0 0 316.47 168.24"
fill="none" stroke="black" stroke-width="0.5"/>
<path d="M477.65 162.35L322.35 162.35"
fill="none" stroke="black" stroke-width="0.5"/>
<path d="M 483.53 168.24 A 5.882 5.882 0 0 0 477.65 162.35"
fill="none" stroke="black" stroke-width="0.5"/>
<path d="M483.53 363.53L483.53 168.24Z"
fill="none" stroke="black" stroke-width="0.5"/>
<path d="M 477.65 369.41 A 5.882 5.882 0 0 0 483.53 363.53"
fill="none" stroke="black" stroke-width="0.5"/>
<path d="M436.18 369.41L477.65 369.41"
fill="none" stroke="black" stroke-width="0.5"/>
<path d="M402.58 385.79L436.18 369.41"
fill="none" stroke="black" stroke-width="0.5"/>
<path d="M 289.96 204.08 A 5.882 5.882 0 0 0 300 199.92"
fill="none" stroke="black" stroke-width="0.5"/>
<path d="M240 154.12L289.96 204.08"
fill="none" stroke="black" stroke-width="0.5"/>
<path d="M187.06 154.12L240 154.12"
fill="none" stroke="black" stroke-width="0.5"/>
<path d="M 181.18 148.24 A 5.882 5.882 0 0 0 187.06 154.12"
fill="none" stroke="black" stroke-width="0.5"/>
<path d="M181.18 34.12L181.18 148.24Z"
fill="none" stroke="black" stroke-width="0.5"/>
<path d="M 192.94 22.35 A 11.765 11.765 0 0 0 181.18 34.12"
fill="none" stroke="black" stroke-width="0.5"/>
<path d="M352 22.35L192.94 22.35"
fill="none" stroke="black" stroke-width="0.5"/>
<path d="M365.88 36.23L352 22.35"
fill="none" stroke="black" stroke-width="0.5"/>
<path d="M365.88 140L365.88 36.23Z"
fill="none" stroke="black" stroke-width="0.5"/>
<path d="M 360 145.88 A 5.882 5.882 0 0 0 365.88 140"
fill="none" stroke="black" stroke-width="0.5"/>
<path d="M311.76 145.88L360 145.88"
fill="none" stroke="black" stroke-width="0.5"/>
<path d="M 311.76 145.88 A 11.765 11.765 0 0 0 300 157.65"
fill="none" stroke="black" stroke-width="0.5"/>
<path d="M300 199.92L300 157.65Z"
fill="none" stroke="black" stroke-width="0.5"/>
</svg>
