<?xml version="1.0" encoding="UTF-8"?>
<svg xmlns="http://www.w3.org/2000/svg" width="800.000" height="600.000" viewBox="0.0 0.0 800.000 600.000" version="1.1">
  <title>Produce by Acme CAD Converter</title>
  <desc>Produce by Acme CAD Converter</desc>
<polyline points="114.69,522.32 116.14,523.78 130.01,523.78 131.47,522.32 131.47,519.64 132.92,518.18 135.61,518.18 137.06,519.64 137.06,522.32 138.52,523.78 152.39,523.78 153.85,522.32 153.85,519.64 155.3,518.18 157.99,518.18 159.44,519.64 159.44,522.32 160.9,523.78 174.77,523.78 176.22,522.32 176.22,519.64 177.68,518.18 180.36,518.18 181.82,519.64 181.82,522.32 183.27,523.78 197.15,523.78 198.6,522.32 198.6,519.64 200.06,518.18 202.74,518.18 204.2,519.64 204.2,522.32 205.65,523.78 219.52,523.78 220.98,522.32 220.98,519.64 222.43,518.18 225.12,518.18 226.57,519.64 226.57,522.32 228.03,523.78 241.9,523.78 243.36,522.32 243.36,519.64 244.81,518.18 247.5,518.18 248.95,519.64 248.95,522.32 250.41,523.78 264.28,523.78 265.73,522.32 265.73,519.64 267.19,518.18 269.87,518.18 271.33,519.64 271.33,522.32 272.78,523.78 286.66,523.78 288.11,522.32 288.11,519.64 289.57,518.18 292.25,518.18 293.71,519.64 293.71,522.32 295.16,523.78 309.03,523.78 310.49,522.32 310.49,519.64 311.94,518.18 314.63,518.18 316.08,519.64 316.08,522.32 317.54,523.78 331.41,523.78 332.87,522.32 332.87,519.64 334.32,518.18 337.01,518.18 338.46,519.64 338.46,522.32 339.92,523.78 353.79,523.78 355.24,522.32 355.24,519.64 356.7,518.18 359.38,518.18 360.84,519.64 360.84,522.32 362.29,523.78 376.17,523.78 377.62,522.32 377.62,519.64 379.08,518.18 381.76,518.18 383.22,519.64 383.22,522.32 384.67,523.78 398.55,523.78 400,522.32 400,519.64 401.45,518.18 404.14,518.18 405.59,519.64 405.59,522.32 407.05,523.78 420.92,523.78 422.38,522.32 422.38,519.64 423.83,518.18 426.52,518.18 427.97,519.64 427.97,522.32 429.43,523.78 443.3,523.78 444.76,522.32 444.76,519.64 446.21,518.18 448.9,518.18 450.35,519.64 450.35,522.32 451.8,523.78 465.68,523.78 467.13,522.32 467.13,519.64 468.59,518.18 471.27,518.18 472.73,519.64 472.73,522.32 474.18,523.78 488.06,523.78 489.51,522.32 489.51,519.64 490.97,518.18 493.65,518.18 495.1,519.64 495.1,522.32 496.56,523.78 510.43,523.78 511.89,522.32 511.89,519.64 513.34,518.18 516.03,518.18 517.48,519.64 517.48,522.32 518.94,523.78 532.81,523.78 534.27,522.32 534.27,519.64 535.72,518.18 538.41,518.18 539.86,519.64 539.86,522.32 541.31,523.78 555.19,523.78 556.64,522.32 556.64,519.64 558.1,518.18 560.78,518.18 562.24,519.64 562.24,522.32 563.69,523.78 577.57,523.78 579.02,522.32 579.02,519.64 580.48,518.18 583.16,518.18 584.62,519.64 584.62,522.32 586.07,523.78 599.94,523.78 601.4,522.32 601.4,519.64 602.85,518.18 605.54,518.18 606.99,519.64 606.99,522.32 608.45,523.78 622.32,523.78 623.78,522.32 623.78,519.64 625.23,518.18 627.92,518.18 629.37,519.64 629.37,522.32 630.83,523.78 644.7,523.78 646.15,522.32 646.15,519.64 647.61,518.18 650.29,518.18 651.75,519.64 651.75,522.32 653.2,523.78 667.08,523.78 668.53,522.32 668.53,519.64 669.99,518.18 672.67,518.18 674.13,519.64 674.13,522.32 675.58,523.78 689.45,523.78 690.91,522.32 690.91,519.64 692.36,518.18 695.05,518.18 696.5,519.64 696.5,522.32 697.96,523.78 711.83,523.78 713.29,522.32 713.29,519.64 714.74,518.18 717.43,518.18 718.88,519.64 718.88,522.32 720.34,523.78 740.7,523.78 751.2,519.42 759.28,511.34 763.64,500.84 763.64,480.48 762.18,479.02 759.5,479.02 758.04,477.57 758.04,474.88 759.5,473.43 762.18,473.43 763.64,471.97 763.64,458.1 762.18,456.64 759.5,456.64 758.04,455.19 758.04,452.5 759.5,451.05 762.18,451.05 763.64,449.59 763.64,435.72 762.18,434.27 759.5,434.27 758.04,432.81 758.04,430.13 759.5,428.67 762.18,428.67 763.64,427.22 763.64,413.34 762.18,411.89 759.5,411.89 758.04,410.43 758.04,407.75 759.5,406.29 762.18,406.29 763.64,404.84 763.64,390.97 762.18,389.51 759.5,389.51 758.04,388.06 758.04,385.37 759.5,383.92 762.18,383.92 763.64,382.46 763.64,368.59 762.18,367.13 759.5,367.13 758.04,365.68 758.04,362.99 759.5,361.54 762.18,361.54 763.64,360.08 763.64,346.21 762.18,344.76 759.5,344.76 758.04,343.3 758.04,340.62 759.5,339.16 762.18,339.16 763.64,337.71 763.64,323.83 762.18,322.38 759.5,322.38 758.04,320.92 758.04,318.24 759.5,316.78 762.18,316.78 763.64,315.33 763.64,301.45 762.18,300 759.5,300 758.04,298.55 758.04,295.86 759.5,294.41 762.18,294.41 763.64,292.95 763.64,279.08 762.18,277.62 759.5,277.62 758.04,276.17 758.04,273.48 759.5,272.03 762.18,272.03 763.64,270.57 763.64,256.7 762.18,255.24 759.5,255.24 758.04,253.79 758.04,251.1 759.5,249.65 762.18,249.65 763.64,248.2 763.64,234.32 762.18,232.87 759.5,232.87 758.04,231.41 758.04,228.73 759.5,227.27 762.18,227.27 763.64,225.82 763.64,211.94 762.18,210.49 759.5,210.49 758.04,209.03 758.04,206.35 759.5,204.9 762.18,204.9 763.64,203.44 763.64,189.57 762.18,188.11 759.5,188.11 758.04,186.66 758.04,183.97 759.5,182.52 762.18,182.52 763.64,181.06 763.64,167.19 762.18,165.73 759.5,165.73 758.04,164.28 758.04,161.59 759.5,160.14 762.18,160.14 763.64,158.69 763.64,144.81 762.18,143.36 759.5,143.36 758.04,141.9 758.04,139.22 759.5,137.76 762.18,137.76 763.64,136.31 763.64,130.6 747.01,76.22 741.26,76.22 741.26,501.4 36.36,501.4 36.36,507.15 90.74,523.78 107.64,523.78 109.09,522.32 109.09,519.64 110.55,518.18 113.23,518.18 114.69,519.64 114.69,522.32" style="fill:none;stroke:black;stroke-width:0.5"/>
</svg>
