<?xml version="1.0" encoding="UTF-8"?>
<svg xmlns="http://www.w3.org/2000/svg" width="800.000" height="600.000" viewBox="0.0 0.0 800.000 600.000" version="1.1">
  <title>Produce by Acme CAD Converter</title>
  <desc>Produce by Acme CAD Converter</desc>
<polyline points="711.69,296.88 711.69,318.7 713.16,322.25 715.41,324.5 718.96,325.97 753.77,325.97 754.65,326.34 755.48,327.17 755.84,328.05 755.84,344.68 755.48,345.56 754.65,346.39 753.77,346.75 713.77,346.75 712.88,347.12 712.06,347.94 711.69,348.83 711.69,352.47 712.06,353.35 712.88,354.18 713.77,354.55 756.36,354.55 759.91,353.08 762.17,350.82 763.64,347.27 763.64,320.26 763.27,319.37 762.45,318.55 761.56,318.18 721.56,318.18 720.67,317.81 719.85,316.99 719.48,316.1 719.48,255.32 719.85,254.44 720.67,253.61 721.56,253.25 753.77,253.25 754.65,253.61 755.48,254.44 755.84,255.32 755.84,271.95 755.48,272.83 754.65,273.66 753.77,274.03 742.34,274.03 741.45,274.39 740.63,275.22 740.26,276.1 740.26,279.74 740.63,280.63 741.45,281.45 742.34,281.82 761.56,281.82 762.45,281.45 763.27,280.63 763.64,279.74 763.64,252.73 762.17,249.18 759.91,246.92 756.36,245.45 713.77,245.45 712.88,245.82 712.06,246.65 711.69,247.53 711.69,284.94 711.32,285.82 710.5,286.65 709.61,287.01 672.21,287.01 671.32,286.65 670.5,285.82 670.13,284.94 670.13,247.53 669.76,246.65 668.94,245.82 668.05,245.45 630.65,245.45 629.76,245.82 628.94,246.65 628.57,247.53 628.57,284.94 628.2,285.82 627.38,286.65 626.49,287.01 589.09,287.01 588.2,286.65 587.38,285.82 587.01,284.94 587.01,247.53 586.65,246.65 585.82,245.82 584.94,245.45 547.53,245.45 546.65,245.82 545.82,246.65 545.45,247.53 545.45,284.94 545.09,285.82 544.26,286.65 543.38,287.01 505.97,287.01 505.09,286.65 504.26,285.82 503.9,284.94 503.9,247.53 503.53,246.65 502.7,245.82 501.82,245.45 464.42,245.45 463.53,245.82 462.7,246.65 462.34,247.53 462.34,284.94 461.97,285.82 461.15,286.65 460.26,287.01 422.86,287.01 421.97,286.65 421.15,285.82 420.78,284.94 420.78,247.53 420.41,246.65 419.59,245.82 418.7,245.45 381.3,245.45 380.41,245.82 379.59,246.65 379.22,247.53 379.22,284.94 378.85,285.82 378.03,286.65 377.14,287.01 339.74,287.01 338.85,286.65 338.03,285.82 337.66,284.94 337.66,247.53 337.3,246.65 336.47,245.82 335.58,245.45 298.18,245.45 297.3,245.82 296.47,246.65 296.1,247.53 296.1,284.94 295.74,285.82 294.91,286.65 294.03,287.01 256.62,287.01 255.74,286.65 254.91,285.82 254.55,284.94 254.55,247.53 254.18,246.65 253.35,245.82 252.47,245.45 215.06,245.45 214.18,245.82 213.35,246.65 212.99,247.53 212.99,284.94 212.62,285.82 211.8,286.65 210.91,287.01 173.51,287.01 172.62,286.65 171.8,285.82 171.43,284.94 171.43,247.53 171.06,246.65 170.24,245.82 169.35,245.45 131.95,245.45 131.06,245.82 130.24,246.65 129.87,247.53 129.87,284.94 129.5,285.82 128.68,286.65 127.79,287.01 90.39,287.01 89.5,286.65 88.68,285.82 88.31,284.94 88.31,247.53 87.94,246.65 87.12,245.82 86.23,245.45 43.64,245.45 40.09,246.92 37.83,249.18 36.36,252.73 36.36,279.74 36.73,280.63 37.55,281.45 38.44,281.82 57.66,281.82 58.55,281.45 59.37,280.63 59.74,279.74 59.74,276.1 59.37,275.22 58.55,274.39 57.66,274.03 46.23,274.03 45.35,273.66 44.52,272.83 44.16,271.95 44.16,255.32 44.52,254.44 45.35,253.61 46.23,253.25 78.44,253.25 79.33,253.61 80.15,254.44 80.52,255.32 80.52,316.1 80.15,316.99 79.33,317.81 78.44,318.18 38.44,318.18 37.55,318.55 36.73,319.37 36.36,320.26 36.36,347.27 37.83,350.82 40.09,353.08 43.64,354.55 86.23,354.55 87.12,354.18 87.94,353.35 88.31,352.47 88.31,348.83 87.94,347.94 87.12,347.12 86.23,346.75 46.23,346.75 45.35,346.39 44.52,345.56 44.16,344.68 44.16,328.05 44.52,327.17 45.35,326.34 46.23,325.97 81.04,325.97 84.59,324.5 86.84,322.25 88.31,318.7 88.31,296.88 88.68,296 89.5,295.17 90.39,294.81 135.58,294.81 136.47,294.44 137.3,293.61 137.66,292.73 137.66,255.32 138.03,254.44 138.85,253.61 139.74,253.25 161.56,253.25 162.45,253.61 163.27,254.44 163.64,255.32 163.64,292.73 164,293.61 164.83,294.44 165.71,294.81 218.7,294.81 219.59,294.44 220.41,293.61 220.78,292.73 220.78,255.32 221.15,254.44 221.97,253.61 222.86,253.25 244.68,253.25 245.56,253.61 246.39,254.44 246.75,255.32 246.75,292.73 247.12,293.61 247.94,294.44 248.83,294.81 294.03,294.81 294.91,295.17 295.74,296 296.1,296.88 296.1,352.47 296.47,353.35 297.3,354.18 298.18,354.55 320,354.55 320.89,354.18 321.71,353.35 322.08,352.47 322.08,348.83 321.71,347.94 320.89,347.12 320,346.75 305.97,346.75 305.09,346.39 304.26,345.56 303.9,344.68 303.9,255.32 304.26,254.44 305.09,253.61 305.97,253.25 327.79,253.25 328.68,253.61 329.5,254.44 329.87,255.32 329.87,292.73 330.24,293.61 331.06,294.44 331.95,294.81 384.94,294.81 385.82,294.44 386.65,293.61 387.01,292.73 387.01,255.32 387.38,254.44 388.2,253.61 389.09,253.25 410.91,253.25 411.8,253.61 412.62,254.44 412.99,255.32 412.99,292.73 413.35,293.61 414.18,294.44 415.06,294.81 468.05,294.81 468.94,294.44 469.76,293.61 470.13,292.73 470.13,255.32 470.5,254.44 471.32,253.61 472.21,253.25 494.03,253.25 494.91,253.61 495.74,254.44 496.1,255.32 496.1,344.68 495.74,345.56 494.91,346.39 494.03,346.75 480,346.75 479.11,347.12 478.29,347.94 477.92,348.83 477.92,352.47 478.29,353.35 479.11,354.18 480,354.55 501.82,354.55 502.7,354.18 503.53,353.35 503.9,352.47 503.9,296.88 504.26,296 505.09,295.17 505.97,294.81 551.17,294.81 552.06,294.44 552.88,293.61 553.25,292.73 553.25,255.32 553.61,254.44 554.44,253.61 555.32,253.25 577.14,253.25 578.03,253.61 578.85,254.44 579.22,255.32 579.22,292.73 579.59,293.61 580.41,294.44 581.3,294.81 634.29,294.81 635.17,294.44 636,293.61 636.36,292.73 636.36,255.32 636.73,254.44 637.55,253.61 638.44,253.25 660.26,253.25 661.15,253.61 661.97,254.44 662.34,255.32 662.34,292.73 662.7,293.61 663.53,294.44 664.42,294.81 709.61,294.81 710.5,295.17 711.32,296 711.69,296.88" style="fill:none;stroke:black;stroke-width:0.5"/>
</svg>
