<?xml version="1.0" encoding="UTF-8"?>
<svg xmlns="http://www.w3.org/2000/svg" width="800.000" height="600.000" viewBox="0.0 0.0 800.000 600.000" version="1.1">
  <title>Produce by Acme CAD Converter</title>
  <desc>Produce by Acme CAD Converter</desc>
<polyline points="130.91,527.27 127.27,530.91 127.27,548.48 131.56,558.83 141.17,568.44 151.52,572.73 169.09,572.73 172.73,569.09 172.73,564.24 176.36,560.61 187.27,560.61 190.91,564.24 190.91,569.09 194.55,572.73 205.45,572.73 209.09,569.09 209.09,564.24 212.73,560.61 223.64,560.61 227.27,564.24 227.27,569.09 230.91,572.73 241.82,572.73 245.45,569.09 245.45,564.24 249.09,560.61 260,560.61 263.64,564.24 263.64,569.09 267.27,572.73 278.18,572.73 281.82,569.09 281.82,564.24 285.45,560.61 296.36,560.61 300,564.24 300,569.09 303.64,572.73 314.55,572.73 318.18,569.09 318.18,564.24 321.82,560.61 332.73,560.61 336.36,564.24 336.36,569.09 340,572.73 350.91,572.73 354.55,569.09 354.55,564.24 358.18,560.61 369.09,560.61 372.73,564.24 372.73,569.09 376.36,572.73 387.27,572.73 390.91,569.09 390.91,564.24 394.55,560.61 405.45,560.61 409.09,564.24 409.09,569.09 412.73,572.73 423.64,572.73 427.27,569.09 427.27,564.24 430.91,560.61 441.82,560.61 445.45,564.24 445.45,569.09 449.09,572.73 460,572.73 463.64,569.09 463.64,564.24 467.27,560.61 478.18,560.61 481.82,564.24 481.82,569.09 485.45,572.73 496.36,572.73 500,569.09 500,564.24 503.64,560.61 514.55,560.61 518.18,564.24 518.18,569.09 521.82,572.73 532.73,572.73 536.36,569.09 536.36,564.24 540,560.61 550.91,560.61 554.55,564.24 554.55,569.09 558.18,572.73 569.09,572.73 572.73,569.09 572.73,564.24 576.36,560.61 587.27,560.61 590.91,564.24 590.91,569.09 594.55,572.73 605.45,572.73 609.09,569.09 609.09,564.24 612.73,560.61 623.64,560.61 627.27,564.24 627.27,569.09 630.91,572.73 648.48,572.73 658.83,568.44 668.44,558.83 672.73,548.48 672.73,530.91 669.09,527.27 664.24,527.27 660.61,523.64 660.61,512.73 664.24,509.09 669.09,509.09 672.73,505.45 672.73,494.55 669.09,490.91 664.24,490.91 660.61,487.27 660.61,476.36 664.24,472.73 669.09,472.73 672.73,469.09 672.73,458.18 669.09,454.55 664.24,454.55 660.61,450.91 660.61,440 664.24,436.36 669.09,436.36 672.73,432.73 672.73,421.82 669.09,418.18 664.24,418.18 660.61,414.55 660.61,403.64 664.24,400 669.09,400 672.73,396.36 672.73,385.45 669.09,381.82 664.24,381.82 660.61,378.18 660.61,367.27 664.24,363.64 669.09,363.64 672.73,360 672.73,349.09 669.09,345.45 664.24,345.45 660.61,341.82 660.61,330.91 664.24,327.27 669.09,327.27 672.73,323.64 672.73,312.73 669.09,309.09 664.24,309.09 660.61,305.45 660.61,294.55 664.24,290.91 669.09,290.91 672.73,287.27 672.73,276.36 669.09,272.73 664.24,272.73 660.61,269.09 660.61,258.18 664.24,254.55 669.09,254.55 672.73,250.91 672.73,240 669.09,236.36 664.24,236.36 660.61,232.73 660.61,221.82 664.24,218.18 669.09,218.18 672.73,214.55 672.73,203.64 669.09,200 664.24,200 660.61,196.36 660.61,185.45 664.24,181.82 669.09,181.82 672.73,178.18 672.73,167.27 669.09,163.64 664.24,163.64 660.61,160 660.61,149.09 664.24,145.45 669.09,145.45 672.73,141.82 672.73,130.91 669.09,127.27 664.24,127.27 660.61,123.64 660.61,112.73 664.24,109.09 669.09,109.09 672.73,105.45 672.73,94.55 669.09,90.91 664.24,90.91 660.61,87.27 660.61,76.36 664.24,72.73 669.09,72.73 672.73,69.09 672.73,51.52 668.44,41.17 658.83,31.56 648.48,27.27 630.91,27.27 627.27,30.91 627.27,35.76 623.64,39.39 612.73,39.39 609.09,35.76 609.09,30.91 605.45,27.27 594.55,27.27 590.91,30.91 590.91,35.76 587.27,39.39 576.36,39.39 572.73,35.76 572.73,30.91 569.09,27.27 558.18,27.27 554.55,30.91 554.55,35.76 550.91,39.39 540,39.39 536.36,35.76 536.36,30.91 532.73,27.27 521.82,27.27 518.18,30.91 518.18,35.76 514.55,39.39 503.64,39.39 500,35.76 500,30.91 496.36,27.27 485.45,27.27 481.82,30.91 481.82,35.76 478.18,39.39 467.27,39.39 463.64,35.76 463.64,30.91 460,27.27 449.09,27.27 445.45,30.91 445.45,35.76 441.82,39.39 430.91,39.39 427.27,35.76 427.27,30.91 423.64,27.27 412.73,27.27 409.09,30.91 409.09,35.76 405.45,39.39 394.55,39.39 390.91,35.76 390.91,30.91 387.27,27.27 376.36,27.27 372.73,30.91 372.73,35.76 369.09,39.39 358.18,39.39 354.55,35.76 354.55,30.91 350.91,27.27 340,27.27 336.36,30.91 336.36,35.76 332.73,39.39 321.82,39.39 318.18,35.76 318.18,30.91 314.55,27.27 303.64,27.27 300,30.91 300,35.76 296.36,39.39 285.45,39.39 281.82,35.76 281.82,30.91 278.18,27.27 267.27,27.27 263.64,30.91 263.64,35.76 260,39.39 249.09,39.39 245.45,35.76 245.45,30.91 241.82,27.27 230.91,27.27 227.27,30.91 227.27,35.76 223.64,39.39 212.73,39.39 209.09,35.76 209.09,30.91 205.45,27.27 194.55,27.27 190.91,30.91 190.91,35.76 187.27,39.39 176.36,39.39 172.73,35.76 172.73,30.91 169.09,27.27 151.52,27.27 141.17,31.56 131.56,41.17 127.27,51.52 127.27,69.09 130.91,72.73 135.76,72.73 139.39,76.36 139.39,87.27 135.76,90.91 130.91,90.91 127.27,94.55 127.27,105.45 130.91,109.09 135.76,109.09 139.39,112.73 139.39,123.64 135.76,127.27 130.91,127.27 127.27,130.91 127.27,141.82 130.91,145.45 135.76,145.45 139.39,149.09 139.39,160 135.76,163.64 130.91,163.64 127.27,167.27 127.27,178.18 130.91,181.82 135.76,181.82 139.39,185.45 139.39,196.36 135.76,200 130.91,200 127.27,203.64 127.27,214.55 130.91,218.18 135.76,218.18 139.39,221.82 139.39,232.73 135.76,236.36 130.91,236.36 127.27,240 127.27,250.91 130.91,254.55 135.76,254.55 139.39,258.18 139.39,269.09 135.76,272.73 130.91,272.73 127.27,276.36 127.27,287.27 130.91,290.91 135.76,290.91 139.39,294.55 139.39,305.45 135.76,309.09 130.91,309.09 127.27,312.73 127.27,323.64 130.91,327.27 135.76,327.27 139.39,330.91 139.39,341.82 135.76,345.45 130.91,345.45 127.27,349.09 127.27,360 130.91,363.64 135.76,363.64 139.39,367.27 139.39,378.18 135.76,381.82 130.91,381.82 127.27,385.45 127.27,396.36 130.91,400 135.76,400 139.39,403.64 139.39,414.55 135.76,418.18 130.91,418.18 127.27,421.82 127.27,432.73 130.91,436.36 135.76,436.36 139.39,440 139.39,450.91 135.76,454.55 130.91,454.55 127.27,458.18 127.27,469.09 130.91,472.73 135.76,472.73 139.39,476.36 139.39,487.27 135.76,490.91 130.91,490.91 127.27,494.55 127.27,505.45 130.91,509.09 135.76,509.09 139.39,512.73 139.39,523.64 135.76,527.27 130.91,527.27" style="fill:none;stroke:black;stroke-width:0.5"/>
</svg>
