<?xml version="1.0" encoding="UTF-8"?>
<svg xmlns="http://www.w3.org/2000/svg" width="800.000" height="600.000" viewBox="0.0 0.0 800.000 600.000" version="1.1">
  <title>Produce by Acme CAD Converter</title>
  <desc>Produce by Acme CAD Converter</desc>
<polyline points="494.04,28.03 493.29,27.27 491.04,27.27 490.07,27.99 479,64.21 479,210.85 482.16,215.36 479,219.87 479,388.4 321,388.4 314.58,391.06 308.62,397.03 305.96,403.45 305.96,557.68 308.62,564.1 314.58,570.07 321,572.73 457.1,572.73 493.32,561.65 494.04,560.68 494.04,558.43 493.29,557.68 321,557.68 321,403.45 486.75,403.45 490.21,402.01 492.61,399.62 494.04,396.15 494.04,28.03" style="fill:none;stroke:black;stroke-width:0.5"/>
</svg>
