<?xml version="1.0" encoding="UTF-8"?>
<svg xmlns="http://www.w3.org/2000/svg" width="800.000" height="600.000" viewBox="0.0 0.0 800.000 600.000" version="1.1">
  <title>Produce by Acme CAD Converter</title>
  <desc>Produce by Acme CAD Converter</desc>
<polyline points="763.64,242.86 761.07,236.65 756.86,232.44 750.65,229.87 737.66,229.87 736.35,235.07 725.97,229.87 719.58,235.78 710.39,229.87 702.21,236.3 692.21,229.87 686.62,236.3 676.62,229.87 674.02,235.07 661.04,229.87 657.24,235.78 645.45,229.87 641.8,235.71 632.47,229.87 627.42,234.95 614.29,229.87 611.68,235.07 598.7,229.87 591.59,236.33 582.54,229.87 571.43,233.77 567.53,229.87 557.13,235.06 551.95,229.87 539.91,233.25 536.31,230.68 524.38,233.34 515.73,229.87 503.9,233.77 492.21,229.87 482.13,236.29 469.33,229.87 455.83,235.07 442.86,229.87 439.2,235.71 430.28,232.13 424.94,234.85 414.35,230.76 411.69,229.87 410.39,233.77 398.7,229.87 389.61,236.36 383.12,229.87 377.91,235.07 364.94,229.87 360.55,236.01 351.95,229.87 343.77,236.3 333.77,229.87 329.97,235.78 318.18,229.87 315.57,235.07 302.6,229.87 292.29,235.12 289.61,229.87 283.21,235.78 271.43,229.87 265.06,236.36 258.44,229.87 253.24,235.07 240.26,229.87 233.77,236.36 224.68,229.87 222.07,235.07 209.09,229.87 197.78,234.23 196.1,229.87 187.01,236.36 177.92,229.87 167.61,235.12 164.94,229.87 160.65,234.24 149.35,229.87 146.07,232.76 133.77,229.87 124.68,236.36 115.58,229.87 104.28,234.23 87.01,229.87 77.92,236.36 71.43,229.87 65.29,235.65 62.34,229.87 49.35,229.87 43.14,232.44 38.93,236.65 36.36,242.86 36.36,364.62 41.87,370.13 758.13,370.13 763.64,364.62 763.64,242.86" style="fill:none;stroke:black;stroke-width:0.5"/>
</svg>
