<?xml version="1.0" encoding="UTF-8"?>
<svg xmlns="http://www.w3.org/2000/svg" width="800.000" height="600.000" viewBox="0.0 0.0 800.000 600.000" version="1.1">
  <title>Produce by Acme CAD Converter</title>
  <desc>Produce by Acme CAD Converter</desc>
<polyline points="36.36,400.7 38.88,406.78 44.02,411.91 50.1,414.43 84.17,414.43 87.22,411.38 87.22,407.31 90.27,404.26 99.43,404.26 102.48,407.31 102.48,411.38 105.53,414.43 114.69,414.43 117.74,411.38 117.74,407.31 120.79,404.26 129.94,404.26 132.99,407.31 132.99,411.38 136.05,414.43 145.2,414.43 148.25,411.38 148.25,407.31 151.3,404.26 160.46,404.26 163.51,407.31 163.51,411.38 166.56,414.43 175.72,414.43 178.77,411.38 178.77,407.31 181.82,404.26 190.97,404.26 194.02,407.31 194.02,411.38 197.08,414.43 206.23,414.43 209.28,411.38 209.28,407.31 212.33,404.26 221.49,404.26 224.54,407.31 224.54,411.38 227.59,414.43 236.75,414.43 239.8,411.38 239.8,407.31 242.85,404.26 252,404.26 255.05,407.31 255.05,411.38 258.11,414.43 267.26,414.43 270.31,411.38 270.31,407.31 273.36,404.26 282.52,404.26 285.57,407.31 285.57,411.38 288.62,414.43 297.77,414.43 300.83,411.38 300.83,407.31 303.88,404.26 313.03,404.26 316.08,407.31 316.08,411.38 319.14,414.43 328.29,414.43 331.34,411.38 331.34,407.31 334.39,404.26 343.55,404.26 346.6,407.31 346.6,411.38 349.65,414.43 358.8,414.43 361.86,411.38 361.86,407.31 364.91,404.26 374.06,404.26 377.11,407.31 377.11,411.38 380.17,414.43 389.32,414.43 392.37,411.38 392.37,407.31 395.42,404.26 404.58,404.26 407.63,407.31 407.63,411.38 410.68,414.43 419.83,414.43 422.89,411.38 422.89,407.31 425.94,404.26 435.09,404.26 438.14,407.31 438.14,411.38 441.2,414.43 450.35,414.43 453.4,411.38 453.4,407.31 456.45,404.26 465.61,404.26 468.66,407.31 468.66,411.38 471.71,414.43 480.86,414.43 483.92,411.38 483.92,407.31 486.97,404.26 496.12,404.26 499.17,407.31 499.17,411.38 502.23,414.43 511.38,414.43 514.43,411.38 514.43,407.31 517.48,404.26 526.64,404.26 529.69,407.31 529.69,411.38 532.74,414.43 541.89,414.43 544.95,411.38 544.95,407.31 548,404.26 557.15,404.26 560.2,407.31 560.2,411.38 563.25,414.43 572.41,414.43 575.46,411.38 575.46,407.31 578.51,404.26 587.67,404.26 590.72,407.31 590.72,411.38 593.77,414.43 602.92,414.43 605.98,411.38 605.98,407.31 609.03,404.26 618.18,404.26 621.23,407.31 621.23,411.38 624.28,414.43 633.44,414.43 636.49,411.38 636.49,407.31 639.54,404.26 648.7,404.26 651.75,407.31 651.75,411.38 654.8,414.43 663.95,414.43 667.01,411.38 667.01,407.31 670.06,404.26 679.21,404.26 682.26,407.31 682.26,411.38 685.31,414.43 694.47,414.43 697.52,411.38 697.52,407.31 700.57,404.26 709.73,404.26 712.78,407.31 712.78,411.38 715.83,414.43 749.9,414.43 755.98,411.91 761.12,406.78 763.64,400.7 763.64,199.96 749.24,185.57 698.54,185.57 694.32,189.07 691.16,205.91 673.36,205.91 670.2,189.07 665.99,185.57 604.45,185.57 600.23,189.07 597.08,205.91 579.28,205.91 576.12,189.07 571.9,185.57 510.36,185.57 506.15,189.07 502.99,205.91 485.19,205.91 482.03,189.07 477.81,185.57 416.27,185.57 412.06,189.07 408.9,205.91 391.1,205.91 387.94,189.07 383.73,185.57 322.19,185.57 317.97,189.07 314.81,205.91 297.01,205.91 293.85,189.07 289.64,185.57 228.1,185.57 223.88,189.07 220.72,205.91 202.92,205.91 199.77,189.07 195.55,185.57 134.01,185.57 129.8,189.07 126.64,205.91 108.84,205.91 105.68,189.07 101.46,185.57 50.76,185.57 36.36,199.96 36.36,400.7" style="fill:none;stroke:black;stroke-width:0.5"/>
</svg>
