<?xml version="1.0" encoding="UTF-8"?>
<svg xmlns="http://www.w3.org/2000/svg" width="800.000" height="600.000" viewBox="0.0 0.0 800.000 600.000" version="1.1">
  <title>Produce by Acme CAD Converter</title>
  <desc>Produce by Acme CAD Converter</desc>
<polyline points="36.36,354.93 38.88,361 44.02,366.14 50.1,368.66 84.17,368.66 87.22,365.61 87.22,361.54 90.27,358.49 99.43,358.49 102.48,361.54 102.48,365.61 105.53,368.66 114.69,368.66 117.74,365.61 117.74,361.54 120.79,358.49 129.94,358.49 132.99,361.54 132.99,365.61 136.05,368.66 145.2,368.66 148.25,365.61 148.25,361.54 151.3,358.49 160.46,358.49 163.51,361.54 163.51,365.61 166.56,368.66 175.72,368.66 178.77,365.61 178.77,361.54 181.82,358.49 190.97,358.49 194.02,361.54 194.02,365.61 197.08,368.66 206.23,368.66 209.28,365.61 209.28,361.54 212.33,358.49 221.49,358.49 224.54,361.54 224.54,365.61 227.59,368.66 236.75,368.66 239.8,365.61 239.8,361.54 242.85,358.49 252,358.49 255.05,361.54 255.05,365.61 258.11,368.66 267.26,368.66 270.31,365.61 270.31,361.54 273.36,358.49 282.52,358.49 285.57,361.54 285.57,365.61 288.62,368.66 297.77,368.66 300.83,365.61 300.83,361.54 303.88,358.49 313.03,358.49 316.08,361.54 316.08,365.61 319.14,368.66 328.29,368.66 331.34,365.61 331.34,361.54 334.39,358.49 343.55,358.49 346.6,361.54 346.6,365.61 349.65,368.66 358.8,368.66 361.86,365.61 361.86,361.54 364.91,358.49 374.06,358.49 377.11,361.54 377.11,365.61 380.17,368.66 389.32,368.66 392.37,365.61 392.37,361.54 395.42,358.49 404.58,358.49 407.63,361.54 407.63,365.61 410.68,368.66 419.83,368.66 422.89,365.61 422.89,361.54 425.94,358.49 435.09,358.49 438.14,361.54 438.14,365.61 441.2,368.66 450.35,368.66 453.4,365.61 453.4,361.54 456.45,358.49 465.61,358.49 468.66,361.54 468.66,365.61 471.71,368.66 480.86,368.66 483.92,365.61 483.92,361.54 486.97,358.49 496.12,358.49 499.17,361.54 499.17,365.61 502.23,368.66 511.38,368.66 514.43,365.61 514.43,361.54 517.48,358.49 526.64,358.49 529.69,361.54 529.69,365.61 532.74,368.66 541.89,368.66 544.95,365.61 544.95,361.54 548,358.49 557.15,358.49 560.2,361.54 560.2,365.61 563.25,368.66 572.41,368.66 575.46,365.61 575.46,361.54 578.51,358.49 587.67,358.49 590.72,361.54 590.72,365.61 593.77,368.66 602.92,368.66 605.98,365.61 605.98,361.54 609.03,358.49 618.18,358.49 621.23,361.54 621.23,365.61 624.28,368.66 633.44,368.66 636.49,365.61 636.49,361.54 639.54,358.49 648.7,358.49 651.75,361.54 651.75,365.61 654.8,368.66 663.95,368.66 667.01,365.61 667.01,361.54 670.06,358.49 679.21,358.49 682.26,361.54 682.26,365.61 685.31,368.66 694.47,368.66 697.52,365.61 697.52,361.54 700.57,358.49 709.73,358.49 712.78,361.54 712.78,365.61 715.83,368.66 749.9,368.66 755.98,366.14 761.12,361 763.64,354.93 763.64,245.73 749.24,231.34 698.54,231.34 694.32,234.84 691.16,251.68 673.36,251.68 670.2,234.84 665.99,231.34 604.45,231.34 600.23,234.84 597.08,251.68 579.28,251.68 576.12,234.84 571.9,231.34 510.36,231.34 506.15,234.84 502.99,251.68 485.19,251.68 482.03,234.84 477.81,231.34 416.27,231.34 412.06,234.84 408.9,251.68 391.1,251.68 387.94,234.84 383.73,231.34 322.19,231.34 317.97,234.84 314.81,251.68 297.01,251.68 293.85,234.84 289.64,231.34 228.1,231.34 223.88,234.84 220.72,251.68 202.92,251.68 199.77,234.84 195.55,231.34 134.01,231.34 129.8,234.84 126.64,251.68 108.84,251.68 105.68,234.84 101.46,231.34 50.76,231.34 36.36,245.73 36.36,354.93" style="fill:none;stroke:black;stroke-width:0.5"/>
</svg>
