<?xml version="1.0" encoding="UTF-8"?>
<svg xmlns="http://www.w3.org/2000/svg" width="800.000" height="600.000" viewBox="0.0 0.0 800.000 600.000" version="1.1">
  <title>Produce by Acme CAD Converter</title>
  <desc>Produce by Acme CAD Converter</desc>
<polyline points="746.43,334.09 743.57,332.17 740.93,329.96 738.52,327.49 736.38,324.79 734.53,321.89 732.99,318.8 731.77,315.58 730.9,312.25 730.37,308.84 730.19,305.4 730.19,295.88 730.19,295.88 730.37,292.44 730.9,289.03 731.77,285.7 732.99,282.47 734.53,279.39 736.38,276.49 738.52,273.79 740.93,271.32 743.57,269.11 746.43,267.19 746.43,262.41 744.07,256.7 740.2,252.83 734.49,250.47 722.54,250.47 718.28,254.65 714.18,250.47 709.02,256.38 698.65,250.47 697.11,255.48 687.9,250.47 681.52,256.1 673.56,250.47 665.28,256.44 656.84,250.47 650.94,256.44 642.5,250.47 639.77,255.48 628.17,250.47 624.18,256.1 613.83,250.47 610.51,255.82 601.89,250.47 597.49,254.93 585.16,250.47 582.43,255.48 570.83,250.47 564.29,256.41 554.29,250.47 546.25,254.65 542.16,250.47 531.92,254.65 527.82,250.47 516.08,252.01 513.49,250.47 502.46,253.66 495.08,250.47 483,254.76 472.87,250.47 460.29,254.69 452.52,250.47 439.08,255.48 427.48,250.47 424.15,255.82 415.79,252.2 411.01,255.04 401.29,251.52 398.81,250.47 396.99,254.76 386.86,250.47 378.38,256.44 372.52,250.47 367.4,255.48 355.8,250.47 352.68,255.72 343.85,250.47 335.57,256.44 327.13,250.47 323.14,256.1 312.79,250.47 310.06,255.48 298.46,250.47 289.62,255.71 286.51,250.47 280.14,256.1 269.79,250.47 265.37,256.23 257.84,250.47 252.72,255.48 241.12,250.47 236.54,256.27 226.78,250.47 224.05,255.48 212.45,250.47 201.96,254.38 200.5,250.47 194.79,255.82 185.79,250.47 176.13,256.2 171.97,249.19 168.06,254.29 157.5,250.47 154.48,253.13 143.16,250.47 134.8,256.44 126.44,250.47 116.04,254.48 100.16,250.47 91.79,256.44 85.82,250.47 80.17,255.79 77.46,250.47 65.51,250.47 59.8,252.83 55.93,256.7 53.57,262.41 53.57,267.19 53.57,267.19 56.43,269.11 59.07,271.32 61.48,273.79 63.62,276.49 65.47,279.39 67.01,282.47 68.23,285.7 69.1,289.03 69.63,292.44 69.81,295.88 69.81,305.4 69.81,305.4 69.63,308.84 69.1,312.25 68.23,315.58 67.01,318.8 65.47,321.89 63.62,324.79 61.48,327.49 59.07,329.96 56.43,332.17 53.57,334.09 53.57,338.87 55.93,344.58 59.8,348.45 65.51,350.81 734.49,350.81 740.2,348.45 744.07,344.58 746.43,338.87 746.43,334.09" style="fill:none;stroke:black;stroke-width:0.5"/>
</svg>
