<?xml version="1.0" encoding="UTF-8"?>
<svg xmlns="http://www.w3.org/2000/svg" width="800.000" height="600.000" viewBox="0.0 0.0 800.000 600.000" version="1.1">
  <title>Produce by Acme CAD Converter</title>
  <desc>Produce by Acme CAD Converter</desc>
<polyline points="53.57,338.23 53.75,340.3 54.29,342.31 55.17,344.2 56.36,345.91 57.83,347.38 59.54,348.57 61.43,349.45 63.44,349.99 65.51,350.17 734.49,350.17 734.49,350.17 736.56,349.99 738.57,349.45 740.46,348.57 742.17,347.38 743.64,345.91 744.83,344.2 745.71,342.31 746.25,340.3 746.43,338.23 746.43,333.45 746.43,333.45 743.57,331.53 740.93,329.32 738.52,326.85 736.38,324.15 734.53,321.25 732.99,318.16 731.77,314.94 730.9,311.61 730.37,308.2 730.19,304.76 730.19,295.24 730.19,295.24 730.37,291.8 730.9,288.39 731.77,285.06 732.99,281.84 734.53,278.75 736.38,275.85 738.52,273.15 740.93,270.68 743.57,268.47 746.43,266.55 746.43,261.77 746.43,261.77 746.25,259.7 745.71,257.69 744.83,255.8 743.64,254.09 742.17,252.62 740.46,251.43 738.57,250.55 736.56,250.01 734.49,249.83 65.51,249.83 65.51,249.83 63.44,250.01 61.43,250.55 59.54,251.43 57.83,252.62 56.36,254.09 55.17,255.8 54.29,257.69 53.75,259.7 53.57,261.77 53.57,266.55 53.57,266.55 56.43,268.47 59.07,270.68 61.48,273.15 63.62,275.85 65.47,278.75 67.01,281.84 68.23,285.06 69.1,288.39 69.63,291.8 69.81,295.24 69.81,304.76 69.81,304.76 69.63,308.2 69.1,311.61 68.23,314.94 67.01,318.16 65.47,321.25 63.62,324.15 61.48,326.85 59.07,329.32 56.43,331.53 53.57,333.45 53.57,338.23" style="fill:none;stroke:black;stroke-width:0.5"/>
</svg>
