<?xml version="1.0" encoding="UTF-8"?>
<svg xmlns="http://www.w3.org/2000/svg" width="800.000" height="600.000" viewBox="0.0 0.0 800.000 600.000" version="1.1">
  <title>Produce by Acme CAD Converter</title>
  <desc>Produce by Acme CAD Converter</desc>
<polyline points="54.15,255.53 57.11,257.52 59.84,259.8 62.33,262.35 64.54,265.15 66.46,268.15 68.05,271.34 69.31,274.67 70.22,278.12 70.77,281.64 70.95,285.19 70.95,314.81 70.95,314.81 70.77,318.36 70.22,321.88 69.31,325.33 68.05,328.66 66.46,331.85 64.54,334.85 62.33,337.65 59.84,340.2 57.11,342.48 54.15,344.47 54.15,349.41 56.6,355.31 60.6,359.31 66.5,361.76 152.47,361.76 155.43,358.79 155.43,354.84 158.4,351.88 167.29,351.88 170.26,354.84 170.26,358.79 173.22,361.76 182.11,361.76 185.08,358.79 185.08,354.84 188.04,351.88 196.94,351.88 199.9,354.84 199.9,358.79 202.87,361.76 211.76,361.76 214.72,358.79 214.72,354.84 217.69,351.88 226.58,351.88 229.55,354.84 229.55,358.79 232.51,361.76 241.4,361.76 244.37,358.79 244.37,354.84 247.33,351.88 256.23,351.88 259.19,354.84 259.19,358.79 262.15,361.76 271.05,361.76 274.01,358.79 274.01,354.84 276.98,351.88 285.87,351.88 288.83,354.84 288.83,358.79 291.8,361.76 300.69,361.76 303.66,358.79 303.66,354.84 306.62,351.88 315.51,351.88 318.48,354.84 318.48,358.79 321.44,361.76 330.34,361.76 333.3,358.79 333.3,354.84 336.26,351.88 345.16,351.88 348.12,354.84 348.12,358.79 351.09,361.76 359.98,361.76 362.94,358.79 362.94,354.84 365.91,351.88 374.8,351.88 377.77,354.84 377.77,358.79 380.73,361.76 389.62,361.76 392.59,358.79 392.59,354.84 395.55,351.88 404.45,351.88 407.41,354.84 407.41,358.79 410.38,361.76 419.27,361.76 422.23,358.79 422.23,354.84 425.2,351.88 434.09,351.88 437.06,354.84 437.06,358.79 440.02,361.76 448.91,361.76 451.88,358.79 451.88,354.84 454.84,351.88 463.74,351.88 466.7,354.84 466.7,358.79 469.66,361.76 478.56,361.76 481.52,358.79 481.52,354.84 484.49,351.88 493.38,351.88 496.34,354.84 496.34,358.79 499.31,361.76 508.2,361.76 511.17,358.79 511.17,354.84 514.13,351.88 523.02,351.88 525.99,354.84 525.99,358.79 528.95,361.76 537.85,361.76 540.81,358.79 540.81,354.84 543.77,351.88 552.67,351.88 555.63,354.84 555.63,358.79 558.6,361.76 567.49,361.76 570.45,358.79 570.45,354.84 573.42,351.88 582.31,351.88 585.28,354.84 585.28,358.79 588.24,361.76 597.13,361.76 600.1,358.79 600.1,354.84 603.06,351.88 611.96,351.88 614.92,354.84 614.92,358.79 617.89,361.76 626.78,361.76 629.74,358.79 629.74,354.84 632.71,351.88 641.6,351.88 644.57,354.84 644.57,358.79 647.53,361.76 733.5,361.76 739.4,359.31 743.4,355.31 745.85,349.41 745.85,344.47 745.85,344.47 742.89,342.48 740.16,340.2 737.67,337.65 735.46,334.85 733.54,331.85 731.95,328.66 730.69,325.33 729.78,321.88 729.23,318.36 729.05,314.81 729.05,285.19 729.05,285.19 729.23,281.64 729.78,278.12 730.69,274.67 731.95,271.34 733.54,268.15 735.46,265.15 737.67,262.35 740.16,259.8 742.89,257.52 745.85,255.53 745.85,250.59 743.4,244.69 739.4,240.69 733.5,238.24 721.15,238.24 719.75,243.3 710.03,238.24 703.72,243.96 695.21,238.24 687.08,244.39 677.92,238.24 672.26,244.39 663.09,238.24 660.46,243.3 648.27,238.24 644.43,243.96 633.45,238.24 630.24,243.66 621.1,238.24 609.83,243.83 603.8,238.24 601.17,243.3 588.98,238.24 582.22,244.39 573.14,238.24 563.16,242.09 559.34,238.24 549.27,243.03 544.52,238.24 532.45,240.11 529.69,238.24 518.3,241.54 510.35,238.24 498.64,242.17 487.7,238.24 476.27,243.75 465.67,238.24 452.95,243.3 440.76,238.24 437.55,243.66 428.66,239.97 419.31,244.4 413.65,239.15 411.12,238.24 409.7,242.17 398.76,238.24 390.06,244.42 383.94,238.24 378.84,243.3 366.65,238.24 362.77,243.98 354.3,238.24 346.17,244.39 337.01,238.24 333.17,243.96 322.18,238.24 319.55,243.3 307.36,238.24 297.28,243.02 295.01,238.24 288.7,243.96 277.72,238.24 269.83,244.18 265.37,238.24 260.26,243.3 248.07,238.24 242.35,244.4 233.25,238.24 230.62,243.3 218.43,238.24 207.76,242.48 206.08,238.24 197.88,244.4 188.78,238.24 178.7,243.02 176.43,238.24 168.25,244.4 161.61,238.24 158.49,240.99 146.79,238.24 138.14,244.42 129.5,238.24 118.75,242.39 102.32,238.24 93.68,244.42 87.5,238.24 81.66,243.74 78.85,238.24 66.5,238.24 60.6,240.69 56.6,244.69 54.15,250.59 54.15,255.53" style="fill:none;stroke:black;stroke-width:0.5"/>
</svg>
