<?xml version="1.0" encoding="UTF-8"?>
<svg xmlns="http://www.w3.org/2000/svg" width="800.000" height="600.000" viewBox="0.0 0.0 800.000 600.000" version="1.1">
  <title>Produce by Acme CAD Converter</title>
  <desc>Produce by Acme CAD Converter</desc>
<polyline points="46.86,366.67 55.42,370.22 73.48,370.22 76.49,367.21 76.49,363.2 79.5,360.19 88.53,360.19 91.54,363.2 91.54,367.21 94.55,370.22 103.57,370.22 106.58,367.21 106.58,363.2 109.59,360.19 118.62,360.19 121.63,363.2 121.63,367.21 124.64,370.22 133.67,370.22 136.68,367.21 136.68,363.2 139.69,360.19 148.71,360.19 151.72,363.2 151.72,367.21 154.73,370.22 163.76,370.22 166.77,367.21 166.77,363.2 169.78,360.19 178.81,360.19 181.82,363.2 181.82,367.21 184.83,370.22 193.86,370.22 196.87,367.21 196.87,363.2 199.87,360.19 208.9,360.19 211.91,363.2 211.91,367.21 214.92,370.22 223.95,370.22 226.96,367.21 226.96,363.2 229.97,360.19 239,360.19 242.01,363.2 242.01,367.21 245.02,370.22 254.04,370.22 257.05,367.21 257.05,363.2 260.06,360.19 269.09,360.19 272.1,363.2 272.1,367.21 275.11,370.22 284.14,370.22 287.15,367.21 287.15,363.2 290.16,360.19 299.18,360.19 302.19,363.2 302.19,367.21 305.2,370.22 314.23,370.22 317.24,367.21 317.24,363.2 320.25,360.19 329.28,360.19 332.29,363.2 332.29,367.21 335.3,370.22 344.33,370.22 347.34,367.21 347.34,363.2 350.34,360.19 359.37,360.19 362.38,363.2 362.38,367.21 365.39,370.22 374.42,370.22 377.43,367.21 377.43,363.2 380.44,360.19 389.47,360.19 392.48,363.2 392.48,367.21 395.49,370.22 404.51,370.22 407.52,367.21 407.52,363.2 410.53,360.19 419.56,360.19 422.57,363.2 422.57,367.21 425.58,370.22 434.61,370.22 437.62,367.21 437.62,363.2 440.63,360.19 449.66,360.19 452.66,363.2 452.66,367.21 455.67,370.22 464.7,370.22 467.71,367.21 467.71,363.2 470.72,360.19 479.75,360.19 482.76,363.2 482.76,367.21 485.77,370.22 494.8,370.22 497.81,367.21 497.81,363.2 500.82,360.19 509.84,360.19 512.85,363.2 512.85,367.21 515.86,370.22 524.89,370.22 527.9,367.21 527.9,363.2 530.91,360.19 539.94,360.19 542.95,363.2 542.95,367.21 545.96,370.22 554.98,370.22 557.99,367.21 557.99,363.2 561,360.19 570.03,360.19 573.04,363.2 573.04,367.21 576.05,370.22 585.08,370.22 588.09,367.21 588.09,363.2 591.1,360.19 600.13,360.19 603.13,363.2 603.13,367.21 606.14,370.22 615.17,370.22 618.18,367.21 618.18,363.2 621.19,360.19 630.22,360.19 633.23,363.2 633.23,367.21 636.24,370.22 645.27,370.22 648.28,367.21 648.28,363.2 651.29,360.19 660.31,360.19 663.32,363.2 663.32,367.21 666.33,370.22 675.36,370.22 678.37,367.21 678.37,363.2 681.38,360.19 690.41,360.19 693.42,363.2 693.42,367.21 696.43,370.22 705.45,370.22 708.46,367.21 708.46,363.2 711.47,360.19 720.5,360.19 723.51,363.2 723.51,367.21 726.52,370.22 744.58,370.22 753.14,366.67 760.09,359.72 763.64,351.16 763.64,248.84 760.09,240.28 753.14,233.33 744.58,229.78 726.52,229.78 723.51,232.79 723.51,236.8 720.5,239.81 711.47,239.81 708.46,236.8 708.46,232.79 705.45,229.78 696.43,229.78 693.42,232.79 693.42,236.8 690.41,239.81 681.38,239.81 678.37,236.8 678.37,232.79 675.36,229.78 666.33,229.78 663.32,232.79 663.32,236.8 660.31,239.81 651.29,239.81 648.28,236.8 648.28,232.79 645.27,229.78 636.24,229.78 633.23,232.79 633.23,236.8 630.22,239.81 621.19,239.81 618.18,236.8 618.18,232.79 615.17,229.78 606.14,229.78 603.13,232.79 603.13,236.8 600.13,239.81 591.1,239.81 588.09,236.8 588.09,232.79 585.08,229.78 576.05,229.78 573.04,232.79 573.04,236.8 570.03,239.81 561,239.81 557.99,236.8 557.99,232.79 554.98,229.78 545.96,229.78 542.95,232.79 542.95,236.8 539.94,239.81 530.91,239.81 527.9,236.8 527.9,232.79 524.89,229.78 515.86,229.78 512.85,232.79 512.85,236.8 509.84,239.81 500.82,239.81 497.81,236.8 497.81,232.79 494.8,229.78 485.77,229.78 482.76,232.79 482.76,236.8 479.75,239.81 470.72,239.81 467.71,236.8 467.71,232.79 464.7,229.78 455.67,229.78 452.66,232.79 452.66,236.8 449.66,239.81 440.63,239.81 437.62,236.8 437.62,232.79 434.61,229.78 425.58,229.78 422.57,232.79 422.57,236.8 419.56,239.81 410.53,239.81 407.52,236.8 407.52,232.79 404.51,229.78 395.49,229.78 392.48,232.79 392.48,236.8 389.47,239.81 380.44,239.81 377.43,236.8 377.43,232.79 374.42,229.78 365.39,229.78 362.38,232.79 362.38,236.8 359.37,239.81 350.34,239.81 347.34,236.8 347.34,232.79 344.33,229.78 335.3,229.78 332.29,232.79 332.29,236.8 329.28,239.81 320.25,239.81 317.24,236.8 317.24,232.79 314.23,229.78 305.2,229.78 302.19,232.79 302.19,236.8 299.18,239.81 290.16,239.81 287.15,236.8 287.15,232.79 284.14,229.78 275.11,229.78 272.1,232.79 272.1,236.8 269.09,239.81 260.06,239.81 257.05,236.8 257.05,232.79 254.04,229.78 245.02,229.78 242.01,232.79 242.01,236.8 239,239.81 229.97,239.81 226.96,236.8 226.96,232.79 223.95,229.78 214.92,229.78 211.91,232.79 211.91,236.8 208.9,239.81 199.87,239.81 196.87,236.8 196.87,232.79 193.86,229.78 184.83,229.78 181.82,232.79 181.82,236.8 178.81,239.81 169.78,239.81 166.77,236.8 166.77,232.79 163.76,229.78 154.73,229.78 151.72,232.79 151.72,236.8 148.71,239.81 139.69,239.81 136.68,236.8 136.68,232.79 133.67,229.78 124.64,229.78 121.63,232.79 121.63,236.8 118.62,239.81 109.59,239.81 106.58,236.8 106.58,232.79 103.57,229.78 94.55,229.78 91.54,232.79 91.54,236.8 88.53,239.81 79.5,239.81 76.49,236.8 76.49,232.79 73.48,229.78 55.42,229.78 46.86,233.33 39.91,240.28 36.36,248.84 36.36,351.16 39.91,359.72 46.86,366.67" style="fill:none;stroke:black;stroke-width:0.5"/>
</svg>
