<?xml version="1.0" encoding="UTF-8"?>
<svg xmlns="http://www.w3.org/2000/svg" width="800.000" height="600.000" viewBox="0.0 0.0 800.000 600.000" version="1.1">
  <title>Produce by Acme CAD Converter</title>
  <desc>Produce by Acme CAD Converter</desc>
<polyline points="650.82,358.87 655.9,360.42 661.06,361.7 666.29,362.7 671.55,363.41 676.85,363.84 682.17,363.98 732.08,363.98 732.08,363.98 737.39,363.84 742.69,363.41 747.96,362.7 753.18,361.7 758.34,360.42 763.43,358.87 763.43,241.13 763.43,241.13 758.34,239.58 753.18,238.3 747.96,237.3 742.69,236.59 737.39,236.16 732.08,236.02 682.17,236.02 682.17,236.02 676.85,236.16 671.55,236.59 666.29,237.3 661.06,238.3 655.9,239.58 650.82,241.13 650.82,241.13 645.27,239.45 639.63,238.1 633.92,237.08 628.16,236.4 622.37,236.06 616.56,236.06 610.77,236.4 605.01,237.08 599.3,238.1 593.66,239.45 588.11,241.13 588.11,241.13 582.56,239.45 576.92,238.1 571.21,237.08 565.45,236.4 559.66,236.06 553.86,236.06 548.07,236.4 542.31,237.08 536.6,238.1 530.96,239.45 525.41,241.13 525.41,241.13 519.86,239.45 514.22,238.1 508.51,237.08 502.75,236.4 496.96,236.06 491.16,236.06 485.37,236.4 479.61,237.08 473.9,238.1 468.26,239.45 462.7,241.13 462.7,241.13 457.15,239.45 451.51,238.1 445.8,237.08 440.04,236.4 434.25,236.06 428.45,236.06 422.66,236.4 416.9,237.08 411.19,238.1 405.55,239.45 400,241.13 400,241.13 394.45,239.45 388.81,238.1 383.1,237.08 377.34,236.4 371.55,236.06 365.75,236.06 359.96,236.4 354.2,237.08 348.49,238.1 342.85,239.45 337.3,241.13 337.3,241.13 331.74,239.45 326.1,238.1 320.39,237.08 314.63,236.4 308.84,236.06 303.04,236.06 297.25,236.4 291.49,237.08 285.78,238.1 280.14,239.45 274.59,241.13 274.59,241.13 269.04,239.45 263.4,238.1 257.69,237.08 251.93,236.4 246.14,236.06 240.34,236.06 234.55,236.4 228.79,237.08 223.08,238.1 217.44,239.45 211.89,241.13 211.89,241.13 206.34,239.45 200.7,238.1 194.99,237.08 189.23,236.4 183.44,236.06 177.63,236.06 171.84,236.4 166.08,237.08 160.37,238.1 154.73,239.45 149.18,241.13 149.18,241.13 144.1,239.58 138.94,238.3 133.71,237.3 128.45,236.59 123.15,236.16 117.83,236.02 67.92,236.02 67.92,236.02 62.61,236.16 57.31,236.59 52.04,237.3 46.82,238.3 41.66,239.58 36.57,241.13 36.57,358.87 36.57,358.87 41.66,360.42 46.82,361.7 52.04,362.7 57.31,363.41 62.61,363.84 67.92,363.98 117.83,363.98 117.83,363.98 123.15,363.84 128.45,363.41 133.71,362.7 138.94,361.7 144.1,360.42 149.18,358.87 149.18,358.87 154.73,360.55 160.37,361.9 166.08,362.92 171.84,363.6 177.63,363.94 183.44,363.94 189.23,363.6 194.99,362.92 200.7,361.9 206.34,360.55 211.89,358.87 211.89,358.87 217.44,360.55 223.08,361.9 228.79,362.92 234.55,363.6 240.34,363.94 246.14,363.94 251.93,363.6 257.69,362.92 263.4,361.9 269.04,360.55 274.59,358.87 274.59,358.87 280.14,360.55 285.78,361.9 291.49,362.92 297.25,363.6 303.04,363.94 308.84,363.94 314.63,363.6 320.39,362.92 326.1,361.9 331.74,360.55 337.3,358.87 337.3,358.87 342.85,360.55 348.49,361.9 354.2,362.92 359.96,363.6 365.75,363.94 371.55,363.94 377.34,363.6 383.1,362.92 388.81,361.9 394.45,360.55 400,358.87 400,358.87 405.55,360.55 411.19,361.9 416.9,362.92 422.66,363.6 428.45,363.94 434.25,363.94 440.04,363.6 445.8,362.92 451.51,361.9 457.15,360.55 462.7,358.87 462.7,358.87 468.26,360.55 473.9,361.9 479.61,362.92 485.37,363.6 491.16,363.94 496.96,363.94 502.75,363.6 508.51,362.92 514.22,361.9 519.86,360.55 525.41,358.87 525.41,358.87 530.96,360.55 536.6,361.9 542.31,362.92 548.07,363.6 553.86,363.94 559.66,363.94 565.45,363.6 571.21,362.92 576.92,361.9 582.56,360.55 588.11,358.87 588.11,358.87 593.66,360.55 599.3,361.9 605.01,362.92 610.77,363.6 616.56,363.94 622.37,363.94 628.16,363.6 633.92,362.92 639.63,361.9 645.27,360.55 650.82,358.87" style="fill:none;stroke:black;stroke-width:0.5"/>
</svg>
