<?xml version="1.0" encoding="UTF-8"?>
<svg xmlns="http://www.w3.org/2000/svg" width="800.000" height="600.000" viewBox="0.0 0.0 800.000 600.000" version="1.1">
  <title>Produce by Acme CAD Converter</title>
  <desc>Produce by Acme CAD Converter</desc>
<polyline points="625.72,363.93 627.01,364.94 758.55,364.94 761.03,363.91 762.61,362.33 763.64,359.84 763.64,326.49 761.43,321.17 758.05,317.79 752.73,315.58 737.56,315.58 735.08,314.56 733.5,312.98 732.47,310.49 732.47,289.51 733.5,287.02 735.08,285.44 737.56,284.42 752.73,284.42 758.05,282.21 761.43,278.83 763.64,273.51 763.64,240.16 762.61,237.67 761.03,236.09 758.55,235.06 707.53,235.06 706.24,236.07 704.15,244.45 702.86,245.45 694.55,245.45 693.25,244.45 691.16,236.07 689.87,235.06 681.56,235.06 680.27,236.07 678.17,244.45 676.88,245.45 668.57,245.45 667.28,244.45 665.19,236.07 663.9,235.06 655.58,235.06 654.29,236.07 652.2,244.45 650.91,245.45 642.6,245.45 641.31,244.45 639.21,236.07 637.92,235.06 629.61,235.06 628.32,236.07 626.23,244.45 624.94,245.45 616.62,245.45 615.33,244.45 613.24,236.07 611.95,235.06 603.64,235.06 602.35,236.07 600.25,244.45 598.96,245.45 590.65,245.45 589.36,244.45 587.26,236.07 585.97,235.06 577.66,235.06 576.37,236.07 574.28,244.45 572.99,245.45 564.68,245.45 563.38,244.45 561.29,236.07 560,235.06 551.69,235.06 550.4,236.07 548.3,244.45 547.01,245.45 538.7,245.45 537.41,244.45 535.32,236.07 534.03,235.06 525.71,235.06 524.42,236.07 522.33,244.45 521.04,245.45 512.73,245.45 511.44,244.45 509.34,236.07 508.05,235.06 499.74,235.06 498.45,236.07 496.36,244.45 495.06,245.45 486.75,245.45 485.46,244.45 483.37,236.07 482.08,235.06 473.77,235.06 472.48,236.07 470.38,244.45 469.09,245.45 460.78,245.45 459.49,244.45 457.39,236.07 456.1,235.06 447.79,235.06 446.5,236.07 444.41,244.45 443.12,245.45 434.81,245.45 433.51,244.45 431.42,236.07 430.13,235.06 369.87,235.06 368.58,236.07 366.49,244.45 365.19,245.45 356.88,245.45 355.59,244.45 353.5,236.07 352.21,235.06 343.9,235.06 342.61,236.07 340.51,244.45 339.22,245.45 330.91,245.45 329.62,244.45 327.52,236.07 326.23,235.06 317.92,235.06 316.63,236.07 314.54,244.45 313.25,245.45 304.94,245.45 303.64,244.45 301.55,236.07 300.26,235.06 291.95,235.06 290.66,236.07 288.56,244.45 287.27,245.45 278.96,245.45 277.67,244.45 275.58,236.07 274.29,235.06 265.97,235.06 264.68,236.07 262.59,244.45 261.3,245.45 252.99,245.45 251.7,244.45 249.6,236.07 248.31,235.06 240,235.06 238.71,236.07 236.62,244.45 235.32,245.45 227.01,245.45 225.72,244.45 223.63,236.07 222.34,235.06 214.03,235.06 212.74,236.07 210.64,244.45 209.35,245.45 201.04,245.45 199.75,244.45 197.65,236.07 196.36,235.06 188.05,235.06 186.76,236.07 184.67,244.45 183.38,245.45 175.06,245.45 173.77,244.45 171.68,236.07 170.39,235.06 162.08,235.06 160.79,236.07 158.69,244.45 157.4,245.45 149.09,245.45 147.8,244.45 145.71,236.07 144.42,235.06 136.1,235.06 134.81,236.07 132.72,244.45 131.43,245.45 123.12,245.45 121.83,244.45 119.73,236.07 118.44,235.06 110.13,235.06 108.84,236.07 106.75,244.45 105.45,245.45 97.14,245.45 95.85,244.45 93.76,236.07 92.47,235.06 41.45,235.06 38.97,236.09 37.39,237.67 36.36,240.16 36.36,273.51 38.57,278.83 41.95,282.21 47.27,284.42 62.44,284.42 64.92,285.44 66.5,287.02 67.53,289.51 67.53,310.49 66.5,312.98 64.92,314.56 62.44,315.58 47.27,315.58 41.95,317.79 38.57,321.17 36.36,326.49 36.36,359.84 37.39,362.33 38.97,363.91 41.45,364.94 172.99,364.94 174.28,363.93 176.37,355.55 177.66,354.55 185.97,354.55 187.26,355.55 189.36,363.93 190.65,364.94 318.44,364.94 319.73,363.93 321.83,355.55 323.12,354.55 331.43,354.55 332.72,355.55 334.81,363.93 336.1,364.94 463.9,364.94 465.19,363.93 467.28,355.55 468.57,354.55 476.88,354.55 478.17,355.55 480.27,363.93 481.56,364.94 609.35,364.94 610.64,363.93 612.74,355.55 614.03,354.55 622.34,354.55 623.63,355.55 625.72,363.93" style="fill:none;stroke:black;stroke-width:0.5"/>
</svg>
