<?xml version="1.0" encoding="UTF-8"?>
<svg xmlns="http://www.w3.org/2000/svg" width="800.000" height="600.000" viewBox="0.0 0.0 800.000 600.000" version="1.1">
  <title>Produce by Acme CAD Converter</title>
  <desc>Produce by Acme CAD Converter</desc>
<polyline points="763.64,289.86 761.15,283.86 757.09,279.8 751.1,277.32 738.56,277.32 738.56,277.32 733.09,279.45 727.48,281.2 721.78,282.57 715.99,283.56 710.15,284.15 704.28,284.35 698.41,284.15 692.57,283.56 686.78,282.57 681.07,281.2 675.47,279.45 670,277.32 670,277.32 667.31,279.34 664.41,281.03 661.33,282.36 658.12,283.33 654.81,283.92 651.46,284.12 648.11,283.92 644.8,283.33 641.59,282.36 638.51,281.03 635.61,279.34 632.92,277.32 632.92,277.32 630.14,279.46 627.15,281.28 623.97,282.77 620.65,283.9 617.22,284.66 613.73,285.04 610.22,285.04 606.73,284.66 603.31,283.9 599.99,282.77 596.81,281.28 593.81,279.46 591.03,277.32 591.03,277.32 587.85,279 584.52,280.37 581.07,281.41 577.53,282.1 573.95,282.45 570.35,282.45 566.76,282.1 563.23,281.41 559.78,280.37 556.45,279 553.26,277.32 553.26,277.32 549.74,279.29 546.05,280.94 542.22,282.23 538.29,283.16 534.29,283.72 530.26,283.91 526.23,283.72 522.23,283.16 518.3,282.23 514.47,280.94 510.78,279.29 507.26,277.32 507.26,277.32 503.5,278.78 499.64,279.92 495.7,280.74 491.71,281.24 487.69,281.4 483.66,281.24 479.67,280.74 475.73,279.92 471.87,278.78 468.12,277.32 468.12,277.32 464.35,279.21 460.43,280.78 456.39,282.01 452.27,282.89 448.09,283.42 443.87,283.6 439.66,283.42 435.47,282.89 431.35,282.01 427.32,280.78 423.4,279.21 419.63,277.32 419.63,277.32 415.05,279.39 410.33,281.13 405.51,282.53 400.59,283.59 395.62,284.3 390.6,284.65 385.58,284.65 380.56,284.3 375.59,283.59 370.67,282.53 365.85,281.13 361.13,279.39 356.55,277.32 356.55,277.32 353.12,279.28 349.52,280.9 345.79,282.19 341.95,283.11 338.03,283.67 334.09,283.85 330.14,283.67 326.23,283.11 322.39,282.19 318.66,280.9 315.06,279.28 311.63,277.32 311.63,277.32 308.65,279.34 305.49,281.06 302.18,282.45 298.74,283.51 295.22,284.22 291.64,284.58 288.05,284.58 284.47,284.22 280.94,283.51 277.51,282.45 274.19,281.06 271.03,279.34 268.06,277.32 268.06,277.32 265.33,279.66 262.37,281.72 259.22,283.47 255.91,284.89 252.47,285.96 248.94,286.69 245.36,287.05 241.76,287.05 238.17,286.69 234.64,285.96 231.21,284.89 227.89,283.47 224.74,281.72 221.79,279.66 219.05,277.32 219.05,277.32 215.86,279.36 212.47,281.07 208.92,282.41 205.26,283.38 201.51,283.97 197.72,284.17 193.94,283.97 190.19,283.38 186.52,282.41 182.98,281.07 179.59,279.36 176.39,277.32 176.39,277.32 173.46,278.75 170.39,279.87 167.23,280.68 164,281.18 160.74,281.34 157.48,281.18 154.25,280.68 151.09,279.87 148.02,278.75 145.08,277.32 145.08,277.32 142.65,279.15 140.03,280.68 137.24,281.9 134.33,282.78 131.33,283.31 128.29,283.49 125.26,283.31 122.26,282.78 119.35,281.9 116.56,280.68 113.93,279.15 111.5,277.32 111.5,277.32 107.63,279.34 103.6,281.02 99.43,282.34 95.17,283.29 90.84,283.87 86.47,284.06 82.11,283.87 77.78,283.29 73.51,282.34 69.35,281.02 65.31,279.34 61.44,277.32 48.9,277.32 42.91,279.8 38.85,283.86 36.36,289.86 36.36,397.39 41.68,402.71 758.32,402.71 763.64,397.39 763.64,289.86" style="fill:none;stroke:black;stroke-width:0.5"/>
</svg>
