<?xml version="1.0" encoding="UTF-8"?>
<svg xmlns="http://www.w3.org/2000/svg" width="800.000" height="600.000" viewBox="0.0 0.0 800.000 600.000" version="1.1">
  <title>Produce by Acme CAD Converter</title>
  <desc>Produce by Acme CAD Converter</desc>
<polyline points="59.7,351.86 59.9,354.39 60.49,356.86 61.46,359.21 62.79,361.38 64.44,363.31 66.38,364.97 68.55,366.29 70.9,367.27 73.37,367.86 75.9,368.06 724.1,368.06 724.1,368.06 726.63,367.86 729.1,367.27 731.45,366.29 733.62,364.97 735.56,363.31 737.21,361.38 738.54,359.21 739.51,356.86 740.1,354.39 740.3,351.86 740.3,345.37 740.3,345.37 736.76,343.02 733.46,340.35 730.42,337.37 727.68,334.13 725.25,330.64 723.15,326.95 721.41,323.07 720.04,319.05 719.06,314.91 718.46,310.71 718.26,306.46 718.26,293.54 718.26,293.54 718.46,289.29 719.06,285.09 720.04,280.95 721.41,276.93 723.15,273.05 725.25,269.36 727.68,265.87 730.42,262.63 733.46,259.65 736.76,256.98 740.3,254.63 740.3,248.14 740.3,248.14 740.1,245.61 739.51,243.14 738.54,240.79 737.21,238.62 735.56,236.69 733.62,235.03 731.45,233.71 729.1,232.73 726.63,232.14 724.1,231.94 75.9,231.94 75.9,231.94 73.37,232.14 70.9,232.73 68.55,233.71 66.38,235.03 64.44,236.69 62.79,238.62 61.46,240.79 60.49,243.14 59.9,245.61 59.7,248.14 59.7,254.63 59.7,254.63 63.24,256.98 66.54,259.65 69.58,262.63 72.32,265.87 74.75,269.36 76.85,273.05 78.59,276.93 79.96,280.95 80.94,285.09 81.54,289.29 81.74,293.54 81.74,306.46 81.74,306.46 81.54,310.71 80.94,314.91 79.96,319.05 78.59,323.07 76.85,326.95 74.75,330.64 72.32,334.13 69.58,337.37 66.54,340.35 63.24,343.02 59.7,345.37 59.7,351.86" style="fill:none;stroke:black;stroke-width:0.5"/>
</svg>
