<?xml version="1.0" encoding="UTF-8"?>
<svg xmlns="http://www.w3.org/2000/svg" width="800.000" height="600.000" viewBox="0.0 0.0 800.000 600.000" version="1.1">
  <title>Produce by Acme CAD Converter</title>
  <desc>Produce by Acme CAD Converter</desc>
<polyline points="46.86,409.31 55.42,412.85 73.48,412.85 76.49,409.84 76.49,405.83 79.5,402.82 88.53,402.82 91.54,405.83 91.54,409.84 94.55,412.85 103.57,412.85 106.58,409.84 106.58,405.83 109.59,402.82 118.62,402.82 121.63,405.83 121.63,409.84 124.64,412.85 133.67,412.85 136.68,409.84 136.68,405.83 139.69,402.82 148.71,402.82 151.72,405.83 151.72,409.84 154.73,412.85 163.76,412.85 166.77,409.84 166.77,405.83 169.78,402.82 178.81,402.82 181.82,405.83 181.82,409.84 184.83,412.85 193.86,412.85 196.87,409.84 196.87,405.83 199.87,402.82 208.9,402.82 211.91,405.83 211.91,409.84 214.92,412.85 223.95,412.85 226.96,409.84 226.96,405.83 229.97,402.82 239,402.82 242.01,405.83 242.01,409.84 245.02,412.85 254.04,412.85 257.05,409.84 257.05,405.83 260.06,402.82 269.09,402.82 272.1,405.83 272.1,409.84 275.11,412.85 284.14,412.85 287.15,409.84 287.15,405.83 290.16,402.82 299.18,402.82 302.19,405.83 302.19,409.84 305.2,412.85 314.23,412.85 317.24,409.84 317.24,405.83 320.25,402.82 329.28,402.82 332.29,405.83 332.29,409.84 335.3,412.85 344.33,412.85 347.34,409.84 347.34,405.83 350.34,402.82 359.37,402.82 362.38,405.83 362.38,409.84 365.39,412.85 374.42,412.85 377.43,409.84 377.43,405.83 380.44,402.82 389.47,402.82 392.48,405.83 392.48,409.84 395.49,412.85 404.51,412.85 407.52,409.84 407.52,405.83 410.53,402.82 419.56,402.82 422.57,405.83 422.57,409.84 425.58,412.85 434.61,412.85 437.62,409.84 437.62,405.83 440.63,402.82 449.66,402.82 452.66,405.83 452.66,409.84 455.67,412.85 464.7,412.85 467.71,409.84 467.71,405.83 470.72,402.82 479.75,402.82 482.76,405.83 482.76,409.84 485.77,412.85 494.8,412.85 497.81,409.84 497.81,405.83 500.82,402.82 509.84,402.82 512.85,405.83 512.85,409.84 515.86,412.85 524.89,412.85 527.9,409.84 527.9,405.83 530.91,402.82 539.94,402.82 542.95,405.83 542.95,409.84 545.96,412.85 554.98,412.85 557.99,409.84 557.99,405.83 561,402.82 570.03,402.82 573.04,405.83 573.04,409.84 576.05,412.85 585.08,412.85 588.09,409.84 588.09,405.83 591.1,402.82 600.13,402.82 603.13,405.83 603.13,409.84 606.14,412.85 615.17,412.85 618.18,409.84 618.18,405.83 621.19,402.82 630.22,402.82 633.23,405.83 633.23,409.84 636.24,412.85 645.27,412.85 648.28,409.84 648.28,405.83 651.29,402.82 660.31,402.82 663.32,405.83 663.32,409.84 666.33,412.85 675.36,412.85 678.37,409.84 678.37,405.83 681.38,402.82 690.41,402.82 693.42,405.83 693.42,409.84 696.43,412.85 705.45,412.85 708.46,409.84 708.46,405.83 711.47,402.82 720.5,402.82 723.51,405.83 723.51,409.84 726.52,412.85 744.58,412.85 753.14,409.31 760.09,402.36 763.64,393.79 763.64,206.21 760.09,197.64 753.14,190.69 744.58,187.15 726.52,187.15 723.51,190.16 723.51,194.17 720.5,197.18 711.47,197.18 708.46,194.17 708.46,190.16 705.45,187.15 696.43,187.15 693.42,190.16 693.42,194.17 690.41,197.18 681.38,197.18 678.37,194.17 678.37,190.16 675.36,187.15 666.33,187.15 663.32,190.16 663.32,194.17 660.31,197.18 651.29,197.18 648.28,194.17 648.28,190.16 645.27,187.15 636.24,187.15 633.23,190.16 633.23,194.17 630.22,197.18 621.19,197.18 618.18,194.17 618.18,190.16 615.17,187.15 606.14,187.15 603.13,190.16 603.13,194.17 600.13,197.18 591.1,197.18 588.09,194.17 588.09,190.16 585.08,187.15 576.05,187.15 573.04,190.16 573.04,194.17 570.03,197.18 561,197.18 557.99,194.17 557.99,190.16 554.98,187.15 545.96,187.15 542.95,190.16 542.95,194.17 539.94,197.18 530.91,197.18 527.9,194.17 527.9,190.16 524.89,187.15 515.86,187.15 512.85,190.16 512.85,194.17 509.84,197.18 500.82,197.18 497.81,194.17 497.81,190.16 494.8,187.15 485.77,187.15 482.76,190.16 482.76,194.17 479.75,197.18 470.72,197.18 467.71,194.17 467.71,190.16 464.7,187.15 455.67,187.15 452.66,190.16 452.66,194.17 449.66,197.18 440.63,197.18 437.62,194.17 437.62,190.16 434.61,187.15 425.58,187.15 422.57,190.16 422.57,194.17 419.56,197.18 410.53,197.18 407.52,194.17 407.52,190.16 404.51,187.15 395.49,187.15 392.48,190.16 392.48,194.17 389.47,197.18 380.44,197.18 377.43,194.17 377.43,190.16 374.42,187.15 365.39,187.15 362.38,190.16 362.38,194.17 359.37,197.18 350.34,197.18 347.34,194.17 347.34,190.16 344.33,187.15 335.3,187.15 332.29,190.16 332.29,194.17 329.28,197.18 320.25,197.18 317.24,194.17 317.24,190.16 314.23,187.15 305.2,187.15 302.19,190.16 302.19,194.17 299.18,197.18 290.16,197.18 287.15,194.17 287.15,190.16 284.14,187.15 275.11,187.15 272.1,190.16 272.1,194.17 269.09,197.18 260.06,197.18 257.05,194.17 257.05,190.16 254.04,187.15 245.02,187.15 242.01,190.16 242.01,194.17 239,197.18 229.97,197.18 226.96,194.17 226.96,190.16 223.95,187.15 214.92,187.15 211.91,190.16 211.91,194.17 208.9,197.18 199.87,197.18 196.87,194.17 196.87,190.16 193.86,187.15 184.83,187.15 181.82,190.16 181.82,194.17 178.81,197.18 169.78,197.18 166.77,194.17 166.77,190.16 163.76,187.15 154.73,187.15 151.72,190.16 151.72,194.17 148.71,197.18 139.69,197.18 136.68,194.17 136.68,190.16 133.67,187.15 124.64,187.15 121.63,190.16 121.63,194.17 118.62,197.18 109.59,197.18 106.58,194.17 106.58,190.16 103.57,187.15 94.55,187.15 91.54,190.16 91.54,194.17 88.53,197.18 79.5,197.18 76.49,194.17 76.49,190.16 73.48,187.15 55.42,187.15 46.86,190.69 39.91,197.64 36.36,206.21 36.36,393.79 39.91,402.36 46.86,409.31" style="fill:none;stroke:black;stroke-width:0.5"/>
</svg>
