<?xml version="1.0" encoding="UTF-8"?>
<svg xmlns="http://www.w3.org/2000/svg" width="800.000" height="600.000" viewBox="0.0 0.0 800.000 600.000" version="1.1">
  <title>Produce by Acme CAD Converter</title>
  <desc>Produce by Acme CAD Converter</desc>
<polyline points="37.36,252.36 36.36,254.76 36.36,274.42 38.49,279.56 41.76,282.83 46.9,284.95 61.54,284.95 63.94,285.95 65.46,287.47 66.46,289.87 66.46,310.13 65.46,312.53 63.94,314.05 61.54,315.05 46.9,315.05 41.76,317.17 38.49,320.44 36.36,325.58 36.36,345.24 37.36,347.64 38.88,349.16 41.28,350.16 758.72,350.16 761.12,349.16 762.64,347.64 763.64,345.24 763.64,325.58 761.51,320.44 758.24,317.17 753.1,315.05 738.46,315.05 736.06,314.05 734.54,312.53 733.54,310.13 733.54,289.87 734.54,287.47 736.06,285.95 738.46,284.95 753.1,284.95 758.24,282.83 761.51,279.56 763.64,274.42 763.64,254.76 762.64,252.36 761.12,250.84 758.72,249.84 41.28,249.84 38.88,250.84 37.36,252.36" style="fill:none;stroke:black;stroke-width:0.5"/>
</svg>
