<?xml version="1.0" encoding="UTF-8"?>
<svg xmlns="http://www.w3.org/2000/svg" width="800.000" height="600.000" viewBox="0.0 0.0 800.000 600.000" version="1.1">
  <title>Produce by Acme CAD Converter</title>
  <desc>Produce by Acme CAD Converter</desc>
<polyline points="54.15,255.53 57.11,257.52 59.84,259.8 62.33,262.35 64.54,265.15 66.46,268.15 68.05,271.34 69.31,274.67 70.22,278.12 70.77,281.64 70.95,285.19 70.95,314.81 70.95,314.81 70.77,318.36 70.22,321.88 69.31,325.33 68.05,328.66 66.46,331.85 64.54,334.85 62.33,337.65 59.84,340.2 57.11,342.48 54.15,344.47 54.15,349.41 56.6,355.31 60.6,359.31 66.5,361.76 733.5,361.76 739.4,359.31 743.4,355.31 745.85,349.41 745.85,344.47 745.85,344.47 742.89,342.48 740.16,340.2 737.67,337.65 735.46,334.85 733.54,331.85 731.95,328.66 730.69,325.33 729.78,321.88 729.23,318.36 729.05,314.81 729.05,285.19 729.05,285.19 729.23,281.64 729.78,278.12 730.69,274.67 731.95,271.34 733.54,268.15 735.46,265.15 737.67,262.35 740.16,259.8 742.89,257.52 745.85,255.53 745.85,250.59 743.4,244.69 739.4,240.69 733.5,238.24 647.53,238.24 644.57,241.21 644.57,245.16 641.6,248.12 632.71,248.12 629.74,245.16 629.74,241.21 626.78,238.24 617.89,238.24 614.92,241.21 614.92,245.16 611.96,248.12 603.06,248.12 600.1,245.16 600.1,241.21 597.13,238.24 588.24,238.24 585.28,241.21 585.28,245.16 582.31,248.12 573.42,248.12 570.45,245.16 570.45,241.21 567.49,238.24 558.6,238.24 555.63,241.21 555.63,245.16 552.67,248.12 543.77,248.12 540.81,245.16 540.81,241.21 537.85,238.24 528.95,238.24 525.99,241.21 525.99,245.16 523.02,248.12 514.13,248.12 511.17,245.16 511.17,241.21 508.2,238.24 499.31,238.24 496.34,241.21 496.34,245.16 493.38,248.12 484.49,248.12 481.52,245.16 481.52,241.21 478.56,238.24 469.66,238.24 466.7,241.21 466.7,245.16 463.74,248.12 454.84,248.12 451.88,245.16 451.88,241.21 448.91,238.24 440.02,238.24 437.06,241.21 437.06,245.16 434.09,248.12 425.2,248.12 422.23,245.16 422.23,241.21 419.27,238.24 410.38,238.24 407.41,241.21 407.41,245.16 404.45,248.12 395.55,248.12 392.59,245.16 392.59,241.21 389.62,238.24 380.73,238.24 377.77,241.21 377.77,245.16 374.8,248.12 365.91,248.12 362.94,245.16 362.94,241.21 359.98,238.24 351.09,238.24 348.12,241.21 348.12,245.16 345.16,248.12 336.26,248.12 333.3,245.16 333.3,241.21 330.34,238.24 321.44,238.24 318.48,241.21 318.48,245.16 315.51,248.12 306.62,248.12 303.66,245.16 303.66,241.21 300.69,238.24 291.8,238.24 288.83,241.21 288.83,245.16 285.87,248.12 276.98,248.12 274.01,245.16 274.01,241.21 271.05,238.24 262.15,238.24 259.19,241.21 259.19,245.16 256.23,248.12 247.33,248.12 244.37,245.16 244.37,241.21 241.4,238.24 232.51,238.24 229.55,241.21 229.55,245.16 226.58,248.12 217.69,248.12 214.72,245.16 214.72,241.21 211.76,238.24 202.87,238.24 199.9,241.21 199.9,245.16 196.94,248.12 188.04,248.12 185.08,245.16 185.08,241.21 182.11,238.24 173.22,238.24 170.26,241.21 170.26,245.16 167.29,248.12 158.4,248.12 155.43,245.16 155.43,241.21 152.47,238.24 66.5,238.24 60.6,240.69 56.6,244.69 54.15,250.59 54.15,255.53" style="fill:none;stroke:black;stroke-width:0.5"/>
</svg>
