<?xml version="1.0" encoding="UTF-8"?>
<svg xmlns="http://www.w3.org/2000/svg" width="800.000" height="600.000" viewBox="0.0 0.0 800.000 600.000" version="1.1">
  <title>Produce by Acme CAD Converter</title>
  <desc>Produce by Acme CAD Converter</desc>
<polyline points="38.88,237.98 36.36,244.06 36.36,363.26 41.76,368.66 758.24,368.66 763.64,363.26 763.64,244.06 761.12,237.98 757,233.86 750.92,231.34 738.21,231.34 738.21,235.16 726.76,231.34 721.67,236.43 711.51,231.34 705.24,237.13 696.25,231.34 688.24,237.64 678.45,231.34 672.98,237.64 663.19,231.34 660.64,236.43 647.93,231.34 644.21,237.13 632.68,231.34 629.1,237.06 619.96,231.34 615.02,236.31 602.16,231.34 599.61,236.43 586.9,231.34 579.94,237.67 571.08,231.34 560.21,235.16 556.39,231.34 546.21,236.42 541.13,231.34 529.34,234.65 525.82,232.13 514.14,234.74 505.67,231.34 494.09,235.16 482.64,231.34 472.78,237.63 460.25,231.34 447.03,236.43 434.33,231.34 430.75,237.06 422.01,233.56 416.79,236.22 406.42,232.21 403.81,231.34 402.54,235.16 391.1,231.34 382.2,237.7 375.84,231.34 370.75,236.43 358.04,231.34 353.75,237.36 345.33,231.34 337.32,237.64 327.53,231.34 323.81,237.13 312.27,231.34 309.72,236.43 297.01,231.34 286.92,236.48 284.3,231.34 278.04,237.13 266.5,231.34 260.26,237.7 253.78,231.34 248.69,236.43 235.98,231.34 229.62,237.7 220.72,231.34 218.17,236.43 205.47,231.34 194.4,235.61 192.75,231.34 183.85,237.7 174.95,231.34 164.86,236.48 162.24,231.34 158.04,235.62 146.98,231.34 143.77,234.17 131.72,231.34 122.82,237.7 113.92,231.34 102.86,235.61 85.95,231.34 77.05,237.7 70.69,231.34 64.68,237 61.79,231.34 49.08,231.34 43,233.86 38.88,237.98" style="fill:none;stroke:black;stroke-width:0.5"/>
</svg>
