<?xml version="1.0" encoding="UTF-8"?>
<svg xmlns="http://www.w3.org/2000/svg" width="800.000" height="600.000" viewBox="0.0 0.0 800.000 600.000" version="1.1">
  <title>Produce by Acme CAD Converter</title>
  <desc>Produce by Acme CAD Converter</desc>
<polyline points="746.43,376.26 743.57,374.34 740.93,372.14 738.52,369.67 736.38,366.97 734.53,364.06 732.99,360.98 731.77,357.76 730.9,354.42 730.37,351.02 730.19,347.58 730.19,338.05 730.19,338.05 730.37,334.61 730.9,331.21 731.77,327.87 732.99,324.65 734.53,321.57 736.38,318.66 738.52,315.96 740.93,313.49 743.57,311.29 746.43,309.37 746.43,304.59 744.07,298.88 740.2,295.01 734.49,292.64 722.54,292.64 722.54,292.64 717.24,294.32 711.84,295.68 706.36,296.69 700.84,297.38 695.28,297.72 689.72,297.72 684.16,297.38 678.64,296.69 673.16,295.68 667.76,294.32 662.46,292.64 662.46,292.64 659.05,294.46 655.5,295.97 651.82,297.16 648.06,298.01 644.23,298.53 640.37,298.7 636.52,298.53 632.69,298.01 628.92,297.16 625.25,295.97 621.7,294.46 618.29,292.64 618.29,292.64 615.39,294.45 612.31,295.93 609.08,297.05 605.75,297.81 602.35,298.19 598.93,298.19 595.54,297.81 592.2,297.05 588.98,295.93 585.89,294.45 582.99,292.64 582.99,292.64 579.7,294.33 576.24,295.66 572.67,296.62 569.01,297.2 565.31,297.4 561.62,297.2 557.96,296.62 554.39,295.66 550.93,294.33 547.64,292.64 547.64,292.64 544.25,294.57 540.7,296.17 537.02,297.43 533.23,298.33 529.38,298.88 525.49,299.06 521.6,298.88 517.75,298.33 513.97,297.43 510.28,296.17 506.73,294.57 503.35,292.64 503.35,292.64 499.59,294.21 495.7,295.43 491.72,296.32 487.68,296.85 483.61,297.03 479.54,296.85 475.5,296.32 471.52,295.43 467.63,294.21 463.87,292.64 463.87,292.64 460.34,294.62 456.66,296.29 452.84,297.64 448.93,298.66 444.94,299.35 440.91,299.69 436.87,299.69 432.84,299.35 428.85,298.66 424.93,297.64 421.12,296.29 417.44,294.62 413.91,292.64 413.91,292.64 409.44,294.5 404.84,296.03 400.15,297.23 395.39,298.09 390.57,298.6 385.74,298.78 380.9,298.6 376.09,298.09 371.32,297.23 366.63,296.03 362.04,294.5 357.57,292.64 357.57,292.64 354.13,294.47 350.52,295.96 346.79,297.08 342.97,297.84 339.09,298.22 335.19,298.22 331.31,297.84 327.49,297.08 323.76,295.96 320.15,294.47 316.71,292.64 316.71,292.64 313.81,294.73 310.71,296.5 307.44,297.94 304.04,299.03 300.54,299.77 296.99,300.14 293.42,300.14 289.87,299.77 286.37,299.03 282.97,297.94 279.71,296.5 276.6,294.73 273.7,292.64 273.7,292.64 270.97,294.8 268.02,296.67 264.9,298.23 261.64,299.46 258.27,300.35 254.82,300.89 251.34,301.06 247.86,300.89 244.41,300.35 241.04,299.46 237.77,298.23 234.65,296.67 231.71,294.8 228.98,292.64 228.98,292.64 225.99,294.48 222.84,296.01 219.55,297.22 216.16,298.09 212.69,298.61 209.19,298.79 205.69,298.61 202.23,298.09 198.83,297.22 195.54,296.01 192.39,294.48 189.41,292.64 189.41,292.64 186.49,294.45 183.39,295.92 180.14,297.05 176.79,297.8 173.38,298.18 169.94,298.18 166.53,297.8 163.18,297.05 159.93,295.92 156.83,294.45 153.91,292.64 153.91,292.64 151.34,294.14 148.6,295.33 145.75,296.2 142.81,296.72 139.84,296.89 136.86,296.72 133.92,296.2 131.07,295.33 128.33,294.14 125.76,292.64 125.76,292.64 121.6,294.46 117.3,295.94 112.89,297.05 108.41,297.8 103.88,298.17 99.34,298.17 94.81,297.8 90.32,297.05 85.92,295.94 81.62,294.46 77.46,292.64 65.51,292.64 59.8,295.01 55.93,298.88 53.57,304.59 53.57,309.37 53.57,309.37 56.43,311.29 59.07,313.49 61.48,315.96 63.62,318.66 65.47,321.57 67.01,324.65 68.23,327.87 69.1,331.21 69.63,334.61 69.81,338.05 69.81,347.58 69.81,347.58 69.63,351.02 69.1,354.42 68.23,357.76 67.01,360.98 65.47,364.06 63.62,366.97 61.48,369.67 59.07,372.14 56.43,374.34 53.57,376.26 53.57,381.04 55.93,386.75 59.8,390.62 65.51,392.99 734.49,392.99 740.2,390.62 744.07,386.75 746.43,381.04 746.43,376.26" style="fill:none;stroke:black;stroke-width:0.5"/>
</svg>
