<?xml version="1.0" encoding="UTF-8"?>
<svg xmlns="http://www.w3.org/2000/svg" width="800.000" height="600.000" viewBox="0.0 0.0 800.000 600.000" version="1.1">
  <title>Produce by Acme CAD Converter</title>
  <desc>Produce by Acme CAD Converter</desc>
<polyline points="38.79,239.39 36.36,241.82 36.36,281.58 38.79,284 63.03,284 65.45,286.42 65.45,313.58 63.03,316 38.79,316 36.36,318.42 36.36,358.18 38.79,360.61 761.21,360.61 763.64,358.18 763.64,318.42 761.21,316 736.97,316 734.55,313.58 734.55,286.42 736.97,284 761.21,284 763.64,281.58 763.64,241.82 761.21,239.39 727.42,239.39 725.96,240.85 725.96,246.18 724.51,247.64 720.15,247.64 718.69,246.18 718.69,240.85 717.24,239.39 700.56,239.39 699.1,240.85 699.1,246.18 697.65,247.64 693.28,247.64 691.83,246.18 691.83,240.85 690.38,239.39 673.7,239.39 672.24,240.85 672.24,246.18 670.79,247.64 666.42,247.64 664.97,246.18 664.97,240.85 663.52,239.39 646.84,239.39 645.38,240.85 645.38,246.18 643.93,247.64 639.56,247.64 638.11,246.18 638.11,240.85 636.65,239.39 619.98,239.39 618.52,240.85 618.52,246.18 617.07,247.64 612.7,247.64 611.25,246.18 611.25,240.85 609.79,239.39 593.12,239.39 591.66,240.85 591.66,246.18 590.21,247.64 585.84,247.64 584.39,246.18 584.39,240.85 582.93,239.39 566.25,239.39 564.8,240.85 564.8,247.64 558.98,247.64 557.53,246.18 557.53,240.85 556.07,239.39 539.39,239.39 537.94,240.85 537.94,247.64 532.12,247.64 530.67,246.18 530.67,240.85 529.21,239.39 512.53,239.39 511.08,240.85 511.08,246.18 509.62,247.64 505.26,247.64 503.81,246.18 503.81,240.85 502.35,239.39 485.67,239.39 484.22,240.85 484.22,246.18 482.76,247.64 478.4,247.64 476.95,246.18 476.95,240.85 475.49,239.39 458.81,239.39 457.36,240.85 457.36,246.18 455.9,247.64 451.54,247.64 450.08,246.18 450.08,240.85 448.63,239.39 431.95,239.39 430.5,240.85 430.5,246.18 429.04,247.64 424.68,247.64 423.22,246.18 423.22,240.85 421.77,239.39 405.09,239.39 403.64,240.85 403.64,246.18 402.18,247.64 397.82,247.64 396.36,246.18 396.36,240.85 394.91,239.39 378.23,239.39 376.78,240.85 376.78,246.18 375.32,247.64 370.96,247.64 369.5,246.18 369.5,240.85 368.05,239.39 351.37,239.39 349.92,240.85 349.92,246.18 348.46,247.64 344.1,247.64 342.64,246.18 342.64,240.85 341.19,239.39 324.51,239.39 323.05,240.85 323.05,246.18 321.6,247.64 317.24,247.64 315.78,246.18 315.78,240.85 314.33,239.39 297.65,239.39 296.19,240.85 296.19,246.18 294.74,247.64 290.38,247.64 288.92,246.18 288.92,240.85 287.47,239.39 270.79,239.39 269.33,240.85 269.33,246.18 267.88,247.64 263.52,247.64 262.06,246.18 262.06,240.85 260.61,239.39 243.93,239.39 242.47,240.85 242.47,246.18 241.02,247.64 236.65,247.64 235.2,246.18 235.2,240.85 233.75,239.39 217.07,239.39 215.61,240.85 215.61,246.18 214.16,247.64 209.79,247.64 208.34,246.18 208.34,240.85 206.88,239.39 190.21,239.39 188.75,240.85 188.75,246.18 187.3,247.64 182.93,247.64 181.48,246.18 181.48,240.85 180.02,239.39 163.35,239.39 161.89,240.85 161.89,246.18 160.44,247.64 156.07,247.64 154.62,246.18 154.62,240.85 153.16,239.39 136.48,239.39 135.03,240.85 135.03,246.18 133.58,247.64 129.21,247.64 127.76,246.18 127.76,240.85 126.3,239.39 109.62,239.39 108.17,240.85 108.17,246.18 106.72,247.64 102.35,247.64 100.9,246.18 100.9,240.85 99.44,239.39 82.76,239.39 81.31,240.85 81.31,246.18 79.85,247.64 75.49,247.64 74.04,246.18 74.04,240.85 72.58,239.39 38.79,239.39" style="fill:none;stroke:black;stroke-width:0.5"/>
<polyline points="710.3,293.21 710.3,306.79 705.16,319.2 695.57,328.8 683.15,333.94 669.58,333.94 657.16,328.8 647.57,319.2 642.42,306.79 642.42,293.21 647.57,280.8 657.16,271.2 669.58,266.06 683.15,266.06 695.57,271.2 705.16,280.8 710.3,293.21" style="fill:none;stroke:black;stroke-width:0.5"/>
<polyline points="618.18,293.21 618.18,306.79 613.04,319.2 603.45,328.8 591.03,333.94 577.45,333.94 565.04,328.8 555.45,319.2 550.3,306.79 550.3,293.21 555.45,280.8 565.04,271.2 577.45,266.06 591.03,266.06 603.45,271.2 613.04,280.8 618.18,293.21" style="fill:none;stroke:black;stroke-width:0.5"/>
<polyline points="526.06,293.21 526.06,306.79 520.92,319.2 511.32,328.8 498.91,333.94 485.33,333.94 472.92,328.8 463.32,319.2 458.18,306.79 458.18,293.21 463.32,280.8 472.92,271.2 485.33,266.06 498.91,266.06 511.32,271.2 520.92,280.8 526.06,293.21" style="fill:none;stroke:black;stroke-width:0.5"/>
<polyline points="433.94,293.21 433.94,306.79 428.8,319.2 419.2,328.8 406.79,333.94 393.21,333.94 380.8,328.8 371.2,319.2 366.06,306.79 366.06,293.21 371.2,280.8 380.8,271.2 393.21,266.06 406.79,266.06 419.2,271.2 428.8,280.8 433.94,293.21" style="fill:none;stroke:black;stroke-width:0.5"/>
<polyline points="341.82,293.21 341.82,306.79 336.68,319.2 327.08,328.8 314.67,333.94 301.09,333.94 288.68,328.8 279.08,319.2 273.94,306.79 273.94,293.21 279.08,280.8 288.68,271.2 301.09,266.06 314.67,266.06 327.08,271.2 336.68,280.8 341.82,293.21" style="fill:none;stroke:black;stroke-width:0.5"/>
<polyline points="249.7,293.21 249.7,306.79 244.55,319.2 234.96,328.8 222.55,333.94 208.97,333.94 196.55,328.8 186.96,319.2 181.82,306.79 181.82,293.21 186.96,280.8 196.55,271.2 208.97,266.06 222.55,266.06 234.96,271.2 244.55,280.8 249.7,293.21" style="fill:none;stroke:black;stroke-width:0.5"/>
<polyline points="116.85,266.06 130.42,266.06 142.84,271.2 152.43,280.8 157.58,293.21 157.58,306.79 152.43,319.2 142.84,328.8 130.42,333.94 116.85,333.94 104.43,328.8 94.84,319.2 89.7,306.79 89.7,293.21 94.84,280.8 104.43,271.2 116.85,266.06" style="fill:none;stroke:black;stroke-width:0.5"/>
</svg>
