<?xml version="1.0" encoding="UTF-8"?>
<svg xmlns="http://www.w3.org/2000/svg" width="800.000" height="600.000" viewBox="0.0 0.0 800.000 600.000" version="1.1">
  <title>Produce by Acme CAD Converter</title>
  <desc>Produce by Acme CAD Converter</desc>
<polyline points="36.36,339.12 38.85,345.12 43.91,350.18 49.91,352.66 88.53,352.66 91.54,349.66 91.54,345.64 94.55,342.63 103.57,342.63 106.58,345.64 106.58,349.66 109.59,352.66 118.62,352.66 121.63,349.66 121.63,345.64 124.64,342.63 133.67,342.63 136.68,345.64 136.68,349.66 139.69,352.66 148.71,352.66 151.72,349.66 151.72,345.64 154.73,342.63 163.76,342.63 166.77,345.64 166.77,349.66 169.78,352.66 178.81,352.66 181.82,349.66 181.82,345.64 184.83,342.63 193.86,342.63 196.87,345.64 196.87,349.66 199.87,352.66 208.9,352.66 211.91,349.66 211.91,345.64 214.92,342.63 223.95,342.63 226.96,345.64 226.96,349.66 229.97,352.66 239,352.66 242.01,349.66 242.01,345.64 245.02,342.63 254.04,342.63 257.05,345.64 257.05,349.66 260.06,352.66 269.09,352.66 272.1,349.66 272.1,345.64 275.11,342.63 284.14,342.63 287.15,345.64 287.15,349.66 290.16,352.66 299.18,352.66 302.19,349.66 302.19,345.64 305.2,342.63 314.23,342.63 317.24,345.64 317.24,349.66 320.25,352.66 329.28,352.66 332.29,349.66 332.29,345.64 335.3,342.63 344.33,342.63 347.34,345.64 347.34,349.66 350.34,352.66 359.37,352.66 362.38,349.66 362.38,345.64 365.39,342.63 374.42,342.63 377.43,345.64 377.43,349.66 380.44,352.66 389.47,352.66 392.48,349.66 392.48,345.64 395.49,342.63 404.51,342.63 407.52,345.64 407.52,349.66 410.53,352.66 419.56,352.66 422.57,349.66 422.57,345.64 425.58,342.63 434.61,342.63 437.62,345.64 437.62,349.66 440.63,352.66 449.66,352.66 452.66,349.66 452.66,345.64 455.67,342.63 464.7,342.63 467.71,345.64 467.71,349.66 470.72,352.66 479.75,352.66 482.76,349.66 482.76,345.64 485.77,342.63 494.8,342.63 497.81,345.64 497.81,349.66 500.82,352.66 509.84,352.66 512.85,349.66 512.85,345.64 515.86,342.63 524.89,342.63 527.9,345.64 527.9,349.66 530.91,352.66 539.94,352.66 542.95,349.66 542.95,345.64 545.96,342.63 554.98,342.63 557.99,345.64 557.99,349.66 561,352.66 570.03,352.66 573.04,349.66 573.04,345.64 576.05,342.63 585.08,342.63 588.09,345.64 588.09,349.66 591.1,352.66 600.13,352.66 603.13,349.66 603.13,345.64 606.14,342.63 615.17,342.63 618.18,345.64 618.18,349.66 621.19,352.66 630.22,352.66 633.23,349.66 633.23,345.64 636.24,342.63 645.27,342.63 648.28,345.64 648.28,349.66 651.29,352.66 660.31,352.66 663.32,349.66 663.32,345.64 666.33,342.63 675.36,342.63 678.37,345.64 678.37,349.66 681.38,352.66 690.41,352.66 693.42,349.66 693.42,345.64 696.43,342.63 705.45,342.63 708.46,345.64 708.46,349.66 711.47,352.66 750.09,352.66 756.09,350.18 761.15,345.12 763.64,339.12 763.64,261.53 749.44,247.34 694.42,247.34 690.26,250.79 687.15,267.4 669.59,267.4 666.48,250.79 662.32,247.34 601.63,247.34 597.47,250.79 594.36,267.4 576.8,267.4 573.69,250.79 569.53,247.34 508.84,247.34 504.68,250.79 501.57,267.4 484.01,267.4 480.9,250.79 476.74,247.34 416.05,247.34 411.89,250.79 408.78,267.4 391.22,267.4 388.11,250.79 383.95,247.34 323.26,247.34 319.1,250.79 315.99,267.4 298.43,267.4 295.32,250.79 291.16,247.34 230.47,247.34 226.31,250.79 223.2,267.4 205.64,267.4 202.53,250.79 198.37,247.34 137.68,247.34 133.52,250.79 130.41,267.4 112.85,267.4 109.74,250.79 105.58,247.34 50.56,247.34 36.36,261.53 36.36,339.12" style="fill:none;stroke:black;stroke-width:0.5"/>
</svg>
