<?xml version="1.0" encoding="UTF-8"?>
<svg xmlns="http://www.w3.org/2000/svg" width="800.000" height="600.000" viewBox="0.0 0.0 800.000 600.000" version="1.1">
  <desc>Produce by Acme CAD Converter</desc>
<path d="M38.5 223.95L31.63 225.05"
fill="none" stroke="black" stroke-width="0.5"/>
<path d="M31.63 225.05L22.1 223.95"
fill="none" stroke="black" stroke-width="0.5"/>
<path d="M 22.1 223.95 A 14.26 14.26 0 0 0 7.84 238.21"
fill="none" stroke="black" stroke-width="0.5"/>
<path d="M7.84 238.21L7.84 361.79Z"
fill="none" stroke="black" stroke-width="0.5"/>
<path d="M 7.84 361.79 A 14.26 14.26 0 0 0 22.1 376.05"
fill="none" stroke="black" stroke-width="0.5"/>
<path d="M22.1 376.05L102.91 376.05"
fill="none" stroke="black" stroke-width="0.5"/>
<path d="M102.91 376.05L104.39 372.03"
fill="none" stroke="black" stroke-width="0.5"/>
<path d="M 113.31 372.03 A 4.753 4.753 0 0 0 104.39 372.03"
fill="none" stroke="black" stroke-width="0.5"/>
<path d="M113.31 372.03L114.8 376.05"
fill="none" stroke="black" stroke-width="0.5"/>
<path d="M114.8 376.05L144.5 376.05"
fill="none" stroke="black" stroke-width="0.5"/>
<path d="M144.5 376.05L145.99 372.03"
fill="none" stroke="black" stroke-width="0.5"/>
<path d="M 154.91 372.03 A 4.753 4.753 0 0 0 145.99 372.03"
fill="none" stroke="black" stroke-width="0.5"/>
<path d="M154.91 372.03L156.39 376.05"
fill="none" stroke="black" stroke-width="0.5"/>
<path d="M156.39 376.05L186.1 376.05"
fill="none" stroke="black" stroke-width="0.5"/>
<path d="M186.1 376.05L187.58 372.03"
fill="none" stroke="black" stroke-width="0.5"/>
<path d="M 196.5 372.03 A 4.753 4.753 0 0 0 187.58 372.03"
fill="none" stroke="black" stroke-width="0.5"/>
<path d="M196.5 372.03L197.98 376.05"
fill="none" stroke="black" stroke-width="0.5"/>
<path d="M197.98 376.05L227.69 376.05"
fill="none" stroke="black" stroke-width="0.5"/>
<path d="M227.69 376.05L229.17 372.03"
fill="none" stroke="black" stroke-width="0.5"/>
<path d="M 238.09 372.03 A 4.753 4.753 0 0 0 229.17 372.03"
fill="none" stroke="black" stroke-width="0.5"/>
<path d="M238.09 372.03L239.57 376.05"
fill="none" stroke="black" stroke-width="0.5"/>
<path d="M239.57 376.05L269.28 376.05"
fill="none" stroke="black" stroke-width="0.5"/>
<path d="M269.28 376.05L270.76 372.03"
fill="none" stroke="black" stroke-width="0.5"/>
<path d="M 279.68 372.03 A 4.753 4.753 0 0 0 270.76 372.03"
fill="none" stroke="black" stroke-width="0.5"/>
<path d="M279.68 372.03L281.16 376.05"
fill="none" stroke="black" stroke-width="0.5"/>
<path d="M281.16 376.05L310.87 376.05"
fill="none" stroke="black" stroke-width="0.5"/>
<path d="M310.87 376.05L312.36 372.03"
fill="none" stroke="black" stroke-width="0.5"/>
<path d="M 321.28 372.03 A 4.753 4.753 0 0 0 312.36 372.03"
fill="none" stroke="black" stroke-width="0.5"/>
<path d="M321.28 372.03L322.76 376.05"
fill="none" stroke="black" stroke-width="0.5"/>
<path d="M322.76 376.05L352.47 376.05"
fill="none" stroke="black" stroke-width="0.5"/>
<path d="M352.47 376.05L353.95 372.03"
fill="none" stroke="black" stroke-width="0.5"/>
<path d="M 362.87 372.03 A 4.753 4.753 0 0 0 353.95 372.03"
fill="none" stroke="black" stroke-width="0.5"/>
<path d="M362.87 372.03L364.35 376.05"
fill="none" stroke="black" stroke-width="0.5"/>
<path d="M364.35 376.05L394.06 376.05"
fill="none" stroke="black" stroke-width="0.5"/>
<path d="M394.06 376.05L395.54 372.03"
fill="none" stroke="black" stroke-width="0.5"/>
<path d="M 404.46 372.03 A 4.753 4.753 0 0 0 395.54 372.03"
fill="none" stroke="black" stroke-width="0.5"/>
<path d="M404.46 372.03L405.94 376.05"
fill="none" stroke="black" stroke-width="0.5"/>
<path d="M405.94 376.05L435.65 376.05"
fill="none" stroke="black" stroke-width="0.5"/>
<path d="M435.65 376.05L437.13 372.03"
fill="none" stroke="black" stroke-width="0.5"/>
<path d="M 446.05 372.03 A 4.753 4.753 0 0 0 437.13 372.03"
fill="none" stroke="black" stroke-width="0.5"/>
<path d="M446.05 372.03L447.53 376.05"
fill="none" stroke="black" stroke-width="0.5"/>
<path d="M447.53 376.05L477.24 376.05"
fill="none" stroke="black" stroke-width="0.5"/>
<path d="M477.24 376.05L478.72 372.03"
fill="none" stroke="black" stroke-width="0.5"/>
<path d="M 487.64 372.03 A 4.753 4.753 0 0 0 478.72 372.03"
fill="none" stroke="black" stroke-width="0.5"/>
<path d="M487.64 372.03L489.13 376.05"
fill="none" stroke="black" stroke-width="0.5"/>
<path d="M489.13 376.05L518.84 376.05"
fill="none" stroke="black" stroke-width="0.5"/>
<path d="M518.84 376.05L520.32 372.03"
fill="none" stroke="black" stroke-width="0.5"/>
<path d="M 529.24 372.03 A 4.753 4.753 0 0 0 520.32 372.03"
fill="none" stroke="black" stroke-width="0.5"/>
<path d="M529.24 372.03L530.72 376.05"
fill="none" stroke="black" stroke-width="0.5"/>
<path d="M530.72 376.05L560.43 376.05"
fill="none" stroke="black" stroke-width="0.5"/>
<path d="M560.43 376.05L561.91 372.03"
fill="none" stroke="black" stroke-width="0.5"/>
<path d="M 570.83 372.03 A 4.753 4.753 0 0 0 561.91 372.03"
fill="none" stroke="black" stroke-width="0.5"/>
<path d="M570.83 372.03L572.31 376.05"
fill="none" stroke="black" stroke-width="0.5"/>
<path d="M572.31 376.05L602.02 376.05"
fill="none" stroke="black" stroke-width="0.5"/>
<path d="M602.02 376.05L603.5 372.03"
fill="none" stroke="black" stroke-width="0.5"/>
<path d="M 612.42 372.03 A 4.753 4.753 0 0 0 603.5 372.03"
fill="none" stroke="black" stroke-width="0.5"/>
<path d="M612.42 372.03L613.9 376.05"
fill="none" stroke="black" stroke-width="0.5"/>
<path d="M613.9 376.05L643.61 376.05"
fill="none" stroke="black" stroke-width="0.5"/>
<path d="M643.61 376.05L645.09 372.03"
fill="none" stroke="black" stroke-width="0.5"/>
<path d="M 654.01 372.03 A 4.753 4.753 0 0 0 645.09 372.03"
fill="none" stroke="black" stroke-width="0.5"/>
<path d="M654.01 372.03L655.5 376.05"
fill="none" stroke="black" stroke-width="0.5"/>
<path d="M655.5 376.05L685.2 376.05"
fill="none" stroke="black" stroke-width="0.5"/>
<path d="M685.2 376.05L686.69 372.03"
fill="none" stroke="black" stroke-width="0.5"/>
<path d="M 695.61 372.03 A 4.753 4.753 0 0 0 686.69 372.03"
fill="none" stroke="black" stroke-width="0.5"/>
<path d="M695.61 372.03L697.09 376.05"
fill="none" stroke="black" stroke-width="0.5"/>
<path d="M697.09 376.05L777.9 376.05"
fill="none" stroke="black" stroke-width="0.5"/>
<path d="M 777.9 376.05 A 14.26 14.26 0 0 0 792.16 361.79"
fill="none" stroke="black" stroke-width="0.5"/>
<path d="M792.16 361.79L792.16 238.21Z"
fill="none" stroke="black" stroke-width="0.5"/>
<path d="M 792.16 238.21 A 14.26 14.26 0 0 0 777.9 223.95"
fill="none" stroke="black" stroke-width="0.5"/>
<path d="M777.9 223.95L757.05 227.42"
fill="none" stroke="black" stroke-width="0.5"/>
<path d="M757.05 227.42L749.06 223.95"
fill="none" stroke="black" stroke-width="0.5"/>
<path d="M749.06 223.95L734.12 229.82"
fill="none" stroke="black" stroke-width="0.5"/>
<path d="M734.12 229.82L729.56 223.95"
fill="none" stroke="black" stroke-width="0.5"/>
<path d="M729.56 223.95L710.8 225.68"
fill="none" stroke="black" stroke-width="0.5"/>
<path d="M710.8 225.68L703 223.95"
fill="none" stroke="black" stroke-width="0.5"/>
<path d="M703 223.95L679.64 227.84"
fill="none" stroke="black" stroke-width="0.5"/>
<path d="M679.64 227.84L666.93 225.01"
fill="none" stroke="black" stroke-width="0.5"/>
<path d="M666.93 225.01L659.72 227.84"
fill="none" stroke="black" stroke-width="0.5"/>
<path d="M659.72 227.84L648.4 223.95"
fill="none" stroke="black" stroke-width="0.5"/>
<path d="M648.4 223.95L620.72 226.51"
fill="none" stroke="black" stroke-width="0.5"/>
<path d="M620.72 226.51L607.17 223.95"
fill="none" stroke="black" stroke-width="0.5"/>
<path d="M607.17 223.95L588.23 227.11"
fill="none" stroke="black" stroke-width="0.5"/>
<path d="M588.23 227.11L579.05 223.95"
fill="none" stroke="black" stroke-width="0.5"/>
<path d="M579.05 223.95L567.4 225.89"
fill="none" stroke="black" stroke-width="0.5"/>
<path d="M567.4 225.89L558.69 223.95"
fill="none" stroke="black" stroke-width="0.5"/>
<path d="M558.69 223.95L540.99 226.9"
fill="none" stroke="black" stroke-width="0.5"/>
<path d="M540.99 226.9L529.71 223.95"
fill="none" stroke="black" stroke-width="0.5"/>
<path d="M529.71 223.95L519.17 225.7"
fill="none" stroke="black" stroke-width="0.5"/>
<path d="M519.17 225.7L515.13 223.95"
fill="none" stroke="black" stroke-width="0.5"/>
<path d="M515.13 223.95L497.02 231.06"
fill="none" stroke="black" stroke-width="0.5"/>
<path d="M497.02 231.06L491.5 223.95"
fill="none" stroke="black" stroke-width="0.5"/>
<path d="M491.5 223.95L473.84 226.89"
fill="none" stroke="black" stroke-width="0.5"/>
<path d="M473.84 226.89L473.84 223.95Z"
fill="none" stroke="black" stroke-width="0.5"/>
<path d="M473.84 223.95L468.7 227.93"
fill="none" stroke="black" stroke-width="0.5"/>
<path d="M468.7 227.93L465.61 223.95"
fill="none" stroke="black" stroke-width="0.5"/>
<path d="M465.61 223.95L459.78 224.92"
fill="none" stroke="black" stroke-width="0.5"/>
<path d="M459.78 224.92L452.07 223.95"
fill="none" stroke="black" stroke-width="0.5"/>
<path d="M452.07 223.95L442.34 223.95"
fill="none" stroke="black" stroke-width="0.5"/>
<path d="M442.34 223.95L442.34 227.93Z"
fill="none" stroke="black" stroke-width="0.5"/>
<path d="M442.34 227.93L430.23 223.95"
fill="none" stroke="black" stroke-width="0.5"/>
<path d="M430.23 223.95L416.81 227.93"
fill="none" stroke="black" stroke-width="0.5"/>
<path d="M416.81 227.93L411.25 224.92"
fill="none" stroke="black" stroke-width="0.5"/>
<path d="M411.25 224.92L400.62 226.42"
fill="none" stroke="black" stroke-width="0.5"/>
<path d="M400.62 226.42L384.66 223.95"
fill="none" stroke="black" stroke-width="0.5"/>
<path d="M384.66 223.95L364.14 226.85"
fill="none" stroke="black" stroke-width="0.5"/>
<path d="M364.14 226.85L356.14 225.61"
fill="none" stroke="black" stroke-width="0.5"/>
<path d="M356.14 225.61L335.59 227.84"
fill="none" stroke="black" stroke-width="0.5"/>
<path d="M335.59 227.84L332.02 225.61"
fill="none" stroke="black" stroke-width="0.5"/>
<path d="M332.02 225.61L313.95 226.73"
fill="none" stroke="black" stroke-width="0.5"/>
<path d="M313.95 226.73L311.95 223.95"
fill="none" stroke="black" stroke-width="0.5"/>
<path d="M311.95 223.95L300.34 225.21"
fill="none" stroke="black" stroke-width="0.5"/>
<path d="M300.34 225.21L287.22 223.95"
fill="none" stroke="black" stroke-width="0.5"/>
<path d="M287.22 223.95L273.62 225.87"
fill="none" stroke="black" stroke-width="0.5"/>
<path d="M273.62 225.87L270.89 227.84"
fill="none" stroke="black" stroke-width="0.5"/>
<path d="M270.89 227.84L270.33 223.95"
fill="none" stroke="black" stroke-width="0.5"/>
<path d="M270.33 223.95L262.88 225.89"
fill="none" stroke="black" stroke-width="0.5"/>
<path d="M262.88 225.89L253.79 223.95"
fill="none" stroke="black" stroke-width="0.5"/>
<path d="M253.79 223.95L241.46 224.71"
fill="none" stroke="black" stroke-width="0.5"/>
<path d="M241.46 224.71L241.46 223.95Z"
fill="none" stroke="black" stroke-width="0.5"/>
<path d="M241.46 223.95L238.18 224.92"
fill="none" stroke="black" stroke-width="0.5"/>
<path d="M238.18 224.92L236.97 226.86"
fill="none" stroke="black" stroke-width="0.5"/>
<path d="M236.97 226.86L234.47 223.95"
fill="none" stroke="black" stroke-width="0.5"/>
<path d="M234.47 223.95L229.12 225.53"
fill="none" stroke="black" stroke-width="0.5"/>
<path d="M229.12 225.53L227.19 223.95"
fill="none" stroke="black" stroke-width="0.5"/>
<path d="M227.19 223.95L222.72 225.89"
fill="none" stroke="black" stroke-width="0.5"/>
<path d="M222.72 225.89L220.36 223.95"
fill="none" stroke="black" stroke-width="0.5"/>
<path d="M220.36 223.95L211.99 225.13"
fill="none" stroke="black" stroke-width="0.5"/>
<path d="M211.99 225.13L210.1 223.95"
fill="none" stroke="black" stroke-width="0.5"/>
<path d="M210.1 223.95L203.72 226.71"
fill="none" stroke="black" stroke-width="0.5"/>
<path d="M203.72 226.71L201.35 223.95"
fill="none" stroke="black" stroke-width="0.5"/>
<path d="M201.35 223.95L195.5 225.68"
fill="none" stroke="black" stroke-width="0.5"/>
<path d="M195.5 225.68L191.97 224.92"
fill="none" stroke="black" stroke-width="0.5"/>
<path d="M191.97 224.92L187.6 226.22"
fill="none" stroke="black" stroke-width="0.5"/>
<path d="M187.6 226.22L183.93 224.92"
fill="none" stroke="black" stroke-width="0.5"/>
<path d="M183.93 224.92L177.63 223.95"
fill="none" stroke="black" stroke-width="0.5"/>
<path d="M177.63 223.95L168.14 225.29"
fill="none" stroke="black" stroke-width="0.5"/>
<path d="M168.14 225.29L164.4 224.71"
fill="none" stroke="black" stroke-width="0.5"/>
<path d="M164.4 224.71L160.62 225.83"
fill="none" stroke="black" stroke-width="0.5"/>
<path d="M160.62 225.83L154.93 223.95"
fill="none" stroke="black" stroke-width="0.5"/>
<path d="M154.93 223.95L144.7 225.39"
fill="none" stroke="black" stroke-width="0.5"/>
<path d="M144.7 225.39L141.38 223.95"
fill="none" stroke="black" stroke-width="0.5"/>
<path d="M141.38 223.95L131.69 225.32"
fill="none" stroke="black" stroke-width="0.5"/>
<path d="M131.69 225.32L130.59 227.84"
fill="none" stroke="black" stroke-width="0.5"/>
<path d="M130.59 227.84L124.8 225.32"
fill="none" stroke="black" stroke-width="0.5"/>
<path d="M124.8 225.32L118.31 225.32"
fill="none" stroke="black" stroke-width="0.5"/>
<path d="M118.31 225.32L113.38 223.95"
fill="none" stroke="black" stroke-width="0.5"/>
<path d="M113.38 223.95L93.84 225.15"
fill="none" stroke="black" stroke-width="0.5"/>
<path d="M93.84 225.15L93.84 223.95Z"
fill="none" stroke="black" stroke-width="0.5"/>
<path d="M93.84 223.95L89.22 223.95"
fill="none" stroke="black" stroke-width="0.5"/>
<path d="M89.22 223.95L84.84 225.15"
fill="none" stroke="black" stroke-width="0.5"/>
<path d="M84.84 225.15L78.27 225.15"
fill="none" stroke="black" stroke-width="0.5"/>
<path d="M78.27 225.15L78.27 223.95Z"
fill="none" stroke="black" stroke-width="0.5"/>
<path d="M78.27 223.95L66.51 225.83"
fill="none" stroke="black" stroke-width="0.5"/>
<path d="M66.51 225.83L59.95 223.95"
fill="none" stroke="black" stroke-width="0.5"/>
<path d="M59.95 223.95L50.78 225.41"
fill="none" stroke="black" stroke-width="0.5"/>
<path d="M50.78 225.41L42.72 223.95"
fill="none" stroke="black" stroke-width="0.5"/>
<path d="M42.72 223.95L41.16 225.41"
fill="none" stroke="black" stroke-width="0.5"/>
<path d="M41.16 225.41L38.5 223.95"
fill="none" stroke="black" stroke-width="0.5"/>
</svg>
