<?xml version="1.0" encoding="UTF-8"?>
<svg xmlns="http://www.w3.org/2000/svg" width="800.000" height="600.000" viewBox="0.0 0.0 800.000 600.000" version="1.1">
  <title>Produce by Acme CAD Converter</title>
  <desc>Produce by Acme CAD Converter</desc>
<polyline points="763.64,304.53 761.15,298.53 757.09,294.47 751.1,291.99 738.56,291.99 738.56,291.99 732.72,293.94 726.77,295.51 720.74,296.7 714.63,297.49 708.49,297.89 702.34,297.89 696.2,297.49 690.1,296.7 684.06,295.51 678.11,293.94 672.28,291.99 672.28,291.99 669.64,294.06 666.79,295.83 663.76,297.27 660.59,298.37 657.32,299.11 653.99,299.48 650.63,299.48 647.3,299.11 644.03,298.37 640.86,297.27 637.83,295.83 634.98,294.06 632.34,291.99 632.34,291.99 629.61,294 626.68,295.71 623.58,297.1 620.36,298.15 617.04,298.87 613.67,299.22 610.27,299.22 606.9,298.87 603.58,298.15 600.36,297.1 597.26,295.71 594.33,294 591.6,291.99 591.6,291.99 588.34,293.78 584.92,295.23 581.37,296.33 577.73,297.08 574.03,297.45 570.31,297.45 566.61,297.08 562.97,296.33 559.42,295.23 556,293.78 552.74,291.99 552.74,291.99 549.06,293.9 545.2,295.45 541.22,296.62 537.14,297.41 533.01,297.81 528.86,297.81 524.72,297.41 520.65,296.62 516.66,295.45 512.81,293.9 509.12,291.99 509.12,291.99 505.18,293.63 501.1,294.92 496.92,295.84 492.68,296.4 488.41,296.59 484.14,296.4 479.9,295.84 475.72,294.92 471.64,293.63 467.7,291.99 467.7,291.99 463.93,293.87 460.03,295.42 456,296.65 451.89,297.53 447.72,298.06 443.52,298.23 439.32,298.06 435.15,297.53 431.04,296.65 427.01,295.42 423.11,293.87 419.35,291.99 419.35,291.99 414.47,294.11 409.45,295.87 404.31,297.25 399.09,298.24 393.81,298.83 388.49,299.03 383.18,298.83 377.89,298.24 372.67,297.25 367.53,295.87 362.51,294.11 357.64,291.99 357.64,291.99 354.16,294.02 350.5,295.71 346.7,297.04 342.79,298 338.8,298.58 334.78,298.78 330.75,298.58 326.77,298 322.86,297.04 319.05,295.71 315.4,294.02 311.92,291.99 311.92,291.99 308.76,294.02 305.41,295.72 301.89,297.06 298.26,298.03 294.55,298.61 290.79,298.81 287.04,298.61 283.33,298.03 279.69,297.06 276.18,295.72 272.83,294.02 269.67,291.99 269.67,291.99 267.04,294.53 264.17,296.8 261.09,298.76 257.81,300.39 254.39,301.68 250.86,302.61 247.24,303.17 243.59,303.36 239.94,303.17 236.33,302.61 232.79,301.68 229.37,300.39 226.09,298.76 223.01,296.8 220.14,294.53 217.51,291.99 217.51,291.99 214.51,294.03 211.31,295.76 207.96,297.16 204.48,298.23 200.92,298.94 197.3,299.3 193.67,299.3 190.05,298.94 186.49,298.23 183.02,297.16 179.66,295.76 176.47,294.03 173.46,291.99 173.46,291.99 170.28,293.21 167,294.09 163.63,294.62 160.24,294.8 156.84,294.62 153.48,294.09 150.19,293.21 147.01,291.99 147.01,291.99 144.42,293.69 141.64,295.09 138.72,296.15 135.7,296.87 132.62,297.23 129.51,297.23 126.43,296.87 123.41,296.15 120.49,295.09 117.71,293.69 115.12,291.99 115.12,291.99 110.91,293.98 106.57,295.63 102.1,296.92 97.54,297.85 92.93,298.41 88.28,298.59 83.63,298.41 79.02,297.85 74.46,296.92 69.99,295.63 65.64,293.98 61.44,291.99 48.9,291.99 42.91,294.47 38.85,298.53 36.36,304.53 36.36,392 41.68,397.32 758.32,397.32 763.64,392 763.64,304.53" style="fill:none;stroke:black;stroke-width:0.5"/>
</svg>
