<?xml version="1.0" encoding="UTF-8"?>
<svg xmlns="http://www.w3.org/2000/svg" width="800.000" height="600.000" viewBox="0.0 0.0 800.000 600.000" version="1.1">
  <title>Produce by Acme CAD Converter</title>
  <desc>Produce by Acme CAD Converter</desc>
<polyline points="761.43,281.42 763.64,276.1 763.64,253.14 762.61,250.66 761.03,249.08 758.55,248.05 689.35,248.05 684.92,249.89 682.36,252.45 680.52,256.88 680,256.88 678.16,252.45 675.6,249.89 671.17,248.05 663.38,248.05 658.94,249.89 656.38,252.45 654.55,256.88 654.03,256.88 652.19,252.45 649.63,249.89 645.19,248.05 637.4,248.05 632.97,249.89 630.41,252.45 628.57,256.88 628.05,256.88 626.22,252.45 623.65,249.89 619.22,248.05 611.43,248.05 606.99,249.89 604.43,252.45 602.6,256.88 602.08,256.88 600.24,252.45 597.68,249.89 593.25,248.05 585.45,248.05 581.02,249.89 578.46,252.45 576.62,256.88 576.1,256.88 574.27,252.45 571.71,249.89 567.27,248.05 559.48,248.05 555.05,249.89 552.49,252.45 550.65,256.88 550.13,256.88 548.29,252.45 545.73,249.89 541.3,248.05 533.51,248.05 529.07,249.89 526.51,252.45 524.68,256.88 524.16,256.88 522.32,252.45 519.76,249.89 515.32,248.05 507.53,248.05 503.1,249.89 500.54,252.45 498.7,256.88 498.18,256.88 496.35,252.45 493.78,249.89 489.35,248.05 481.56,248.05 477.12,249.89 474.56,252.45 472.73,256.88 472.21,256.88 470.37,252.45 467.81,249.89 463.38,248.05 336.62,248.05 332.19,249.89 329.63,252.45 327.79,256.88 327.27,256.88 325.44,252.45 322.88,249.89 318.44,248.05 310.65,248.05 306.22,249.89 303.65,252.45 301.82,256.88 301.3,256.88 299.46,252.45 296.9,249.89 292.47,248.05 284.68,248.05 280.24,249.89 277.68,252.45 275.84,256.88 275.32,256.88 273.49,252.45 270.93,249.89 266.49,248.05 258.7,248.05 254.27,249.89 251.71,252.45 249.87,256.88 249.35,256.88 247.51,252.45 244.95,249.89 240.52,248.05 232.73,248.05 228.29,249.89 225.73,252.45 223.9,256.88 223.38,256.88 221.54,252.45 218.98,249.89 214.55,248.05 206.75,248.05 202.32,249.89 199.76,252.45 197.92,256.88 197.4,256.88 195.57,252.45 193.01,249.89 188.57,248.05 180.78,248.05 176.35,249.89 173.78,252.45 171.95,256.88 171.43,256.88 169.59,252.45 167.03,249.89 162.6,248.05 154.81,248.05 150.37,249.89 147.81,252.45 145.97,256.88 145.45,256.88 143.62,252.45 141.06,249.89 136.62,248.05 128.83,248.05 124.4,249.89 121.84,252.45 120,256.88 119.48,256.88 117.64,252.45 115.08,249.89 110.65,248.05 41.45,248.05 38.97,249.08 37.39,250.66 36.36,253.14 36.36,276.1 38.57,281.42 41.95,284.81 47.27,287.01 62.44,287.01 64.92,288.04 66.5,289.62 67.53,292.1 67.53,307.9 66.5,310.38 64.92,311.96 62.44,312.99 47.27,312.99 41.95,315.19 38.57,318.58 36.36,323.9 36.36,346.86 37.39,349.34 38.97,350.92 41.45,351.95 758.55,351.95 761.03,350.92 762.61,349.34 763.64,346.86 763.64,323.9 761.43,318.58 758.05,315.19 752.73,312.99 737.56,312.99 735.08,311.96 733.5,310.38 732.47,307.9 732.47,292.1 733.5,289.62 735.08,288.04 737.56,287.01 752.73,287.01 758.05,284.81 761.43,281.42" style="fill:none;stroke:black;stroke-width:0.5"/>
</svg>
