<?xml version="1.0" encoding="UTF-8"?>
<svg xmlns="http://www.w3.org/2000/svg" width="800.000" height="600.000" viewBox="0.0 0.0 800.000 600.000" version="1.1">
  <title>Produce by Acme CAD Converter</title>
  <desc>Produce by Acme CAD Converter</desc>
<polyline points="117.4,262.89 116.51,263.78 116.51,267.05 115.62,267.94 112.95,267.94 112.06,267.05 112.06,263.78 111.17,262.89 37.85,262.89 36.36,264.38 36.36,289.61 37.85,291.09 54.17,291.09 55.66,292.58 55.66,307.42 54.17,308.91 37.85,308.91 36.36,310.39 36.36,335.62 37.85,337.11 762.15,337.11 763.64,335.62 763.64,310.39 762.15,308.91 745.83,308.91 744.34,307.42 744.34,292.58 745.83,291.09 762.15,291.09 763.64,289.61 763.64,264.38 762.15,262.89 688.83,262.89 687.94,263.78 687.94,267.05 687.05,267.94 684.38,267.94 683.49,267.05 683.49,263.78 682.6,262.89 659.15,262.89 658.26,263.78 658.26,267.05 657.37,267.94 654.69,267.94 653.8,267.05 653.8,263.78 652.91,262.89 629.46,262.89 628.57,263.78 628.57,267.05 627.68,267.94 625.01,267.94 624.12,267.05 624.12,263.78 623.23,262.89 599.78,262.89 598.89,263.78 598.89,267.05 598,267.94 595.32,267.94 594.43,267.05 594.43,263.78 593.54,262.89 570.09,262.89 569.2,263.78 569.2,267.05 568.31,267.94 565.64,267.94 564.75,267.05 564.75,263.78 563.86,262.89 540.41,262.89 539.52,263.78 539.52,267.05 538.63,267.94 535.96,267.94 535.06,267.05 535.06,263.78 534.17,262.89 510.72,262.89 509.83,263.78 509.83,267.05 508.94,267.94 506.27,267.94 505.38,267.05 505.38,263.78 504.49,262.89 481.04,262.89 480.15,263.78 480.15,267.05 479.26,267.94 476.59,267.94 475.7,267.05 475.7,263.78 474.81,262.89 451.35,262.89 450.46,263.78 450.46,267.05 449.57,267.94 446.9,267.94 446.01,267.05 446.01,263.78 445.12,262.89 354.88,262.89 353.99,263.78 353.99,267.05 353.1,267.94 350.43,267.94 349.54,267.05 349.54,263.78 348.65,262.89 325.19,262.89 324.3,263.78 324.3,267.05 323.41,267.94 320.74,267.94 319.85,267.05 319.85,263.78 318.96,262.89 295.51,262.89 294.62,263.78 294.62,267.05 293.73,267.94 291.06,267.94 290.17,267.05 290.17,263.78 289.28,262.89 265.83,262.89 264.94,263.78 264.94,267.05 264.04,267.94 261.37,267.94 260.48,267.05 260.48,263.78 259.59,262.89 236.14,262.89 235.25,263.78 235.25,267.05 234.36,267.94 231.69,267.94 230.8,267.05 230.8,263.78 229.91,262.89 206.46,262.89 205.57,263.78 205.57,267.05 204.68,267.94 202,267.94 201.11,267.05 201.11,263.78 200.22,262.89 176.77,262.89 175.88,263.78 175.88,267.05 174.99,267.94 172.32,267.94 171.43,267.05 171.43,263.78 170.54,262.89 147.09,262.89 146.2,263.78 146.2,267.05 145.31,267.94 142.63,267.94 141.74,267.05 141.74,263.78 140.85,262.89 117.4,262.89" style="fill:none;stroke:black;stroke-width:0.5"/>
<polyline points="732.47,295.55 732.47,304.45 729.11,312.56 722.76,318.91 714.66,322.26 705.75,322.26 697.64,318.91 691.3,312.56 687.94,304.45 687.94,295.55 691.3,287.44 697.64,281.09 705.75,277.74 714.66,277.74 722.76,281.09 729.11,287.44 732.47,295.55" style="fill:none;stroke:black;stroke-width:0.5"/>
<polyline points="676.07,295.55 676.07,304.45 672.71,312.56 666.36,318.91 658.26,322.26 649.35,322.26 641.24,318.91 634.9,312.56 631.54,304.45 631.54,295.55 634.9,287.44 641.24,281.09 649.35,277.74 658.26,277.74 666.36,281.09 672.71,287.44 676.07,295.55" style="fill:none;stroke:black;stroke-width:0.5"/>
<polyline points="619.67,295.55 619.67,304.45 616.31,312.56 609.96,318.91 601.86,322.26 592.95,322.26 584.84,318.91 578.5,312.56 575.14,304.45 575.14,295.55 578.5,287.44 584.84,281.09 592.95,277.74 601.86,277.74 609.96,281.09 616.31,287.44 619.67,295.55" style="fill:none;stroke:black;stroke-width:0.5"/>
<polyline points="563.27,295.55 563.27,304.45 559.91,312.56 553.56,318.91 545.45,322.26 536.55,322.26 528.44,318.91 522.1,312.56 518.74,304.45 518.74,295.55 522.1,287.44 528.44,281.09 536.55,277.74 545.45,277.74 553.56,281.09 559.91,287.44 563.27,295.55" style="fill:none;stroke:black;stroke-width:0.5"/>
<polyline points="506.86,295.55 506.86,304.45 503.51,312.56 497.16,318.91 489.05,322.26 480.15,322.26 472.04,318.91 465.7,312.56 462.34,304.45 462.34,295.55 465.7,287.44 472.04,281.09 480.15,277.74 489.05,277.74 497.16,281.09 503.51,287.44 506.86,295.55" style="fill:none;stroke:black;stroke-width:0.5"/>
<polyline points="450.46,295.55 450.46,304.45 447.11,312.56 440.76,318.91 432.65,322.26 423.75,322.26 415.64,318.91 409.3,312.56 405.94,304.45 405.94,295.55 409.3,287.44 415.64,281.09 423.75,277.74 432.65,277.74 440.76,281.09 447.11,287.44 450.46,295.55" style="fill:none;stroke:black;stroke-width:0.5"/>
<polyline points="394.06,295.55 394.06,304.45 390.7,312.56 384.36,318.91 376.25,322.26 367.35,322.26 359.24,318.91 352.89,312.56 349.54,304.45 349.54,295.55 352.89,287.44 359.24,281.09 367.35,277.74 376.25,277.74 384.36,281.09 390.7,287.44 394.06,295.55" style="fill:none;stroke:black;stroke-width:0.5"/>
<polyline points="337.66,295.55 337.66,304.45 334.3,312.56 327.96,318.91 319.85,322.26 310.95,322.26 302.84,318.91 296.49,312.56 293.14,304.45 293.14,295.55 296.49,287.44 302.84,281.09 310.95,277.74 319.85,277.74 327.96,281.09 334.3,287.44 337.66,295.55" style="fill:none;stroke:black;stroke-width:0.5"/>
<polyline points="281.26,295.55 281.26,304.45 277.9,312.56 271.56,318.91 263.45,322.26 254.55,322.26 246.44,318.91 240.09,312.56 236.73,304.45 236.73,295.55 240.09,287.44 246.44,281.09 254.55,277.74 263.45,277.74 271.56,281.09 277.9,287.44 281.26,295.55" style="fill:none;stroke:black;stroke-width:0.5"/>
<polyline points="224.86,295.55 224.86,304.45 221.5,312.56 215.16,318.91 207.05,322.26 198.14,322.26 190.04,318.91 183.69,312.56 180.33,304.45 180.33,295.55 183.69,287.44 190.04,281.09 198.14,277.74 207.05,277.74 215.16,281.09 221.5,287.44 224.86,295.55" style="fill:none;stroke:black;stroke-width:0.5"/>
<polyline points="168.46,295.55 168.46,304.45 165.1,312.56 158.76,318.91 150.65,322.26 141.74,322.26 133.64,318.91 127.29,312.56 123.93,304.45 123.93,295.55 127.29,287.44 133.64,281.09 141.74,277.74 150.65,277.74 158.76,281.09 165.1,287.44 168.46,295.55" style="fill:none;stroke:black;stroke-width:0.5"/>
<polyline points="85.34,277.74 94.25,277.74 102.36,281.09 108.7,287.44 112.06,295.55 112.06,304.45 108.7,312.56 102.36,318.91 94.25,322.26 85.34,322.26 77.24,318.91 70.89,312.56 67.53,304.45 67.53,295.55 70.89,287.44 77.24,281.09 85.34,277.74" style="fill:none;stroke:black;stroke-width:0.5"/>
</svg>
