<?xml version="1.0" encoding="UTF-8"?>
<svg xmlns="http://www.w3.org/2000/svg" width="800.000" height="600.000" viewBox="0.0 0.0 800.000 600.000" version="1.1">
  <title>Produce by Acme CAD Converter</title>
  <desc>Produce by Acme CAD Converter</desc>
<polyline points="36.36,349.15 38.85,355.15 43.91,360.21 49.91,362.7 750.09,362.7 756.09,360.21 761.15,355.15 763.64,349.15 763.64,251.5 749.44,237.3 694.42,237.3 690.26,240.75 687.15,257.37 669.59,257.37 666.48,240.75 662.32,237.3 601.63,237.3 597.47,240.75 594.36,257.37 576.8,257.37 573.69,240.75 569.53,237.3 508.84,237.3 504.68,240.75 501.57,257.37 484.01,257.37 480.9,240.75 476.74,237.3 416.05,237.3 411.89,240.75 408.78,257.37 391.22,257.37 388.11,240.75 383.95,237.3 323.26,237.3 319.1,240.75 315.99,257.37 298.43,257.37 295.32,240.75 291.16,237.3 230.47,237.3 226.31,240.75 223.2,257.37 205.64,257.37 202.53,240.75 198.37,237.3 137.68,237.3 133.52,240.75 130.41,257.37 112.85,257.37 109.74,240.75 105.58,237.3 50.56,237.3 36.36,251.5 36.36,349.15" style="fill:none;stroke:black;stroke-width:0.5"/>
</svg>
