<?xml version="1.0" encoding="UTF-8"?>
<svg xmlns="http://www.w3.org/2000/svg" width="800.000" height="600.000" viewBox="0.0 0.0 800.000 600.000" version="1.1">
  <title>Produce by Acme CAD Converter</title>
  <desc>Produce by Acme CAD Converter</desc>
<polyline points="763.64,282.79 761.12,276.71 757,272.59 750.92,270.07 738.21,270.07 738.21,270.07 733.11,271.79 727.91,273.18 722.63,274.22 717.3,274.92 711.93,275.27 706.55,275.27 701.19,274.92 695.85,274.22 690.57,273.18 685.38,271.79 680.28,270.07 680.28,270.07 677.8,272.08 675.12,273.8 672.25,275.2 669.25,276.27 666.14,276.99 662.97,277.35 659.78,277.35 656.61,276.99 653.51,276.27 650.5,275.2 647.64,273.8 644.95,272.08 642.47,270.07 642.47,270.07 639.9,272.57 637.07,274.77 634.02,276.65 630.78,278.18 627.39,279.34 623.89,280.12 620.33,280.52 616.74,280.52 613.18,280.12 609.68,279.34 606.29,278.18 603.05,276.65 600,274.77 597.17,272.57 594.6,270.07 594.6,270.07 591.4,271.5 588.09,272.62 584.69,273.43 581.22,273.92 577.73,274.08 574.23,273.92 570.77,273.43 567.37,272.62 564.05,271.5 560.86,270.07 560.86,270.07 558.45,272.45 555.79,274.54 552.91,276.33 549.85,277.79 546.65,278.89 543.35,279.64 539.98,280.01 536.6,280.01 533.23,279.64 529.93,278.89 526.73,277.79 523.67,276.33 520.8,274.54 518.13,272.45 515.72,270.07 515.72,270.07 511.56,271.63 507.28,272.81 502.9,273.61 498.48,274 494.03,274 489.61,273.61 485.23,272.81 480.95,271.63 476.79,270.07 476.79,270.07 473.07,272.13 469.19,273.86 465.18,275.26 461.06,276.32 456.87,277.03 452.64,277.38 448.39,277.38 444.16,277.03 439.97,276.32 435.85,275.26 431.84,273.86 427.96,272.13 424.24,270.07 424.24,270.07 419.63,272.13 414.89,273.87 410.04,275.26 405.1,276.31 400.1,277.02 395.06,277.37 390.01,277.37 384.98,277.02 379.98,276.31 375.04,275.26 370.19,273.87 365.45,272.13 360.84,270.07 360.84,270.07 357.56,272.03 354.13,273.69 350.56,275.03 346.88,276.05 343.13,276.73 339.33,277.07 335.51,277.07 331.71,276.73 327.96,276.05 324.28,275.03 320.71,273.69 317.27,272.03 314,270.07 314,270.07 311.04,272.02 307.9,273.66 304.62,275 301.22,276.02 297.75,276.7 294.22,277.04 290.68,277.04 287.15,276.7 283.67,276.02 280.28,275 277,273.66 273.86,272.02 270.9,270.07 270.9,270.07 268.12,272.47 265.12,274.56 261.91,276.35 258.55,277.8 255.05,278.9 251.46,279.64 247.82,280.01 244.15,280.01 240.51,279.64 236.92,278.9 233.42,277.8 230.05,276.35 226.85,274.56 223.85,272.47 221.07,270.07 221.07,270.07 218.08,272.02 214.92,273.66 211.61,275 208.2,276.01 204.7,276.69 201.15,277.03 197.58,277.03 194.04,276.69 190.54,276.01 187.12,275 183.81,273.66 180.65,272.02 177.66,270.07 177.66,270.07 174.38,271.62 170.95,272.8 167.41,273.59 163.81,273.99 160.18,273.99 156.58,273.59 153.04,272.8 149.61,271.62 146.33,270.07 146.33,270.07 144.02,271.99 141.51,273.63 138.82,274.97 136,275.99 133.07,276.67 130.09,277.02 127.09,277.02 124.11,276.67 121.18,275.99 118.36,274.97 115.67,273.63 113.16,271.99 110.85,270.07 110.85,270.07 107.09,272.16 103.15,273.89 99.07,275.25 94.88,276.23 90.62,276.82 86.32,277.02 82.02,276.82 77.76,276.23 73.57,275.25 69.49,273.89 65.56,272.16 61.79,270.07 49.08,270.07 43,272.59 38.88,276.71 36.36,282.79 36.36,402 41.76,407.39 758.24,407.39 763.64,402 763.64,282.79" style="fill:none;stroke:black;stroke-width:0.5"/>
</svg>
