<?xml version="1.0" encoding="UTF-8"?>
<svg xmlns="http://www.w3.org/2000/svg" width="800.000" height="600.000" viewBox="0.0 0.0 800.000 600.000" version="1.1">
  <title>Produce by Acme CAD Converter</title>
  <desc>Produce by Acme CAD Converter</desc>
<polyline points="36.36,381.76 38.85,387.75 43.91,392.82 49.91,395.3 750.09,395.3 756.09,392.82 761.15,387.75 763.64,381.76 763.64,218.9 749.44,204.7 694.42,204.7 690.26,208.15 687.15,224.76 669.59,224.76 666.48,208.15 662.32,204.7 601.63,204.7 597.47,208.15 594.36,224.76 576.8,224.76 573.69,208.15 569.53,204.7 508.84,204.7 504.68,208.15 501.57,224.76 484.01,224.76 480.9,208.15 476.74,204.7 416.05,204.7 411.89,208.15 408.78,224.76 391.22,224.76 388.11,208.15 383.95,204.7 323.26,204.7 319.1,208.15 315.99,224.76 298.43,224.76 295.32,208.15 291.16,204.7 230.47,204.7 226.31,208.15 223.2,224.76 205.64,224.76 202.53,208.15 198.37,204.7 137.68,204.7 133.52,208.15 130.41,224.76 112.85,224.76 109.74,208.15 105.58,204.7 50.56,204.7 36.36,218.9 36.36,381.76" style="fill:none;stroke:black;stroke-width:0.5"/>
</svg>
