<?xml version="1.0" encoding="UTF-8"?>
<svg xmlns="http://www.w3.org/2000/svg" width="800.000" height="600.000" viewBox="0.0 0.0 800.000 600.000" version="1.1">
  <title>Produce by Acme CAD Converter</title>
  <desc>Produce by Acme CAD Converter</desc>
<polyline points="47.01,365.06 55.69,368.66 84.17,368.66 87.22,365.61 87.22,361.54 90.27,358.49 99.43,358.49 102.48,361.54 102.48,365.61 105.53,368.66 114.69,368.66 117.74,365.61 117.74,361.54 120.79,358.49 129.94,358.49 132.99,361.54 132.99,365.61 136.05,368.66 145.2,368.66 148.25,365.61 148.25,361.54 151.3,358.49 160.46,358.49 163.51,361.54 163.51,365.61 166.56,368.66 175.72,368.66 178.77,365.61 178.77,361.54 181.82,358.49 190.97,358.49 194.02,361.54 194.02,365.61 197.08,368.66 206.23,368.66 209.28,365.61 209.28,361.54 212.33,358.49 221.49,358.49 224.54,361.54 224.54,365.61 227.59,368.66 236.75,368.66 239.8,365.61 239.8,361.54 242.85,358.49 252,358.49 255.05,361.54 255.05,365.61 258.11,368.66 267.26,368.66 270.31,365.61 270.31,361.54 273.36,358.49 282.52,358.49 285.57,361.54 285.57,365.61 288.62,368.66 297.77,368.66 300.83,365.61 300.83,361.54 303.88,358.49 313.03,358.49 316.08,361.54 316.08,365.61 319.14,368.66 328.29,368.66 331.34,365.61 331.34,361.54 334.39,358.49 343.55,358.49 346.6,361.54 346.6,365.61 349.65,368.66 358.8,368.66 361.86,365.61 361.86,361.54 364.91,358.49 374.06,358.49 377.11,361.54 377.11,365.61 380.17,368.66 389.32,368.66 392.37,365.61 392.37,361.54 395.42,358.49 404.58,358.49 407.63,361.54 407.63,365.61 410.68,368.66 419.83,368.66 422.89,365.61 422.89,361.54 425.94,358.49 435.09,358.49 438.14,361.54 438.14,365.61 441.2,368.66 450.35,368.66 453.4,365.61 453.4,361.54 456.45,358.49 465.61,358.49 468.66,361.54 468.66,365.61 471.71,368.66 480.86,368.66 483.92,365.61 483.92,361.54 486.97,358.49 496.12,358.49 499.17,361.54 499.17,365.61 502.23,368.66 511.38,368.66 514.43,365.61 514.43,361.54 517.48,358.49 526.64,358.49 529.69,361.54 529.69,365.61 532.74,368.66 541.89,368.66 544.95,365.61 544.95,361.54 548,358.49 557.15,358.49 560.2,361.54 560.2,365.61 563.25,368.66 572.41,368.66 575.46,365.61 575.46,361.54 578.51,358.49 587.67,358.49 590.72,361.54 590.72,365.61 593.77,368.66 602.92,368.66 605.98,365.61 605.98,361.54 609.03,358.49 618.18,358.49 621.23,361.54 621.23,365.61 624.28,368.66 633.44,368.66 636.49,365.61 636.49,361.54 639.54,358.49 648.7,358.49 651.75,361.54 651.75,365.61 654.8,368.66 663.95,368.66 667.01,365.61 667.01,361.54 670.06,358.49 679.21,358.49 682.26,361.54 682.26,365.61 685.31,368.66 694.47,368.66 697.52,365.61 697.52,361.54 700.57,358.49 709.73,358.49 712.78,361.54 712.78,365.61 715.83,368.66 744.31,368.66 752.99,365.06 760.04,358.01 763.64,349.33 763.64,250.67 760.04,241.99 752.99,234.94 744.31,231.34 715.83,231.34 712.78,234.39 712.78,238.46 709.73,241.51 700.57,241.51 697.52,238.46 697.52,234.39 694.47,231.34 685.31,231.34 682.26,234.39 682.26,238.46 679.21,241.51 670.06,241.51 667.01,238.46 667.01,234.39 663.95,231.34 654.8,231.34 651.75,234.39 651.75,238.46 648.7,241.51 639.54,241.51 636.49,238.46 636.49,234.39 633.44,231.34 624.28,231.34 621.23,234.39 621.23,238.46 618.18,241.51 609.03,241.51 605.98,238.46 605.98,234.39 602.92,231.34 593.77,231.34 590.72,234.39 590.72,238.46 587.67,241.51 578.51,241.51 575.46,238.46 575.46,234.39 572.41,231.34 563.25,231.34 560.2,234.39 560.2,238.46 557.15,241.51 548,241.51 544.95,238.46 544.95,234.39 541.89,231.34 532.74,231.34 529.69,234.39 529.69,238.46 526.64,241.51 517.48,241.51 514.43,238.46 514.43,234.39 511.38,231.34 502.23,231.34 499.17,234.39 499.17,238.46 496.12,241.51 486.97,241.51 483.92,238.46 483.92,234.39 480.86,231.34 471.71,231.34 468.66,234.39 468.66,238.46 465.61,241.51 456.45,241.51 453.4,238.46 453.4,234.39 450.35,231.34 441.2,231.34 438.14,234.39 438.14,238.46 435.09,241.51 425.94,241.51 422.89,238.46 422.89,234.39 419.83,231.34 410.68,231.34 407.63,234.39 407.63,238.46 404.58,241.51 395.42,241.51 392.37,238.46 392.37,234.39 389.32,231.34 380.17,231.34 377.11,234.39 377.11,238.46 374.06,241.51 364.91,241.51 361.86,238.46 361.86,234.39 358.8,231.34 349.65,231.34 346.6,234.39 346.6,238.46 343.55,241.51 334.39,241.51 331.34,238.46 331.34,234.39 328.29,231.34 319.14,231.34 316.08,234.39 316.08,238.46 313.03,241.51 303.88,241.51 300.83,238.46 300.83,234.39 297.77,231.34 288.62,231.34 285.57,234.39 285.57,238.46 282.52,241.51 273.36,241.51 270.31,238.46 270.31,234.39 267.26,231.34 258.11,231.34 255.05,234.39 255.05,238.46 252,241.51 242.85,241.51 239.8,238.46 239.8,234.39 236.75,231.34 227.59,231.34 224.54,234.39 224.54,238.46 221.49,241.51 212.33,241.51 209.28,238.46 209.28,234.39 206.23,231.34 197.08,231.34 194.02,234.39 194.02,238.46 190.97,241.51 181.82,241.51 178.77,238.46 178.77,234.39 175.72,231.34 166.56,231.34 163.51,234.39 163.51,238.46 160.46,241.51 151.3,241.51 148.25,238.46 148.25,234.39 145.2,231.34 136.05,231.34 132.99,234.39 132.99,238.46 129.94,241.51 120.79,241.51 117.74,238.46 117.74,234.39 114.69,231.34 105.53,231.34 102.48,234.39 102.48,238.46 99.43,241.51 90.27,241.51 87.22,238.46 87.22,234.39 84.17,231.34 55.69,231.34 47.01,234.94 39.96,241.99 36.36,250.67 36.36,349.33 39.96,358.01 47.01,365.06" style="fill:none;stroke:black;stroke-width:0.5"/>
</svg>
