<?xml version="1.0" encoding="UTF-8"?>
<svg xmlns="http://www.w3.org/2000/svg" width="800.000" height="600.000" viewBox="0.0 0.0 800.000 600.000" version="1.1">
  <desc>Produce by Acme CAD Converter</desc>
<path d="M 7.84 361.79 A 14.26 14.26 0 0 0 22.1 376.05"
fill="none" stroke="black" stroke-width="0.5"/>
<path d="M22.1 376.05L777.9 376.05"
fill="none" stroke="black" stroke-width="0.5"/>
<path d="M 777.9 376.05 A 14.26 14.26 0 0 0 792.16 361.79"
fill="none" stroke="black" stroke-width="0.5"/>
<path d="M792.16 361.79L792.16 238.21Z"
fill="none" stroke="black" stroke-width="0.5"/>
<path d="M 792.16 238.21 A 14.26 14.26 0 0 0 777.9 223.95"
fill="none" stroke="black" stroke-width="0.5"/>
<path d="M777.9 223.95L697.09 223.95"
fill="none" stroke="black" stroke-width="0.5"/>
<path d="M697.09 223.95L695.61 227.97"
fill="none" stroke="black" stroke-width="0.5"/>
<path d="M 686.69 227.97 A 4.753 4.753 0 0 0 695.61 227.97"
fill="none" stroke="black" stroke-width="0.5"/>
<path d="M686.69 227.97L685.2 223.95"
fill="none" stroke="black" stroke-width="0.5"/>
<path d="M685.2 223.95L655.5 223.95"
fill="none" stroke="black" stroke-width="0.5"/>
<path d="M655.5 223.95L654.01 227.97"
fill="none" stroke="black" stroke-width="0.5"/>
<path d="M 645.09 227.97 A 4.753 4.753 0 0 0 654.01 227.97"
fill="none" stroke="black" stroke-width="0.5"/>
<path d="M645.09 227.97L643.61 223.95"
fill="none" stroke="black" stroke-width="0.5"/>
<path d="M643.61 223.95L613.9 223.95"
fill="none" stroke="black" stroke-width="0.5"/>
<path d="M613.9 223.95L612.42 227.97"
fill="none" stroke="black" stroke-width="0.5"/>
<path d="M 603.5 227.97 A 4.753 4.753 0 0 0 612.42 227.97"
fill="none" stroke="black" stroke-width="0.5"/>
<path d="M603.5 227.97L602.02 223.95"
fill="none" stroke="black" stroke-width="0.5"/>
<path d="M602.02 223.95L572.31 223.95"
fill="none" stroke="black" stroke-width="0.5"/>
<path d="M572.31 223.95L570.83 227.97"
fill="none" stroke="black" stroke-width="0.5"/>
<path d="M 561.91 227.97 A 4.753 4.753 0 0 0 570.83 227.97"
fill="none" stroke="black" stroke-width="0.5"/>
<path d="M561.91 227.97L560.43 223.95"
fill="none" stroke="black" stroke-width="0.5"/>
<path d="M560.43 223.95L530.72 223.95"
fill="none" stroke="black" stroke-width="0.5"/>
<path d="M530.72 223.95L529.24 227.97"
fill="none" stroke="black" stroke-width="0.5"/>
<path d="M 520.32 227.97 A 4.753 4.753 0 0 0 529.24 227.97"
fill="none" stroke="black" stroke-width="0.5"/>
<path d="M520.32 227.97L518.84 223.95"
fill="none" stroke="black" stroke-width="0.5"/>
<path d="M518.84 223.95L489.13 223.95"
fill="none" stroke="black" stroke-width="0.5"/>
<path d="M489.13 223.95L487.64 227.97"
fill="none" stroke="black" stroke-width="0.5"/>
<path d="M 478.72 227.97 A 4.753 4.753 0 0 0 487.64 227.97"
fill="none" stroke="black" stroke-width="0.5"/>
<path d="M478.72 227.97L477.24 223.95"
fill="none" stroke="black" stroke-width="0.5"/>
<path d="M477.24 223.95L447.53 223.95"
fill="none" stroke="black" stroke-width="0.5"/>
<path d="M447.53 223.95L446.05 227.97"
fill="none" stroke="black" stroke-width="0.5"/>
<path d="M 437.13 227.97 A 4.753 4.753 0 0 0 446.05 227.97"
fill="none" stroke="black" stroke-width="0.5"/>
<path d="M437.13 227.97L435.65 223.95"
fill="none" stroke="black" stroke-width="0.5"/>
<path d="M435.65 223.95L405.94 223.95"
fill="none" stroke="black" stroke-width="0.5"/>
<path d="M405.94 223.95L404.46 227.97"
fill="none" stroke="black" stroke-width="0.5"/>
<path d="M 395.54 227.97 A 4.753 4.753 0 0 0 404.46 227.97"
fill="none" stroke="black" stroke-width="0.5"/>
<path d="M395.54 227.97L394.06 223.95"
fill="none" stroke="black" stroke-width="0.5"/>
<path d="M394.06 223.95L364.35 223.95"
fill="none" stroke="black" stroke-width="0.5"/>
<path d="M364.35 223.95L362.87 227.97"
fill="none" stroke="black" stroke-width="0.5"/>
<path d="M 353.95 227.97 A 4.753 4.753 0 0 0 362.87 227.97"
fill="none" stroke="black" stroke-width="0.5"/>
<path d="M353.95 227.97L352.47 223.95"
fill="none" stroke="black" stroke-width="0.5"/>
<path d="M352.47 223.95L322.76 223.95"
fill="none" stroke="black" stroke-width="0.5"/>
<path d="M322.76 223.95L321.28 227.97"
fill="none" stroke="black" stroke-width="0.5"/>
<path d="M 312.36 227.97 A 4.753 4.753 0 0 0 321.28 227.97"
fill="none" stroke="black" stroke-width="0.5"/>
<path d="M312.36 227.97L310.87 223.95"
fill="none" stroke="black" stroke-width="0.5"/>
<path d="M310.87 223.95L281.16 223.95"
fill="none" stroke="black" stroke-width="0.5"/>
<path d="M281.16 223.95L279.68 227.97"
fill="none" stroke="black" stroke-width="0.5"/>
<path d="M 270.76 227.97 A 4.753 4.753 0 0 0 279.68 227.97"
fill="none" stroke="black" stroke-width="0.5"/>
<path d="M270.76 227.97L269.28 223.95"
fill="none" stroke="black" stroke-width="0.5"/>
<path d="M269.28 223.95L239.57 223.95"
fill="none" stroke="black" stroke-width="0.5"/>
<path d="M239.57 223.95L238.09 227.97"
fill="none" stroke="black" stroke-width="0.5"/>
<path d="M 229.17 227.97 A 4.753 4.753 0 0 0 238.09 227.97"
fill="none" stroke="black" stroke-width="0.5"/>
<path d="M229.17 227.97L227.69 223.95"
fill="none" stroke="black" stroke-width="0.5"/>
<path d="M227.69 223.95L197.98 223.95"
fill="none" stroke="black" stroke-width="0.5"/>
<path d="M197.98 223.95L196.5 227.97"
fill="none" stroke="black" stroke-width="0.5"/>
<path d="M 187.58 227.97 A 4.753 4.753 0 0 0 196.5 227.97"
fill="none" stroke="black" stroke-width="0.5"/>
<path d="M187.58 227.97L186.1 223.95"
fill="none" stroke="black" stroke-width="0.5"/>
<path d="M186.1 223.95L156.39 223.95"
fill="none" stroke="black" stroke-width="0.5"/>
<path d="M156.39 223.95L154.91 227.97"
fill="none" stroke="black" stroke-width="0.5"/>
<path d="M 145.99 227.97 A 4.753 4.753 0 0 0 154.91 227.97"
fill="none" stroke="black" stroke-width="0.5"/>
<path d="M145.99 227.97L144.5 223.95"
fill="none" stroke="black" stroke-width="0.5"/>
<path d="M144.5 223.95L114.8 223.95"
fill="none" stroke="black" stroke-width="0.5"/>
<path d="M114.8 223.95L113.31 227.97"
fill="none" stroke="black" stroke-width="0.5"/>
<path d="M 104.39 227.97 A 4.753 4.753 0 0 0 113.31 227.97"
fill="none" stroke="black" stroke-width="0.5"/>
<path d="M104.39 227.97L102.91 223.95"
fill="none" stroke="black" stroke-width="0.5"/>
<path d="M102.91 223.95L22.1 223.95"
fill="none" stroke="black" stroke-width="0.5"/>
<path d="M 22.1 223.95 A 14.26 14.26 0 0 0 7.84 238.21"
fill="none" stroke="black" stroke-width="0.5"/>
<path d="M7.84 238.21L7.84 361.79Z"
fill="none" stroke="black" stroke-width="0.5"/>
</svg>
