<?xml version="1.0" encoding="UTF-8"?>
<svg xmlns="http://www.w3.org/2000/svg" width="800.000" height="600.000" viewBox="0.0 0.0 800.000 600.000" version="1.1">
  <title>Produce by Acme CAD Converter</title>
  <desc>Produce by Acme CAD Converter</desc>
<polyline points="36.36,349.15 38.85,355.15 43.91,360.21 49.91,362.7 88.53,362.7 91.54,359.69 91.54,355.67 94.55,352.66 103.57,352.66 106.58,355.67 106.58,359.69 109.59,362.7 118.62,362.7 121.63,359.69 121.63,355.67 124.64,352.66 133.67,352.66 136.68,355.67 136.68,359.69 139.69,362.7 148.71,362.7 151.72,359.69 151.72,355.67 154.73,352.66 163.76,352.66 166.77,355.67 166.77,359.69 169.78,362.7 178.81,362.7 181.82,359.69 181.82,355.67 184.83,352.66 193.86,352.66 196.87,355.67 196.87,359.69 199.87,362.7 208.9,362.7 211.91,359.69 211.91,355.67 214.92,352.66 223.95,352.66 226.96,355.67 226.96,359.69 229.97,362.7 239,362.7 242.01,359.69 242.01,355.67 245.02,352.66 254.04,352.66 257.05,355.67 257.05,359.69 260.06,362.7 269.09,362.7 272.1,359.69 272.1,355.67 275.11,352.66 284.14,352.66 287.15,355.67 287.15,359.69 290.16,362.7 299.18,362.7 302.19,359.69 302.19,355.67 305.2,352.66 314.23,352.66 317.24,355.67 317.24,359.69 320.25,362.7 329.28,362.7 332.29,359.69 332.29,355.67 335.3,352.66 344.33,352.66 347.34,355.67 347.34,359.69 350.34,362.7 359.37,362.7 362.38,359.69 362.38,355.67 365.39,352.66 374.42,352.66 377.43,355.67 377.43,359.69 380.44,362.7 389.47,362.7 392.48,359.69 392.48,355.67 395.49,352.66 404.51,352.66 407.52,355.67 407.52,359.69 410.53,362.7 419.56,362.7 422.57,359.69 422.57,355.67 425.58,352.66 434.61,352.66 437.62,355.67 437.62,359.69 440.63,362.7 449.66,362.7 452.66,359.69 452.66,355.67 455.67,352.66 464.7,352.66 467.71,355.67 467.71,359.69 470.72,362.7 479.75,362.7 482.76,359.69 482.76,355.67 485.77,352.66 494.8,352.66 497.81,355.67 497.81,359.69 500.82,362.7 509.84,362.7 512.85,359.69 512.85,355.67 515.86,352.66 524.89,352.66 527.9,355.67 527.9,359.69 530.91,362.7 539.94,362.7 542.95,359.69 542.95,355.67 545.96,352.66 554.98,352.66 557.99,355.67 557.99,359.69 561,362.7 570.03,362.7 573.04,359.69 573.04,355.67 576.05,352.66 585.08,352.66 588.09,355.67 588.09,359.69 591.1,362.7 600.13,362.7 603.13,359.69 603.13,355.67 606.14,352.66 615.17,352.66 618.18,355.67 618.18,359.69 621.19,362.7 630.22,362.7 633.23,359.69 633.23,355.67 636.24,352.66 645.27,352.66 648.28,355.67 648.28,359.69 651.29,362.7 660.31,362.7 663.32,359.69 663.32,355.67 666.33,352.66 675.36,352.66 678.37,355.67 678.37,359.69 681.38,362.7 690.41,362.7 693.42,359.69 693.42,355.67 696.43,352.66 705.45,352.66 708.46,355.67 708.46,359.69 711.47,362.7 750.09,362.7 756.09,360.21 761.15,355.15 763.64,349.15 763.64,251.5 749.44,237.3 694.42,237.3 690.26,240.75 687.15,257.37 669.59,257.37 666.48,240.75 662.32,237.3 601.63,237.3 597.47,240.75 594.36,257.37 576.8,257.37 573.69,240.75 569.53,237.3 508.84,237.3 504.68,240.75 501.57,257.37 484.01,257.37 480.9,240.75 476.74,237.3 416.05,237.3 411.89,240.75 408.78,257.37 391.22,257.37 388.11,240.75 383.95,237.3 323.26,237.3 319.1,240.75 315.99,257.37 298.43,257.37 295.32,240.75 291.16,237.3 230.47,237.3 226.31,240.75 223.2,257.37 205.64,257.37 202.53,240.75 198.37,237.3 137.68,237.3 133.52,240.75 130.41,257.37 112.85,257.37 109.74,240.75 105.58,237.3 50.56,237.3 36.36,251.5 36.36,349.15" style="fill:none;stroke:black;stroke-width:0.5"/>
</svg>
