<?xml version="1.0" encoding="UTF-8"?>
<svg xmlns="http://www.w3.org/2000/svg" width="800.000" height="600.000" viewBox="0.0 0.0 800.000 600.000" version="1.1">
  <title>Produce by Acme CAD Converter</title>
  <desc>Produce by Acme CAD Converter</desc>
<polyline points="56.2,231.34 46.65,235.3 40.32,241.63 36.36,251.18 36.36,348.82 40.32,358.37 46.65,364.7 56.2,368.66 142.15,368.66 145.71,365.1 145.71,359.5 149.27,355.94 152.32,355.94 155.88,359.5 155.88,365.1 159.44,368.66 167.58,368.66 171.14,365.1 171.14,359.5 174.7,355.94 177.75,355.94 181.31,359.5 181.31,365.1 184.87,368.66 193.01,368.66 196.57,365.1 196.57,359.5 200.13,355.94 203.18,355.94 206.74,359.5 206.74,365.1 210.3,368.66 218.44,368.66 222,365.1 222,359.5 225.56,355.94 228.61,355.94 232.17,359.5 232.17,365.1 235.73,368.66 243.87,368.66 247.43,365.1 247.43,359.5 250.99,355.94 254.04,355.94 257.6,359.5 257.6,365.1 261.16,368.66 538.84,368.66 542.4,365.1 542.4,359.5 545.96,355.94 549.01,355.94 552.57,359.5 552.57,365.1 556.13,368.66 564.27,368.66 567.83,365.1 567.83,359.5 571.39,355.94 574.44,355.94 578,359.5 578,365.1 581.56,368.66 589.7,368.66 593.26,365.1 593.26,359.5 596.82,355.94 599.87,355.94 603.43,359.5 603.43,365.1 606.99,368.66 615.13,368.66 618.69,365.1 618.69,359.5 622.25,355.94 625.3,355.94 628.86,359.5 628.86,365.1 632.42,368.66 640.56,368.66 644.12,365.1 644.12,359.5 647.68,355.94 650.73,355.94 654.29,359.5 654.29,365.1 657.85,368.66 743.8,368.66 753.35,364.7 759.68,358.37 763.64,348.82 763.64,251.18 759.68,241.63 753.35,235.3 743.8,231.34 657.85,231.34 654.29,234.9 654.29,243.04 650.73,246.6 647.68,246.6 644.12,243.04 644.12,234.9 640.56,231.34 632.42,231.34 628.86,234.9 628.86,243.04 625.3,246.6 622.25,246.6 618.69,243.04 618.69,234.9 615.13,231.34 606.99,231.34 603.43,234.9 603.43,243.04 599.87,246.6 596.82,246.6 593.26,243.04 593.26,234.9 589.7,231.34 581.56,231.34 578,234.9 578,243.04 574.44,246.6 571.39,246.6 567.83,243.04 567.83,234.9 564.27,231.34 556.13,231.34 552.57,234.9 552.57,243.04 549.01,246.6 545.96,246.6 542.4,243.04 542.4,234.9 538.84,231.34 261.16,231.34 257.6,234.9 257.6,240.5 254.04,244.06 250.99,244.06 247.43,240.5 247.43,234.9 243.87,231.34 235.73,231.34 232.17,234.9 232.17,240.5 228.61,244.06 225.56,244.06 222,240.5 222,234.9 218.44,231.34 210.3,231.34 206.74,234.9 206.74,240.5 203.18,244.06 200.13,244.06 196.57,240.5 196.57,234.9 193.01,231.34 184.87,231.34 181.31,234.9 181.31,240.5 177.75,244.06 174.7,244.06 171.14,240.5 171.14,234.9 167.58,231.34 159.44,231.34 155.88,234.9 155.88,240.5 152.32,244.06 149.27,244.06 145.71,240.5 145.71,234.9 142.15,231.34 56.2,231.34" style="fill:none;stroke:black;stroke-width:0.5"/>
</svg>
