<?xml version="1.0" encoding="UTF-8"?>
<svg xmlns="http://www.w3.org/2000/svg" width="800.000" height="600.000" viewBox="0.0 0.0 800.000 600.000" version="1.1">
  <title>Produce by Acme CAD Converter</title>
  <desc>Produce by Acme CAD Converter</desc>
<polyline points="459.55,571.18 463.27,572.73 650.91,572.73 660.22,568.87 668.87,560.22 672.73,550.91 672.73,363.27 671.18,359.55 668.82,357.18 665.09,355.64 631.27,355.64 627.55,357.18 625.18,359.55 623.64,363.27 623.64,380.73 625.18,384.45 627.55,386.82 631.27,388.36 643.27,388.36 647,389.91 649.37,392.28 650.91,396 650.91,412.36 649.37,416.09 647,418.46 643.27,420 607.27,420 547.27,360 547.27,240 607.27,180 643.27,180 647,181.54 649.37,183.91 650.91,187.64 650.91,204 649.37,207.72 647,210.09 643.27,211.64 631.27,211.64 627.55,213.18 625.18,215.55 623.64,219.27 623.64,236.73 625.18,240.45 627.55,242.82 631.27,244.36 665.09,244.36 668.82,242.82 671.18,240.45 672.73,236.73 672.73,49.09 668.87,39.78 660.22,31.13 650.91,27.27 454.55,27.27 421.82,60 421.82,234.55 378.18,234.55 378.18,60 345.45,27.27 149.09,27.27 139.78,31.13 131.13,39.78 127.27,49.09 127.27,236.73 128.82,240.45 131.18,242.82 134.91,244.36 168.73,244.36 172.45,242.82 174.82,240.45 176.36,236.73 176.36,219.27 174.82,215.55 172.45,213.18 168.73,211.64 156.73,211.64 153,210.09 150.63,207.72 149.09,204 149.09,187.64 150.63,183.91 153,181.54 156.73,180 192.73,180 252.73,240 252.73,360 192.73,420 156.73,420 153,418.46 150.63,416.09 149.09,412.36 149.09,396 150.63,392.28 153,389.91 156.73,388.36 168.73,388.36 172.45,386.82 174.82,384.45 176.36,380.73 176.36,363.27 174.82,359.55 172.45,357.18 168.73,355.64 134.91,355.64 131.18,357.18 128.82,359.55 127.27,363.27 127.27,550.91 131.13,560.22 139.78,568.87 149.09,572.73 336.73,572.73 340.45,571.18 342.82,568.82 344.36,565.09 344.36,531.27 342.82,527.55 340.45,525.18 336.73,523.64 319.27,523.64 315.55,525.18 313.18,527.55 311.64,531.27 311.64,543.27 310.09,547 307.72,549.37 304,550.91 287.64,550.91 283.91,549.37 281.54,547 280,543.27 280,507.27 340,447.27 460,447.27 520,507.27 520,543.27 518.46,547 516.09,549.37 512.36,550.91 496,550.91 492.28,549.37 489.91,547 488.36,543.27 488.36,531.27 486.82,527.55 484.45,525.18 480.73,523.64 463.27,523.64 459.55,525.18 457.18,527.55 455.64,531.27 455.64,565.09 457.18,568.82 459.55,571.18" style="fill:none;stroke:black;stroke-width:0.5"/>
<polyline points="539.64,526.91 626.91,439.64 645.45,439.64 649.18,441.18 651.55,443.55 653.09,447.27 653.09,545.45 651.55,549.18 649.18,551.55 645.45,553.09 547.27,553.09 543.55,551.55 541.18,549.18 539.64,545.45 539.64,526.91" style="fill:none;stroke:black;stroke-width:0.5"/>
<polyline points="260.36,526.91 260.36,545.45 258.82,549.18 256.45,551.55 252.73,553.09 154.55,553.09 150.82,551.55 148.45,549.18 146.91,545.45 146.91,447.27 148.45,443.55 150.82,441.18 154.55,439.64 173.09,439.64 260.36,526.91" style="fill:none;stroke:black;stroke-width:0.5"/>
<polyline points="359.64,427.64 272.36,340.36 272.36,261.82 273.91,258.09 276.28,255.72 280,254.18 520,254.18 523.72,255.72 526.09,258.09 527.64,261.82 527.64,340.36 440.36,427.64 359.64,427.64" style="fill:none;stroke:black;stroke-width:0.5"/>
<polyline points="599.14,160.36 524.96,234.55 449.09,234.55 445.37,233 443,230.63 441.45,226.91 441.45,68.13 462.68,46.91 645.45,46.91 649.18,48.45 651.55,50.82 653.09,54.55 653.09,152.73 651.55,156.45 649.18,158.82 645.45,160.36 599.14,160.36" style="fill:none;stroke:black;stroke-width:0.5"/>
<polyline points="198.68,158.18 154.55,158.18 150.82,156.64 148.45,154.27 146.91,150.55 146.91,54.55 148.45,50.82 150.82,48.45 154.55,46.91 337.32,46.91 358.55,68.13 358.55,226.91 357,230.63 354.63,233 350.91,234.55 275.04,234.55 198.68,158.18" style="fill:none;stroke:black;stroke-width:0.5"/>
<polyline points="527.64,368.13 599.14,439.64 539.64,499.14 468.13,427.64 527.64,368.13" style="fill:none;stroke:black;stroke-width:0.5"/>
<polyline points="331.87,427.64 260.36,499.14 200.86,439.64 272.36,368.13 331.87,427.64" style="fill:none;stroke:black;stroke-width:0.5"/>
</svg>
