<?xml version="1.0" encoding="UTF-8"?>
<svg xmlns="http://www.w3.org/2000/svg" width="800.000" height="600.000" viewBox="0.0 0.0 800.000 600.000" version="1.1">
  <title>Produce by Acme CAD Converter</title>
  <desc>Produce by Acme CAD Converter</desc>
<polyline points="401.35,243.45 398.65,243.45 377.37,270.6 203.64,132.78 203.64,49.09 596.36,49.09 596.36,132.78 422.63,270.6 401.35,243.45" style="fill:none;stroke:black;stroke-width:0.5"/>
<polyline points="383.64,325.85 383.64,289.13 400,268.25 416.36,289.13 416.36,325.85 443.64,354.8 443.64,425.45 356.36,425.45 356.36,354.8 383.64,325.85" style="fill:none;stroke:black;stroke-width:0.5"/>
<polyline points="340,439.64 342.18,441.82 367.27,441.82 367.27,539.97 356.33,550.91 203.64,550.91 203.64,155.85 205.35,155.03 367.27,283.48 367.27,319.36 340,348.3 340,439.64" style="fill:none;stroke:black;stroke-width:0.5"/>
<polyline points="192.18,27.27 187.53,29.2 183.75,32.98 181.82,37.64 181.82,289.09 185.09,289.09 187.27,291.27 187.27,308.73 185.09,310.91 181.82,310.91 181.82,562.36 183.75,567.02 187.53,570.8 192.18,572.73 361.82,572.73 383.64,550.91 383.64,441.82 416.36,441.82 416.36,550.91 438.18,572.73 607.82,572.73 612.47,570.8 616.25,567.02 618.18,562.36 618.18,310.91 614.91,310.91 612.73,308.73 612.73,291.27 614.91,289.09 618.18,289.09 618.18,37.64 616.25,32.98 612.47,29.2 607.82,27.27 410.91,27.27 410.91,30.55 408.73,32.73 391.27,32.73 389.09,30.55 389.09,27.27 192.18,27.27" style="fill:none;stroke:black;stroke-width:0.5"/>
<polyline points="457.82,441.82 460,439.64 460,348.3 432.73,319.36 432.73,283.48 594.65,155.03 596.36,155.85 596.36,550.91 443.67,550.91 432.73,539.97 432.73,441.82 457.82,441.82" style="fill:none;stroke:black;stroke-width:0.5"/>
</svg>
