<?xml version="1.0" encoding="UTF-8"?>
<svg xmlns="http://www.w3.org/2000/svg" width="800.000" height="600.000" viewBox="0.0 0.0 800.000 600.000" version="1.1">
  <title>Produce by Acme CAD Converter</title>
  <desc>Produce by Acme CAD Converter</desc>
<polyline points="763.64,95.32 757.76,81.14 748.73,72.11 734.55,66.23 671.17,66.23 664.94,72.47 664.94,80.78 658.7,87.01 640,87.01 633.77,80.78 633.77,72.47 627.53,66.23 608.83,66.23 602.6,72.47 602.6,80.78 596.36,87.01 577.66,87.01 571.43,80.78 571.43,72.47 565.19,66.23 546.49,66.23 540.26,72.47 540.26,80.78 534.03,87.01 515.32,87.01 509.09,80.78 509.09,72.47 502.86,66.23 484.16,66.23 477.92,72.47 477.92,80.78 471.69,87.01 452.99,87.01 446.75,80.78 446.75,72.47 440.52,66.23 421.82,66.23 415.58,72.47 415.58,80.78 409.35,87.01 390.65,87.01 384.42,80.78 384.42,72.47 378.18,66.23 359.48,66.23 353.25,72.47 353.25,80.78 347.01,87.01 328.31,87.01 322.08,80.78 322.08,72.47 315.84,66.23 297.14,66.23 290.91,72.47 290.91,80.78 284.68,87.01 265.97,87.01 259.74,80.78 259.74,72.47 253.51,66.23 234.81,66.23 228.57,72.47 228.57,80.78 222.34,87.01 203.64,87.01 197.4,80.78 197.4,72.47 191.17,66.23 172.47,66.23 166.23,72.47 166.23,80.78 160,87.01 141.3,87.01 135.06,80.78 135.06,72.47 128.83,66.23 65.45,66.23 51.27,72.11 42.24,81.14 36.36,95.32 36.36,504.68 42.24,518.86 51.27,527.89 65.45,533.77 128.83,533.77 135.06,527.53 135.06,519.22 141.3,512.99 160,512.99 166.23,519.22 166.23,527.53 172.47,533.77 191.17,533.77 197.4,527.53 197.4,519.22 203.64,512.99 222.34,512.99 228.57,519.22 228.57,527.53 234.81,533.77 253.51,533.77 259.74,527.53 259.74,519.22 265.97,512.99 284.68,512.99 290.91,519.22 290.91,527.53 297.14,533.77 315.84,533.77 322.08,527.53 322.08,519.22 328.31,512.99 347.01,512.99 353.25,519.22 353.25,527.53 359.48,533.77 378.18,533.77 384.42,527.53 384.42,519.22 390.65,512.99 409.35,512.99 415.58,519.22 415.58,527.53 421.82,533.77 440.52,533.77 446.75,527.53 446.75,519.22 452.99,512.99 471.69,512.99 477.92,519.22 477.92,527.53 484.16,533.77 502.86,533.77 509.09,527.53 509.09,519.22 515.32,512.99 534.03,512.99 540.26,519.22 540.26,527.53 546.49,533.77 565.19,533.77 571.43,527.53 571.43,519.22 577.66,512.99 596.36,512.99 602.6,519.22 602.6,527.53 608.83,533.77 627.53,533.77 633.77,527.53 633.77,519.22 640,512.99 658.7,512.99 664.94,519.22 664.94,527.53 671.17,533.77 734.55,533.77 748.73,527.89 757.76,518.86 763.64,504.68 763.64,95.32" style="fill:none;stroke:black;stroke-width:0.5"/>
</svg>
