<?xml version="1.0" encoding="UTF-8"?>
<svg xmlns="http://www.w3.org/2000/svg" width="800.000" height="600.000" viewBox="0.0 0.0 800.000 600.000" version="1.1">
  <title>Produce by Acme CAD Converter</title>
  <desc>Produce by Acme CAD Converter</desc>
<polyline points="54.18,72.73 45.49,76.33 39.96,81.85 36.36,90.55 36.36,509.45 39.96,518.15 45.49,523.67 54.18,527.27 336.36,527.27 372.73,490.91 372.73,309.09 427.27,309.09 427.27,490.91 463.64,527.27 745.82,527.27 754.51,523.67 760.04,518.15 763.64,509.45 763.64,90.55 760.04,81.85 754.51,76.33 745.82,72.73 54.18,72.73" style="fill:none;stroke:black;stroke-width:0.5"/>
<polyline points="727.27,121.76 727.27,487.27 723.64,490.91 478.7,490.91 454.55,466.76 454.55,309.09 724.29,120.21 727.27,121.76" style="fill:none;stroke:black;stroke-width:0.5"/>
<polyline points="75.71,120.21 345.45,309.09 345.45,466.76 321.3,490.91 76.36,490.91 72.73,487.27 72.73,121.76 75.71,120.21" style="fill:none;stroke:black;stroke-width:0.5"/>
<polyline points="111.01,109.09 688.99,109.09 689.65,111.18 445.95,281.82 354.05,281.82 110.35,111.18 111.01,109.09" style="fill:none;stroke:black;stroke-width:0.5"/>
</svg>
